<mxfile host="app.diagrams.net" modified="2022-04-25T10:15:23.364Z" agent="5.0 (X11)" etag="P0Ist2Xvd5qS3HaouaOW" version="17.4.6" type="github">
  <diagram id="Z7vde8HnI1L9QoZFm1AY" name="Page-1">
    <mxGraphModel dx="1185" dy="1741" grid="1" gridSize="10" guides="1" tooltips="1" connect="1" arrows="1" fold="1" page="1" pageScale="1" pageWidth="850" pageHeight="1100" math="0" shadow="0">
      <root>
        <mxCell id="0" />
        <mxCell id="1" parent="0" />
        <mxCell id="vNEpbfYkABLHEOKN5NfH-1" value="" style="shape=image;verticalLabelPosition=bottom;labelBackgroundColor=default;verticalAlign=top;aspect=fixed;imageAspect=0;image=https://cdn.discordapp.com/attachments/938023940226428959/968055235216031774/unknown.png;" vertex="1" parent="1">
          <mxGeometry x="710" y="-20" width="520" height="327" as="geometry" />
        </mxCell>
        <mxCell id="vNEpbfYkABLHEOKN5NfH-2" value="" style="shape=image;verticalLabelPosition=bottom;labelBackgroundColor=default;verticalAlign=top;aspect=fixed;imageAspect=0;image=data:image/png,iVBORw0KGgoAAAANSUhEUgAABsIAAAD9CAIAAACJGvVdAAAAA3NCSVQICAjb4U/gAAAgAElEQVR4Xuy9u9Z2vU02uv7UcABwAHAA0CerD/RAD9RsajY99EDNpv9CDwfA17PeHr4eepbC9Q8NZ9qWZW1sz/txiozE05aly7IsXfb9vP/nf/7nf/6f+5+LwEXgInARuAhcBC4CF4GLwEXgInARuAhcBC4CF4GLwEXgItBH4Ef9T/fLReAicBG4CFwELgIXgYvAReAicBG4CFwELgIXgYvAReAicBH4OQKXRrx+cBG4CFwELgIXgYvAReAicBG4CFwELgIXgYvAReAicBG4CAwQuDTiAKD7+SJwEbgIXAQuAheBi8BF4CJwEbgIXAQuAheBi8BF4CJwEbg04vWBi8BF4CJwEbgIXAQuAheBi8BF4CJwEbgIXAQuAheBi8BFYIDApREHAN3PF4GLwEXgInARuAhcBC4CF4GLwEXgInARuAhcBC4CF4GLwKURrw9cBC4CF4GLwEXgInARuAhcBC4CF4GLwEXgInARuAhcBC4CAwQujTgA6H6+CFwELgIXgYvAReAicBG4CFwELgIXgYvAReAicBG4CFwELo14feAicBG4CFwELgIXgYvAReAicBG4CFwELgIXgYvAReAicBEYIHBpxAFA9/NF4CJwEbgIXAQuAheBi8BF4CJwEbgIXAQuAheBi8BF4CJwacTrAxeBi8BF4CJwEbgIXAQuAheBi8BF4CJwEbgIXAQuAheBi8AAgUsjDgC6ny8CF4GLwEXgInARuAhcBC4CF4GLwEXgInARuAhcBC4CF4FLI14fuAhcBC4CF4GLwEXgInARuAhcBC4CF4GLwEXgInARuAhcBAYIXBpxAND9fBG4CFwELgIXgYvAReAicBG4CFwELgIXgYvAReAicBG4CFwa8frAReAicBG4CFwELgIXgYvAReAicBG4CFwELgIXgYvAReAiMEDg0ogDgO7ni8BF4CJwEbgIXAQuAheBi8BF4CJwEbgIXAQuAheBi8BF4NKI1wcuAheBi8BF4CJwEbgIXAQuAheBi8BF4CJwEbgIXAQuAheBAQKXRhwAdD9fBC4CF4GLwEXgInARuAhcBC4CF4GLwEXgInARuAhcBC4Cl0a8PnARuAhcBC4CF4GLwEXgInARuAhcBC4CF4GLwEXgInARuAgMELg04gCg+/kicBG4CFwELgIXgYvAReAicBG4CFwELgIXgYvAReAicBG4NOL1gYvAReAicBG4CFwELgIXgYvAReAicBG4CFwELgIXgYvARWCAwKURBwDdzxeBi8BF4CJwEbgIXAQuAheBi8BF4CJwEbgIXAQuAheBi8ClEa8PXAQuAheBi8BF4CJwEbgIXAQuAheBi8BF4CJwEbgIXAQuAgMELo04AOh+vghcBC4CF4GLwEXgInARuAhcBC4CF4GLwEXgInARuAhcBC6NeH3gInARuAhcBC4CF4GLwEXgInARuAhcBC4CF4GLwEXgInARGCBwacQBQPfzReAicBG4CFwELgIXgYvAReAicBG4CFwELgIXgYvAReAicGnE6wMXgYvAReAicBG4CFwELgIXgYvAReAicBG4CFwELgIXgYvAAIFLIw4Aup8vAheBi8BF4CJwEbgIXAQuAheBi8BF4CJwEbgIXAQuAheBSyNeH7gIXAQuAheBi8BF4CJwEbgIXAQuAheBi8BF4CJwEbgIXAQGCFwacQDQ/XwRuAhcBC4CF4GLwEXgInARuAhcBC4CF4GLwEXgInARuAhcGvH6wEXgInARuAhcBC4CF4GLwEXgInARuAhcBC4CF4GLwEXgIjBA4NKIA4A+9fN//dd/fYBpC6zQTKHpQ2hv6aafF/5ASir1nJWM/nrhBn14iM23p2wvpzAPtGESNbUZ4Sa8HhBqi2b9pKlSrIE8RZSltc55kmmuVOFJUNcQLZ5owaL3bGRL/+M//iNwO8jTNb8u8JzmvM3Go5TZ7h5NiHqNZ0LX0xbtez1f1m34lZTfvnmHSs52eKMXzdp4+/Pue/UGTF3Hi0wqvFf4WxD4EY6E//d//2P432QnjWoO13969Jz9v8P+dYfAFqWoZrdeI7X/xV/8BaNK/xf/KaHmRkGI0P+3f/u3seK1nN/8zd/sfarbhdkhmbKo2hDZHM1XzNu0ohzetIVN/sd//MeebixEmELfh3r++7//+1AUdfvZz36m6UYrq+k2RImhwP+gxSKx9B/NAanXoQRKKdygz9RyPAxnW6bUgxDyIj1oj3nhFTSckH980vxfXi/bcJpiasUFlSheAQSzJo/lMyxErV65rE7FWHgUYg9tM1Qtp/iTP/mTkAWqQeaWv/3bv82eAnM5d41gQu/Td999t8a0hwLsbOYQ0bNI345UJGQ/6idt9iQ0cF5vRKOpGENEntnssL2RFGPoNIf7doVJyd/7vd+j/I3W+lhUZZQ4Hp6wd2RVlV9pUf7gD/6AHIks+uu//mvlqDd2+5d/+RcyE+UDJXhvNMGjMy00xTSYT2tNaHikfdhYgINwSv9N2/zDDEw1hw5xHJfkXfQfykujMvNUtd8l/AEybeHUIPaj/+9//0Mbg/5j+N8Ebm+4/tOj5+z/HfavOwS2kKh/+7d/YwDp/zaFTzWSQKpbHjJ7EsLbSSCcAbbgv8tVLtuF2ekTqqDakKFMWSyGUzDqSebh9D9qWzCcctO/+qu/EiRodFD2IRwoJ5bnIlGk0p//+Z8Pu1HP2uVgVP3f+p40lkhMzeyYhXILfWcaMtufhP/hH/7h1BSGWWALuTcOs5631MCiReNFvbE0F3vFf/7nf/a6Ce28BWzDS7g8mWIZr8yawEw4Cf3v2YVookTSeFmdirF8yhrhkxSim5PaGjNUZU1IOO++KBweZtJGYGTIH2wgaEYR+H/5l3+JJSD/1wxx9iHTeKOlZmO1npiX2snepIWrJy1byMnh56TA9nrpT//0T0kNoJHqYzImj68EC0OEA2tq+ILOFANZMQLwfAKIlCSFwR7if7+u1PyHf/gHxEO4K5mzYKFTp8BCYN/R/yYD14TfVKOawmk7E7vBoYbKhO2hr6lnUiMWmtMb+r+ERmy2k6T5ArEUlIiUITTYPcg3kMYvmP3tU1D0IKwYPTKH8lLg+XbTztGf4C1dlBSj05OCGCGfdIzm/qg5SelzFgwrREF2jUo9PBHRah16/Q0peG+KetKyJa/yIRMoAMmzy1//+7//W+5AXzVAafoocdCoBJ2J9hoqP9uTvGUqW9IYXio5u15M7Sktfdg7pd5U51If/ULUVnjGkjRKaFjt3k6vJ320/PM///MDt+GQuoMZvVrUrJPUEsqWQMUglnAmqh3/+5/+6Z/k2ae+lobbgq0wXSk8HBPMy7DQ/41dxIddpD/4BWqn/51kTjlpaRrRiOa9JixQ8xPBWFqXimpTAWosKaeVttf6UHLM6w7FwrdJPemwhZwBzPKv/MqvUGdSaTHRPNSQOjCfBSUJyQW7RqNYrw9hiLX+jd/4DaA6lZn0xC5rJ6/4u7/7O5rul37pl2ACblmWKZAxES0BFuXHP/7xr/3ar9EU5Ej0n4y5NsqkrQF6lNbu93//9+m/SRmy/fAtE4gY1bO80IwAYbLlAAq0yy+Kwjvfx9AuIHCwEQiuD7gn8OMjSyCU6C0zTu2f/vSnhB79N4aQd31eJJHRSPpKMPLtDkAmnHHuE/7EJJZJVJQOATTiv/7rvza1oaNUf1v1SM1nM/Vhfw12daZSj6ozVyVDRBDVY5u4CY29uZqZq4C/QROB8jCfr/JA/mrQljCs104A1vPJpl5zxqEb8yg9OIyDjDZJ7nlXU1Vq/PbtGz4NJaPb999/P9Vfj0apIc8ytS5TncvpZkErx5a4GYwtp7apQb7B7sG49ZZbaC/3mnPf9U4TYXbhU2mUUzHMUoZBWrIQmSSZ3K80XAi2grHCpxIH5W4VpDU/lVOQLeYN1RReNj70TzKnnBFLg1SM2hfMiNl5IjARJZs5RCmkA9WNWEfKRCFwYyWJqamq/7M/+zNShhTbqAzDyxDRzwhQUq5fJnmtCSioRF5EL8jQ+eSajRRmZvZv/uZvUGqSCYYjUkYm7yvztvQGhExA6CCj8qJini2QTCcdFoW8CEaBXyO29L1GNUHjMpAWjuIe/Tcs1RezTbFvaaQQgXOH9h0t9AOBD1vr2UXhHwf80R/9EcAhuBCgaIPUBMKs/A/uT9GbmVY6wem4JNei//77v/973l9R6fQHwyibxhwiQUrAAmTCmdp/53d+h8bS/s34wYREI2pCBi08pyYPC+XK9pETPDo//q+cuAt8Gav0eOdFphEvXipMU9Sz1K/DlAVeE7rm2HpS2VHqr7QETSEC/k1NSPKubSzP29O2hqJsqdfu0b8JWq+PoCGrJwgUPpUzCkv2UIwnHYLDZJ8MF31tOm1vFHUWMKlHEQJT8kmCHg2ertRqiEyp5FTncmAZxzx1jsHYUueptWD9yz1CEmYXiOX88MMPTZm1G8gtj23iwZMmouGlBAPCtbYPPzG7zUPyQ44yXNTqNVtoZYEDqlnDTmyKLRtJPjwQhBd9ijWhnAt8JU0E1iZvIkzK6FE2hnw3e0Y2FvQlWYpChbbnsqmhA0/HF9qxLP/Qr7gD2Y6pf/KTn/zWb/3W4oUQ9MRrbtpZtEzI1GkvnMBvss6sDC3iL//yLzMrZ472Ahohnx7kNVPYzcvykBljhbCvkksgHv7xH/8xTUHtRznGlNUMPkh8ciQYdZq3TxlVd6Z6G0GPvO7Xf/3XqQP9NzyQLD2ZfK9tMbSQi+IVLQU0rC8QID6C/gd9fcseNNg+HEKbF/uX3iH+7u/+LvfnCySiEcuEcyjwS3VgBpYCCJ3gbDvtL2Lq8X/xx2q+FCyBxlKmys+oCVKEL5ZP25nvX8Nfzv6cRixdv8wtytqmtz0eZI2+mg0p6oBRLWqoRlT513OCJPnNVRjyZbWSvSG99lpCs6UucoYLATmGeZtQNLXyNLJigoa1+3lm1Iwl2/U1gB4ozX5n9crOemUwXK8ST1e7VhOoUithyeqx5kUsB84KKY0yYFLCXhJ5tXW9lgeq5qhVbnPllm+q9ABhFs+HzMdws3WlWGjID9OcGrJkBo0yVGoMUZWFszTO3mLl00SMA9f84VPAHPJ5YMU0YtJEjB7vESYFPO92Hy4q/F/yNDgbuQRxZ+ipDIOC2KlPzGPSKOhACsxG+6kZe53ZcKgBdmYXp8lK0gLBG6HVrmXqgYZ2lL4gOqmFg8CxlBYUI6YYqv7qr/4qLgy2L7eMM38l/bFHOBiSY+DIiP07GEp9/N3IHDxoJQ6algMCaXVebVQTFphJvocrAfQhzgiWgmJrDvyMRn4wS6QDMcVsFDkwQi51MGSqnwEO/r4H+QZI1dIoEDTU8kWerM4uKLPztK1KDhFymKmnw/Qr89SzqD76EwmLlppDRDshn/Ry9uc0YlkL9ZJyZb00VbqbURsGsjVqmPUfDuxVC8pVGMo3lPqMeT1WqCvkhZDXUf4aBYWMVW1s3V/Ws+7vb9HbXjpSz6ma+uinoOG9oFFKLp1EKdwJrGbtWMNyrql5lbY0QS4bDXJK2KeM7SkjbOTeEGp/+JW85QU59IlBQNY+tRC1ZFYM3JwB4VomhFApBQ1DYKdZGDQk60yW1QoYWthw5BAkIUptVoahJv1jkXnYyz7PpF4sVjW8mJGKB1p0XPCSW9p2Si1caCktpYouFdWmGmQmNiB8Ev9NPTXRvinQ0/igEUHYZS/9UGHWCjuLlgkorSGah+pRB4KIX3GiP2l4zlvO2oRaYerDzzzDA1etgL/lwdtCIIpn0t95qPnVM0jgV3gPCoCNesW6DA0nK7CjiTcsSTQayA8SjyXfh9ZpOoDEIdaeb0R4FBCg7XnaH23Q2OXvQ1sAOxdvuh8CKTHAEUD+w4eCf9KPkcB/KJZvVh6mUTvuir4yT+1Zbv7DtYTk4x1iKTbp5az0o2aPVfXYwOPTUBDazjl/RNDPu6AywaLYFoIxr2kCc10hr6P8tXawR4se+Z4ozYrYwOzNaNDZMKQ3+1T7rOEGJzE4wEMrpZIPDKfmLaeYXYsSk3pbTS0HdVYaW4rFEDAU1G5Yo1Ka/0emvOPw5GFqIQS4mP0R+ig/4UQgS6Ghf9UwL4vlDCBKMsmHW9Iq80OSQOHQH44EegKz2J7HDleBtxgtAfyNhjj9Vp4UToh1WUmlsVGYGsbq/0KFbJTma8ljUn+23Z8UaWZ/9IEyrMNeZVg3hoK3LRQjLzVEYwMswyGsISPGS3nm4z5WuCQy+H+fqXO5Ck0alDrwFc4beajyl/ulsWzUZ1BLbAXbxcaSB+J0e+PyDaMEOhBThgSsfInJYymAIIZ8zfdi/Fvv8ufMJbD8G/DeH3lTrsLndWMG9vHE9WEp/+WH+ycmZ32Akg2+AOgRtSwz4+XsOhpRrgkfWddsQT7E3VA4kQ7+jFk/r6YW0vQZQiEvxHD4+g4aOq/Waoj8UKwG7RJMwWmVjjTU2WBmPaTXMlX5lIbPepQG2IeSArZlz4cmSsUMsGPSB2KzckoPVBpYGsvcExqVxtZwMbvUcwy5nTXnSnW4s3oCmSwAs2nwk1IyFCNRzDcpt2FPPV5ulukUyBPBc+gFRJSqpQkQjlWG/Ci1eRb4Xsm1Gfy5B3vZzk5OWDF3Y/B8zVzoU+6yjNXpafLY3UyFmzdXb6Je+4NG3PIiknV7oEHOjKreGSJ6tivbwerWDB0N36vYAzf6vzUrR46UtEmV6DW7MU1TKsyB8XwakfV/UFHksTjUzjfhsS506sFP6hdqZBRC4uuMavoeaET67UKdEZEHwnzqsywCN5XMa+QfdNc/O8WkcGky/+P/RuQDZNrUyP2aBCs6k4cAH9oLU5VU3oIeIpkZ2J5fQU/mqckPL4BTa8f/ohdz2cJwyiTDX85aaMTwIoRsflQCswW5gJr5U1OH2r/1h0oTN/1wMmSqc3M6MxqpA2W7kjLyKbEaMJsOk4GbPvsv3XVoQrkH5RV5GFVvCtlqpfBygZZhO7XLPPwFLyI/BpRB6319/Pqm163ZzqiiJp9dR8hkIVxmTO2spmLI45V+0pRAjUyfeSAqhfNy00nMMp1KQj6cgRKpKFVLtUsKBvLDdxNWHCUl+7M+TPVWsG7HREzcYK6Micp1of8N0wg97JSQRa+tq52NwWST/ZtLnpe/AlVmThmElS8ioQyfXCVhB151vTKMD/kAb1tuXL9M8mqWG7NWcpgSyMIzvvI/oPQQDmAJ8AVbz2MXIKUowZccLA3nI3U43ISH+T1iFN1QkTLV6IFu71gyE+tSs6VQjEmQj3yQSCsI1xW4Hvr08U8ym04I2pRsF8ChgfwQ7Gs+2OxBh7Ji+EruAtgEcNhI8PL9R5kgCQOJbcRGjnr4aaERBf2SPp2T7tTEgSGtL80xDH+AHFhECTyCsAQ1Jko3YNubIAgzKuWf2U2ZRAprUbIAMiPgX5ooDJVWl9MZhjy0FTAse/IOQs3c9EYZB4TvKY+t2bep4awzv3owxAEug1HzmL1FBkf/FQjQKoRQUTCnfI1ogKjnkIF8AXspjvZYaow3EQhErsb1izLsSVNgFkzBTznk0DQU2+yANQVQ1AFzZUyE2VkyG4WdYggRTXN6jYQnvILJCKbznD7cm7FuB0NXXnKsfxEJrR7xGY0ZnlyDILSwDzxyd6zUVDAXZnF+ghoPDQ95y1mbRj4Pt6/LISZ3DgG2Vh4tPRqUvr7FhIdpAJziQE2MvteoevnYr3o0IvnkB5NozI0KD+54ub/UgzuKSPznZeVbXoqrCFyf8Rv/eo8YWvCPSlH0kBlYSCb0GEB/9WfQ9o1DmArUPEWEgeTG+G0+Bb2Q83QbjRiivZImII/MzvsX+F+vfggsomw8Aq/C7M6f7V+CPBx77IoLipWbQrkWPa9Y4JDlFEM1HlbPbn+lk0MNLrmVGLJwOUuoIWUnZF6j7jNsmZ0UAmuCQwnRUJ/ZDlhKOv5DuD+anQAJoaIQl0gUI+yEqEcczCL26M9eijotlhp76MyOOoyfeqMeU/Dum93jmhmxpg9yLWMiKMOSmdeAkwsxXGPFsE/taezDypg2nGLY4QE19WcQss1/6MYmc1igDqluNgSHOrBvlA82WbHFEDUVrr2Xu2Epz/mnYKBY7fYPhen/ngBsE21qpPSjR4PSV94+efGqp5inXSBGSSxtSfj/23/XDP3pF81CPgaG8e2WNp0Bf/6SlrKMsXVPJhk/8klmbS+1KAlWjP2yv/tuQkfxEBWZhkOEBP6XfL6OgzWhUzbScQPOmhxP3rkPgbSRAx8kSjSikqRTGpzRTZlSU+YxrJqGPMhDfxmcWWkacMoaWJ5dIw19ouRAWp3hZeDQm+th9XDFhyhpwCkzQoGkqJEZzp7RQV4O5W6CYg9Rgu02Qx5Fmqw5TwE1hETQpkxvVF326L2Ovat879ObKKOdIaXcMYQccXJ/pT5+e0MYXkGNQBbj4TNYi6nNKOj5+MQEXGBEeuift/tqD+G59PtOjxX1rMXCyev2KbHDzhwcyvsJ0BCBCyeo0eTIou4JhHmbn2AyszDowxtQeTQ0JXsaMS9h8nB4KEYeoskfPAoMx9b7hYfselgq6yzwnjQQwJ7Mwcn6kwlnsrfCopBFiHW9N3psFPcUpB37iXYKdusjyDwUZhA+jOMg2xErHn/Qs14vihs4BU7ehrXanhb+94War3Efkr/s776bCPOPu+UnruVY2oBwMDxjbIq9jYwAv3vVI4yxlLTwg0R/BiXRiEmVTNMJHnM5gxQncD2A6jJglgeRwZmV1sREaJRnFwY+PinlmBNiMw7lApmFyDgMbS87aHToORupUfubrFvSV9mKqVWWRQXqn8dK1EqiUDEU6gZ2hr2Lc1PBf2pVyxIRXMOsj/EKEsIeciTKE0p9/A83eBGxNBAYcqwgywl0ywcZjbWY2oy1e3BLr7Kd9RZhippMB0RT/izI50+lh6CR/cSwZzUz1gSW3zM183JwKEsXbPPhsaWRP+zD7sfUIQ1x3hMMJ+11wCowb4hurMwaQGrd8G+R108ADGdBLTykBbiR29RKZm8cm/71divlhMRwm2LKUQx4j3GACRQYA8OvUjdbt97xUa8LtTiPV5uGIaNYc4EtpYle+rP0IUTMinJYEIbwk8y3+LBgy/ATE6x6muZL4SMASO6heeFbSwDUFCTDE8h6rle3EMIgamnb9k4cwUC+M/D/Kc+f04iacKCsaswHiVJ+E5Ta2ziz7JW4SVVHUz1u3DJprZIB6jJTfyxxDX49Y7NFdpUSq+EUsqjm7NRY4jDEZKhDbxZ9u2YbQtqj51B5vQ7c0wapYaIThgBAfleiX4gQ5ZmQ6gWr5iwlpYIjZFd4wdZAAgqmI8MhmyAsbkQYfNTk4d7CD9AyYFxDHwCiKX/WLCUHpQejRGPDVwH6wITySSDrmTQj5GNPlRQetWObZ3hFDX6Tx6Ru61+EEc6A+oEGKQNnPiHulQCu2WL1ktUt+OuWzQIj8DF1Pa+5BRu83t0QyO0LkjGbCfLvf9lj6X/sctpZu3hFhGuzcxx+1jruDzMpwtSE+0MmjP2w3zWz+c1Y8UDgU59kNp2HCVaZXy7Hfil8mqChkaDDwa3/RTMGcn8/vSWo9wGfGOHhI+KmsRTrMND/T2P/nEYsj7Rekmq48u2JCmcowsuVJuho9CjfLDyayjd7ClpNfTIspSC/qb/Qv/kpPKnq+V5zdmqMxaQ3i9yuB+HRU1De466ytvjKBfbQY6EJ3+npFeMkVTMEfWgIRmmG8OoPM0gNIC/qw3uEsueoqhJpqOCQAj68WL0yUhhbf+JSE+wDHDUkWPFc8DH9tq2VRAuz2Pi/nMrbYHzM8hDe08HTDqjLVQPmIfo3FeOaNruChWllcZU9I+yFoz4iEvNoC2iUJo9JugH52H3UXGJu5P1Vl7jZbiYoJgcrKLZgmQQN6RMUYI8tO9M6QsnZTEme0fOV4erFf273h1yPnr2xlAIBzNpReUjUOdvTIbwdft5bEUxHvoQOynQrXEm/QNCCzZ3yEE5/PJFaaKHP2ThO88lv+Z8Q0YgilJBNvXe5NWaij/JPRpYCiUYEPh/2y3c9aOgJ8wkKPQOLgRRPsMs+jKyfBXDYH79opnN8lqhlyTzQ6avPHzVPpf5ynjQlqoSspiQ+OGA1MdyVJ60sD+QVH24huYPZ92Sxtq+2hMM2yqYhjRom8Q/JcJXZolq4037IZ324eDabph84+xCMWUtDhY/1XWndAwfeI8RW6NflIYRjdfPFlh75sieUQWXSDI8asRzKwMWgtDNLw4yamkqjW3MhklhsrHIpPJw+ANSlC2G68Ai2eMuw/oG+rXQPJACP6p0XccEx3eQxSXkEfOc+UoKAbsJBkORmGvU47jUDOBTDr5410jL6CLhhOiiJF4sZCszK5KS3R1oxPbcrPZYtYq0ENupdjBu7kGARMEGHl5ZprLaG72AoXmps7cNsyHCVeSx6fjzLQwkAtoDGMUpg7++amZu2MVwAkIQ46a3a2z+mhZwTO9eGMMdtnLbOv0T5pBGnUKZc05xQlqnwo94YZgnh9UnT6jWzNKfe1WhezV0KnzZvM7d4cJpKkAOZUM7Lhal5PyoZJYgSLt6dS/OggZzSlMPND8EMFX7J7xgoM+CPgfjvYdhUgjDVjSctPSGE5oAfhoiasmjYmTcI2KXAfYqpNbt1qKTQAb4aqDZElXzKLB0vaFt+qilR+gq4moFXKbbXjSF6RLkFNTNYqkcoZsfIMPYBAqbgGfmr4b6kB6+yXTgIVgLy0LYZ97jPerK1BpO9t15EdD5ByVLt3nYr+0DnLSddjfCjhXdlD3D033hYD03oWTQkmF5Nrk3xaHQWfNhbPDZfT5YxyyMUFLPOdmB/5rDwOE6vISO54KTWa7WyJ0Nn+73t/ZdqhovFv/i2Iczy8QNBJiWH8zY7/AKNaJBlLvPKAGKK6BEAACAASURBVDRb0sz2b1o+bAyZpX5Z2ZtX37MnYXt7CGJNK2pwnAHawBEbhjRtMW+ZpjRNI5ejmqlfnRFq0Kj7wG/XvzliTQyUGZYSA/Hf9R6pLe21sO0eISTcU5pif0WtAgxhaUx/mHdxjQzYJbNAXosHZTO1W3sL+hA+rAOHcoQOQKB88Gim44VZ6BN8/uEhD65NljD1lVc8yieVs/f4iDxLe4rVMxruS3rCle09QpOGs3r13lQKN3dD+tp8ikgy15OttSEy0XmIkqXawkJzNwB7Jo3ILlHvmtJM0Ijksf6Do1702BbgTNGvjO3NKZg5fSOvpFw4NhyHKf4OZhONdzUO/6Bnbc4XqREQkSjmzL6WYBrxyz6mg+EG6NjZ+EVn7X63hRDgv8MwDM4yXOyr3333ndxT+PoLNGIeDSRo8JGfmK/hjGd4vobnRuvTlHrGkuyrv+qXPhwcg6s3hwyXVW/jB/dkNzDQGVzDD/2nnAX1RnPJapwheTZXqOW8qwVWAyi2PXyj6THBYrEmUytYzwJDWBqftUqX6AmkdoMP19LqFrn4rPubW6B/GZnNomjgSgYHwfaxT/OYhR4Rg5o5CkAB/NolMHX2oSOE6/UEWXlf8sCKd+L6qAWtehn8erK19iKZ6KT+/pBYT+ppwSJqnvKdycHh5+Gy/oTPCUetcpmEf6LnIYF8CZFhQVRUKq/vNsujIexQ+jTMSPU67OpJJiBQTGU1vNyf/btm/V/MrJcPDxg/hmuuDRRaKD5P/bXNpqj7u+YmLGgklhbBx/kUkaRRkgkhtGTmZF76UXPskfAZMVdY2vJTnehrHoLJwmuZcn9zwSyLNX/dqI/NkzWA+5eV8dQ/fgGS/NJesA49F7+mkT0EyugDlu1lE2qk7JgD5KcyMAYHS8NluQya/JXXV48qCYQCvUpYnpG/8h4Zlk9KgdxtzQrOalX2D6FUmksWxRax/4e4WRMrZnDKXcDOIISmpjRDI/ykCaNBmmZIze5pRun7CHsKUwceOk2tBDDXE2RylYvQlx3na5Tg2L2gx3thgf/XuqEFf5lRCO8bSdhaZ3I5eJ2gMI2yJQP1dOEtpDyccHgZeRTsAg5kkbz1HmOxF875U5uCaeUnshGOp8/iXkQED0FoHt/DUdQBcG2MbxolPX3YNP1vvcvpMIpZWo8mrxvLbzD1e6q28b7orDHhFkbY5pwPyX7G9uc04hp+Z80sAvT+T+EmCPl6rW2veChz6F4+3WuvZ2m2lMN7ajQHCo0PlR4H0gnnU5SlAgjlp97jl3q4MmGlgfqeU65YFro2WnD4fmRKnxoiW4uH/sBYvd9iaVA1GV7elW83Nua1vEdAcHgAtC2ZcpSNaS2F1w4ZQqk08/gotogPrLI41z/vVWJbd8sg2nhnPXJT/8rW+qMFUa6mirhFc8/UEy60P/ZU2TPv6WU5S9MnuQN0SLL9AQtvut5NGEJfeGImrA59Yq2G7HwdNGTJgV81HNDKpZRNk12Ox57AzzYNUeqPsefA3rQFjVMW0RDsRMpqNvq8YE7vE5tZx/nekGOdsKew0N47VYUh+MT8hT7jHco8qoOTC/skJ5ldF7gEHdlOkuv+e8095PHYk/AJybRpmZBfmX+D/yNacifHVJqakc8Z4tRjyGkHG+szJFN6btTDvId/r72UI6BUDn/UD2bn0aikMb/ZR7Cl2f/Axl0kpuYGqSx0kT6GeHK5ChCoUca5dmWl6gnKnrGGl3dQ2zOpE7fmcI8+CNqczTvZLkhj//EzrbNlVROfExpjX/Rw/G9SKgvisH9le4uCKFe7NLckhWhA2sRz/dPLGhzokGT7YzredLzKjw6IEqm5RI3AUCsagsgTfizWyjRb5F3JQ1YuZVNPbuSssun25VisuDntlNUwf9XrT1O84uEe11BKfo2P2l0+b1s7pjx6EaYpdu/ubqpka5z9QTfP8vE0GZAh568TAA3UFFoRyj77d99NKPy/aIZYfiW35s6yacuBjUT2Ia92srSlaRBl/l1z90fNDyZOmTVmn+62siT1YDO4eKo+Zr+3abU4g29aVxPNs7bUEpoT9RrlFzEsHEfvcCuhm8GveupNtcu2TIla3LkZHJqNpWKamnCxIWumw87lsg1e59wIfs05aYtlu/yK1RKcRCcENv0TldtsEKs15BiiLAVrCcMWjv/lg0caFV5ocWrBsA91c3aAafV0Iesu6IZ5H3iiP+/W1EQLQaDnM9DB75wCAvxpuOj8BkojLarPUCuaaAu/yQb2duUDgUNiPmmlVJh6YsVPSDtLMDlWNLftA3Z22mbwj/JSpxw4ObmxkkbhcLE9hZgyXP/3H0uxMPZdltawkPtp3izXA6mFvAIHwdtBaFrHyHiYGoz9SHyaoKGR7EVYY6JZ6Cx/YvB/9rOfyT2/1NfYXzQDOvqnsfE/bA8SuzTiY2FiSQ1zErwmeZ1yyiErNCVtceeXxrhYb/RjrnwRs5Ef1Oc9SlumQOP9PnxrMCX20ZmDA+HMZ1hexPBwNGsAkcGEDpqyR5ADEFKXVZh976cQorN0WjYHlZu/yCxfDbPwNVRU+NIwcfB4NsLla/ihgA3ymI7sCll3AR8ho+DduoBG6dEH0MHvnAIC/Km36LUzh6++oN5QK3YSc6IrzK75xHldjwuGkGxCXKMq+iAMaipPfSajn93fE/rXsaIpeUFy0px3qnGWX2NeaeVOnLKo2dnGo/EKvrSAAhSsvGbf1ehhVF6CXc+4rMWJDPT8DCeZxTyQ5KKQgmj/Nf+lmh7ysb9oZl9FXZBLI5Ym+UPngiS4twavaB+GZv8SJOGwJocQCq1wu977Oq+EolcThsPVFKh/a9AcjiXYVZI1VaLGJkej9MwHILPMzqNK3JivwF5mN8ya8OLWj796+AvtTYYXIJu9CAM/gDCNpaJ6sGAdldtBWMrhJ45sC+YaKhPSQVPZprJ4SD96DNRssPJgAjOFmMDOvHL1ez5fWsoorcmIeiDL5342Id7Tqm7n13z1p0fLSvcbKsMdcCL3tkzPhL2+IVuniUIPCTD/Rf/KipJtr4HKu7uq58pr4TJT6bcPTZDs8cO9PD3XS740ohlz54/BH/PiQSLFInPebjbkzIHkmUiKPO9km6ZhO9t+16x9jdic+DYmIZBaJKQKL7P5Y7lOWjX9OSG/zoO9Qp0T7iFNiqQ5izlJakqLakQZMHWRgCWYGmLW1kxZIgrbCgMzsyNXiWYQ1g+sH/h4ysUmwwuQzV6Egc7Hm0pgo6oUDd+hVKnXrQcL9qxtOzTnWmBLOa98QGCBAq1rmlw3Mk0/vGisx+pbkCH0Yos5WOkV4J7DR16eKGHQB0N6Pl8K3MJvsgLwXvaWnqWHcJ2kHna35jXfOdQno8olrvKSaeUO6i293G5LHbE0Lyr49bn0Ay5aQSSKqXFYXiP/V6wynWW9UC9PYb4zlsWe8NX8JyNL5fkx3cmFcCzazClHkVz4V1ZIya+DobwigY89HxPxkhkeJGbRiPqzZH0uLq+T/+vhFr3x5DsWUiimSX/9fgUJJUWCVGbIC9uyBEHhMv2afXaEHHoYH1CqKfNyQdXZTyspy1ndAvvzCjLCSArPOa3Pr7VoOfx0Ehbi4edRL+x6fIcybgT6m19UzxZehZWuiwXKeAFnK+D98LKEOjI8hPOd2fDc8Ws1RHhLlEAGJZ9NUTcBNgyVt5t7uU42bcrnGdiV+11ehfoOTO5PX3HaHpuKzxKjsPd1vBLwp4DGG2G4cNwBieKLnl7WpsF821NEkvYZXGoNC3Nhw2uYeuyj5bSkeqiwswMzUH7ooAntMuQbBm7LacuZw/GLZoI3vKgnGtEMdRaNqH/0McwU6+U0DKmFPFrknLhOWeoWFpih3lD/z+6wBVIssfmUnV0R2QOb0pDKrE9GSyoTOoTzvEhkDeldEyihkTdy1MknzHXOJ15BJ8K72N5DkPTTSVgI5yrMohEYN3oOwGTT8MJgVvm6f3hGRVOw2mxIPW/qqdQzys9c14aULcPIwHdmC84dHCtyZMYCLXAzRgkntbxno24C5MXqfdXfbma7U0/Dsp0zn57Pl525jyFf0ihj6DNFg0I+OOgFO8hgDg0xEKM06pzHrUqrZ//+YykWQSk871Vq7u9GmmMHydFVnghjP+xP1wVWBIytQBfICL/rK8ykE9njVA+T8Uruw3zMtqy0Z5Hn8CNNm5zeKDPUWTRiT1FN+zAj5Ng97FlP19vP20/01JqkxsHTYoDdM51nLGoMT8apSW09GvJYeCDF3y337dgXgdE/BBOzkAWPQYbPdgTlPWNJLPuzwHEIswd+qtle1BKzIULD2ujVbiaCcAlznF+5QaI4OJwpqU5SOwCWickm/YWivL7DpxOxB6hcSOfVkMON4GeuZZzPiS2ynvx18ftxfejexdANXagENtudNIvIMVmZfqCbOZJrVJrqM0WDQjI4aBroSU2nlJzqbDvsmFiPivlTOhs6Yy8rve4hf0uWbrCxN4S3j+edBGIvBZwz3bhnu9w+G44EaV+NRgz5MfgDT2BIDvZeyl7wkKlPXNdE/Wb8MTvEEtSzbz+PoBEfMUh/CDV7HuVtPday9p5wtfVT18rILU3Y5SHDr0naBr67GZow7MC3tTLJsoy4HCr8rg5wIWRFCx6DPJ7tTFE/j7GcycmOwcvBiQ6TNThrkzbRlBuglpgNEU3Wxn8HUGoOl8jIdz0EVnNsFAeHM4WlTa3jaZ2xcM3YmEfqrQehuRFKNbApmm4Tom0dW2qxiFfZ0Ybly3V+NiAP8x+huwaHW3YxdEMXKnVes5QCSvQJp57+tgM9Z48YWQfPV2wZ2Usf8rnzOWRoqSG0kn+230QMdp1p1ENhDi82Ho1HhRduTWDDGzVxfjjp4W481L/Zoawjmh30jXQEnBBg9Qp7elIYRySfioTDGVkafs877P/BHYAAhWX5lxBmBBjqnTSiOZ7Gnjplht1TqdduXoDhwPUzDlWSO4QrnF11yOb0viJVSk1JUQBT7rvxthYBQrkE4ScffMmWrtHCTa1Rk2jorX5gu4f6YZ1T/VA29sC0+Kg7gCZ62FaeUImxsYlXU9WycSoaCNKY9a4LzilWXZhi1yeYVtsFfbjds/Q207Ap1s9barsrxjYRWwwII9/zDVYSETU2uW0i8GgUdmU9nJcy436lnq7ZglNPf9uBnmxmU+bKRgPpxs5zjhWMGHkCnMFQrO7yecNyM/K2vJTAOY3OngLBwH3X8hk6ZWVRSziwBbZEpWRRudaBQD1UUl77zRpCGy28IJ3V4YT+FJOBcNJTRLKRkgH8XHr2J+Sq14hlhiFkG3k35OZV7KnUazdPNBy4fsahSnKHvQorQ7k/RiNVSk3mcGDrs2R5XRZ8Da8S4UsQa8g8FqwRo/pFTqz6yOdF1298Pgv0D0kWeG/GFBwfPt7SKfSY9a4LTg+rXuvA7tos+TIoS5hW2wXduF2/WWqjmi3OG5emzKlGjQJT9zpTs5edmbBrLnotVkhN687mFl7xnm+wZETUNVqV5gi7sraaq+X1dCcrM0vDsT/sJdNZfwPpxs6z8eKwdga0sCcYmBREBgIkNaPuaT7VzmYON3JP7PnXnD3NqR1HqjK09uRQiPuwhLlOjHu2K9t5E7Fk5cDXdYOBlIyFl7r+Mv91YNYKh3tmPQW1AGqK3lNnq4pGLDMMc7ZhOy81xixL1MKPxhDNo8JTuHVNN+VGqG3IVEgCq9p7EeARLqvd+7os0um5m9kyrGeasl3pzBqOkl3ameUoNS+7adQziP3IIXwW1HlDOL0yBSA8/xEcPPkcH161pVOK6TtDec3x15O5Ju3ozZ7U3tyesZRlkuZKseWNS3NINocyVIC0WnOvwzGkuegMzmIiDLmH5johe6Wa7kGN0LCXGvVGKY/v3nBP+ywNZ7jx8qgnjzWH2WP5Fz50Zl2IgHpRKEb2YitA4BLHrqDssfQ1sDQACGZaYKjq4g6ByJROUmK+2KJl02X8YUQo70ndl5mfPRH/0DjvNSKZwMKnaCUVjRgCkJKlemQzmnJ0WQizMaECess0F3TgT4J1yrXTzBLSZ+q+PWTGphBzBtmUpmwUuJuHBGUZppy37IZNilIqtYqTC0iD5vUQLOJ6vrLWxN+iiZb+WWQJ8IdZ/it2FYCD+ZWBbGD51fnbNKFgg/JJCxpFcOivNPSQHtITYbYXFrh9KtkKMS2bQ4HLaWgyMieVe9ITdiHAKoUg99BcJ2SvVE9haKiMfqnHd0/Dst1wZXhUVcm5sXLLsO1wj6QIr0G+14dVUrpQKWdjYOyZ02tHhDdQpSww6hjtaZjXzkVE74DTTw0JdBCcViTqTSh7IhyRVxicvzkjyYGPrU8VmvokNdLqwwE8vHxPt6MCfk/J7HawtEn/RjMrz+469Zcof4FGPMHRz2HW8sKiQNjRcvZWYbYyL926Z4usCUsQuvW0zd5U2fLLAgnHQA/DbE0E+VBs/ZbBjJpSSlA++xPSemWha+Arm0/elEZh15hPXExdpoA28k6p7bJuj1WAUSdHGM41hQgpoOcp2ASxw09RBId8pRG4fDLXwAW8crMP8aEOENULC712jWS5jzMyyMI1XxFb5Ni+hntSEnaLmQs9zcoMhSdz0yzZow9wm+VHAveOQWcaYthT23UmtTnyy1umxuTYI9sTgmgREY0PzJbLJSD14DweHo3H2k7/2iWWtcgH95Qa7Pbry5ApPZWdv337Rj09XlFPBGmQXH/9jBbO0MxFjYADRRVgeHItIOjv//S/JO1/kJwMeB/q4UEiQa0/Xte9RvRDuViC8mwwXCdOHbG8czQT9bZZz5YpTQT82blLBcLfhwsKzH6C4UKqzYcimQayoIfh7NSB/aGYfrcLU8Pe2ONTmC7j08ME5Dd5yQ32IxNJzmp2inPB1Ia6S4C9uYWF/l/qE8dJIWKcBsgbdR5i2PT5D6tkZBDuPn3g03QJGUPPVw3NCvl8NGgyN49Kj7HY+PrXNPCovINSNs1Wf+7VubTIfJu4i2WWl4O+2mhoFotofGC2XBpuJn9LIe89d7DZQygJFrIrgAz9Wd+BKikEz9krAXkKQESSOSWT+7/xK8J4xh9GBBpT9dEbAZR15l80h+xZeS5DhrmBRpzdSyEsiQyc52t51dxj8Tzym2MPP6ShM2fPixP9JmKPRgCoT7U1Mp194DzERjkJKVmN3m5C+4ErReZwwi2HjhAT+GWTPFcN8pnQ1XqipX7P2OsptHPoO41cw+5+/MrMcDqy7Rxvl0UMf9ok6JzxfE/wk9d94nNcuFbJuB7nmDP7A8kohJU3f2sYEKyCJm8+9gHUesXYhWZj8mKukz22l5DILg1gd+lc6va4TZTVLr/uYpmHGsKFzCcdAuPhpJImwg+Bog4Zp4BmXmcfrjWccjD8pSDUttuuNGo5j5b30s1D07hD3h9GxBSe7F1vxbE94Zl0pscS3E17+c8jMnfZ7FY2bqARZymwww+kIcQZHWY5jgwdrswMBIiNyiCkOAprdhMqEE1PJQIQ9ajJ9fUDZ7SzoUOpXtmNw/SCuQzqRQ0Jec/IVVxZctgoBoiKYk8QHhecuEqCu7dqUcVMT36vPSqvlcnowHoSCzrLjPTM17cLoVj4pJf/6MkxR3ZdbBN9/NTro7z5O40BAVwLIvZsnblMMV5i4fKg5wbIDcrr8F7PjHbbwygAu0vnEgczI5N6W2xeKf+RhChN0SkjQJntegzEgUKB1BnGYeyCyBNlOMlR3hXpZww86PWTZvTkkkdzd6VX4OMpMNpN2Sn3x2Mou1M2S/uYHX+BEZPKiuHrj/jYePT2n9B+CU0Dwg+nWs8eJk19Xtf4LuucN11HHfNvCYWoEgM3GkQhY9MQmjx1FK/0uk1qVjhw1Ww62CgGBOEHe8KFVh2ibbqFj4oiuJ3FTLhdSoEyGQ2jQhwSdZrwQAZR5V1HmxLkuhu2SeA1D08Rsli1woYW3vLruWODtvKQlY/m+ILZcHRuWX0bOGwd2ysvQdJXRswQwHnIFth7gLAy5n0XdUfV0zCkHQeKfFujmQgS9jqhRs+yD5Oej3v9WTncH3LIc96FQ22v+UqgFvVoQX6ScWQPp17QIYl+LTWnaOmkAhbgkDQF5UIIy7HstqAtJmJ2WOiJT93XiLbTvZzPL6GpffhWTNKzqfyyxrcHdAbKkJ+VIKPyFNBYQO3h2Dak9cu85bSJeI/787yhac2XksNRzg7Ox3fwqDLR15CzTp3XD+e9/5EhWsaTw4W5yAQRE1UqyNp+2FfmsAT0MpJaPqfMNbxzIfT1QDZvy1te4I7Z2GxleCKNY5RLAMVW3oIwR6A/OveeHQBntkBi6/Y+BNPvl+bGhNXhFU1zLmWjP/Xi2LXS7ZXWcbcowmhB+TBr2rC/f4kfUxyyGYeGDzvk1QIZ2cLQnGUd+Pp2NoxPabjslJ/SakFn/keTU+EtDeGJlL9r7tKIAjrsNOYKRxD+AZ8ebyL0p2ngY4qM7OrAI/NAlWoHRnGoT+trCSe3vGIJBAARxAxstSfnQEwoXQK0kZIvg0dpCmzB8PoTCgB9vKolnNAinEoAWbhU6OmPyLzsFCc12DfMRSZ8qefYWGsDFCVEMhse+GJInqi3auZ23oY99Eiy8Mk8L5/a8tYGsBlHvFnz8IHCLg6fSy9Q4xh6aRk9gZvtznI95uYZmatyRjDnErD+NsAP3Mg4/T3XGLafIzgXYmp44G3NKzjTBzhRFCqL5cu2wAJ2akFDOpNXYDsLd4fmiVjm27PrJgJrfnL79kqzCZ2mEduKQo2cFmpEKftQ9YGzSbmjLTQiq2KucJTKKW0+vJuSGjjcCo96OGt7ZU+ztl9cN3qsw9hlVyXNOqGZjudxHx4GzQ91UwIfz5zY4eQ2x6jmLGUjMC/ZBA8NB9poWZIBWB7VAk4pfbxCOm6roIbwmjvwitesH0DuBSLbjDC/uQGHArHcGWnrcGqstROKmg0v5w18pCBPRJNmb/Yhnis7ANgMAkW/o7MZEGEX11AvK+b1+EDJ9QU2cJu6s+Q4mXdW1kuGlqlVLoVwQeWMYD3FlO2s/xTgLDxvIyv1r7vh9HfWq8uS4Vp/TQv7jG3VDvRDjdXcB04bmHVQDuxJfaeUz+vs3MuyYp9Nga3JYz+bihX8J6+QFybFP7Si/POIP3IWrq8gBG01ngAxfVqfcsn6nPwVSUmv7GnW9sO6UbYXicKDJZGHGL6y89eEhUGackhZJ0QVALPXszWDplQ+rxuTX5wBg+Az733DwFkaLg+NoWRY56wWsMseubjhsOczKDC1HSIQ1QHm244DOG3Gu7Yo694ix7nZH2bCIeXjI4MhQhyW501dkeaObs54FAPCcUx/BdI0atioxwei7taWITUcsiwQ26SXVcrzRn2dpZUf8y6jv/X2Iqd1HsTZdwx6c5o9OW93mgnhSMJtCUBTvdRG2nEhud9DSSD57du3VOVThZuvNDRa0QmFTfEWP9EYhT7LqmDCEAHzFaSTHkC5JxvL/4Cy3D/qK8IaxQoNQ/ij7MQryiqPnIyt60mAPLY8xu7NojyGpDJ9gMXJknise9dYvp49EzEDM2XGP4qZNSvw9oFcOetPFu75qLo/+wpXXmh+42k+aHDqhVRKsqqf91XzJCeDIUIcHgbhA9mHcB/YzqiGWLR+pWwvFxAl1pdnntId24RTl5D1mhUySys/5C+jv5V28VnjvMk46o6htp3J35AYDqwyasxac3+LZ8cJsx++4oLm/CmEQBcmAkSvZlqb1i2jEWl2VATKJ3JNbV/XuBLeEpyp4sv1o+bXLYmg8FuOgYcJeVmUuXwVQC4/eZg+6Jb6a0rmZylLQKKQBzXBctSDLD+FUS60Pw4amCmlE35Mt/X16sdApzFkPSXHbzzNBxOCZK9SAnFgFq4JWVHsvyaAsP+/915N44fok8c+wB80JEJ2wFEyqgBkKuXV41z3nCXp8laq1s3T0osSHpmasZ4kc0FWNjTBeRfOEXI9gds0jY+Dxy8Mmp2FxqjIL0zh+eQkfx9TY4+TJ3uc2WPO1NikQuM0T57CBJ2zczwcUpq3XQblNw7hn24sOETgZrTRvkKahzVldnsBvKUXUVjDCas5mxbRiCtX3RbNbaM27l7n1AJVdP4rfUR8T66D9yYCEcmkIW0nJAqpPvx4kAXFAn1yqtDyUxiyc8K6VDxlBfhrSRYrh/i7cSahKdfr6ZqsSki9inXRvyKsdTuhRVhT86Mb7MTwg1zP2oQDC1s8Eab3hpRVXcn+s/+HXPZAiHA6kI0ZpbKTlfA7CfyBwRQEhgQcQf7HfAo/ygVk+Ghg5xQ6l5/Q33OpoJzo0Q0zcnIyJWRBVjbUB2eNZr80RYUfKM1Z9I3OzIQnYrtCorFef2VPrsyV/eVu7L3rt4+sWPMrlKSgFOt7GadhU/+kRtrIOPtmI6denw9gWpvG4n1lHm7lpFNlbFPb1zXGBqsp84E2/zvRwthFNGLUcfLg8muxBPorormwJGs+TVFFQnkjfFpjiG0WOJKHiLTNqxwFxT7Vk2FdvXkZHL7gUsJl7sY6zFYCnktd5l/KSVfmYUy0PYgSrIv+vvRMwlFY09jUGV6HhdNc2dVeqmdt6rG3JQ8BbBD5dMggSZWsRPZLwDxg9ZJns2dgkno1ZSNZthzls4HOf6mgX9montt3gc0fHuZ7jo8oJFlOMzMxzHIys8Y3Z7ZL3BqN7X5YqyS0IDuSjzZheO9T7DVeb5a8di61wpFhnVdm+HlAPSTTgYsz13YVNKsnr44t356dbnv/5pORZVrpSVsVjXjOmj0KV3PWOFsA60tr5RqfAykrDDCbh6tQ3giflFDcbheBBwLYnrPUXg9Gz5OrnszmUyzPa74MVqKnPBNtzpwJUbFOIGZfm3IwXHOl2YPF1j5bsdtmmR21N/+Y1Vbuz6d882x6jM3Y7LJ6678mvQScuhpZuszS0QAAIABJREFU87ZCv7mAiXA15V+mKJLFr0lPgpnY2kWFIEzVJ0jPwLI9aRdopkafEH+Ah8/WI3olp3rOcveC8NkcQBAV+ymcMNruh1P4BC7xY17s4pc+fWC1bbFIswTkJ9gUL4WoaWP4bmrOUjZigT7vT0w2Dd+bxgfTiE0LX9HY27GztKD/mNeXN7O6yQuByKVJr9EniruRtVr2dfsV0COzhz6xS7wMTEzEVT2/ZTvBqLoG5iDYCwLhuM2+5gtX4BCBwEETcx4K16wBFnHvpUvt8GtwTrXdTwNpUpwQE4TnpbwQgZtdf1LHlspTbGmGBzavRnoT1Vu119PQzkvweC5tEBU4RO8Y5aTYaGvOIDOx9S4qBPAy9Wl+TOD0jTrlMAhE4DoqIQzZ2uYcwIDh1BAz1S7Mgj2+N0sR1ONPqUfMW0BoApXHrpbTYVN8EgWmSQKbgJsbOWDajmPzvFsGIljRSbeFlqFJccgOI5vqNaISwV3HuaBetqvpj399HtmjLCGhx4v16EJErgVLU1eMAIcVFpZp+KmHyXDg8JFXD8+hZGWHR2a/8vIZ5bfmCY/SFnSr37KtNKqn6lQN3BNStmeHDo0Ot08sAsxKTC1u7fAhWqXm9EMNQ2rF4Sxv7KB/mBBbKmvYUsYTUX3Bsb5lBQ1vHBYUsXrHKEHDRpsKOGbMMYuBe+UhKz2KixNbisiVleG+yoxwOTA25VjjIbLhWBG+kpE7y18RoPRVjywt8KuZahd0gLG7/FBQ7PEpKZPBLNtpfT0Odc+kWukx0YF3BjUUUy3Y4CERQzlv4IWxcsaN3fBvUq+Et+mxS2nE88MoYaQn/jTeY6a3NMIffZBn9HgxJV3oTN2m1AY4zno1O/L28JyylDpn05FNfWRaBCWB5h6DU1hDBdJU7NWNcLkDM2Cg2lsspHGx8e2N68g3eLXy/CPuwMU1Z89TtFFty235ygggqsdmXLO5QX1xuHFFnGlGnuYrGTqENY5yeqN4SKxHKRUwrx2wXUl9lhaFXJOfUxX38grlIj66IUCdwI0+FAukSlmysviyIRk4KvXt2N4Y4kGJvBQxxBA5p+blInHIy0yJ3dgZhtjugWxqfx6GPRzofEH83E4jkoayx0a+RuzBcVT7SuJvaPjGmt+cug2NWtlhC3nXNDCKjmwKLxvLNCiKFjG8/hjqyR1C0tOjSla97c2eXPbYSNveYiFx98S3zzihgYCGPW+uzmzj9kcxTYVTC4bmjM1GeLjHJ0msslzf9UDPaR3j5gwLTfxtjdtzA8NDXflGzYbDYxS0mn3d/97qOgQ0QcgsbV2LArZbqE9SJuSafIHf1rg1W3p5RbPzsPHYXALeYku9elYfa+xDYVsE61n9aH8LCLU57PnZfM055WoNgqGF6YuVNCIlJ1/kwcQJOTzviAAaMZXt8t8lBj4tKffSguwkqgIxhICVQ2ZTJT3x1CTv9MNXgvBl54pNT2Nh5Mg2Wxx6fIwDS3n5yQqkBlug1zv+p+iD4SGnD26p2W2sw6yUhuQs6XRT5geCveV9Rq8bPNzp0spyPeqBXm931DYCQ6d1LLYZFupJ0YJwsSBF6SnA7fptPhRVQ6G/DIi6UROUBNp6lQRRSZ80W7I39caLuqlzp9QfieWuXYDI7CyhF/htb8Uf7QbuXpDMa3rag0SYGfvujJO304x9LFBqBHsvv+O/zxA2QvmJzg6ErKSkTqlGVDe2whkDZ/XBUYUf/M6OfVF/uCU5zMaUg6bWkLa/8BqxlxBnZIq8nP4kICl21/ymzMiGO6gnsWPlY6/dbDbOpkpO4sk5XG8j/CEkhh61Xn6KQcbwwBp4NlKH+xgrkBpssS48hbl+k9d3ll4RsltPDJSV1H/V80p6mdRzeGxhdYbdpia9nYcIZO+OoQKaDggXdYqiGdvrM3uczW7z3ryf3Z59mL4XPcTV2Qu80l4klrG7QI8nIrP/DEWKvssKtpcLsdlcqIkYu/1RjEnSUT5b4DQRW9DouWbQqAfP+eGHHzSdz+mDrUfb0L+Xh0bBVfykx3CiBR3CiyClzqi4Kfxuj5lKhW3d8E/xcCC1CfGPggIyafsLNGJgBespfnpsph+RryOB41TstVsGgAgKiynaKUPkt+ghZ8+C9dLcKkzBYu48rIGz0x2z5vLAWzHK+Gz/yiXrVP6RxCtxErY9Udi+LleBcxAIOc6c5iADnLqfs23tKT0PP5U4bbYRc6lvn5s4I656SKvZn7k01bA1cr465aXNuQ5hFvys7sO6Q+jRUitOs8Oj3DnZddPHqJFzHlt86Ikt2196sQS+Zk2lfH61q1lo9Nn1D4B8hTqLdis27PbqAAoQoSfwct2/jeikdTx3UIFspn5LbOy5IAOOsg4u5fQNUoYlkMDwEz3KWJbDGi7zTLiEZxPVICBfX2ZCrcDilq9w2CyG9BXTYdc0c2UuWQNvg890MwMRM7u4iCTya/eQo01J30SdTbgBle0CVswg+A9EEqg0E1OzelOE+OwSy/3zSBy41lRikLG1ZfP1X9fwKXyy24g5oO25/tcDgp4IwpqN1pN8wiuwKS9tGgIEAo+k5izDRj+r+5jiEHq01Crv6u78h3ixr02b7sTHvcA4NAfubYS2a/ga+UnKXhxmZ1+JW6nbCWF/FqvZ/pxSrmG3BfU0BU6XRuzJDcmYH8LfFXR6yFB705Bhon9yBiwYu/GTpoIV1ONlEm6SF9ThgoZwiZU5vaDM41Ot1Ql58FQRLhsLc17HtyKHC6lG6iWWETvqK5S31dJHGeLh4DREDKJf88zS4ICBcpbzxqMNpaZsF/DxMwganJt9WL2Q/Y4pEEKFM/GhyVfI5tlkzuIMtNcaPoWDtkFDMpNHDfPVpkMaGjGRZqMNha8/sDQ55FBtdAACy2DvaYW4p9/+PTncnnEXPpxU7gCQbRtEloxi23yYysJDvpZPN0IE1kLeeNwHbuQakLqF91fsG5F6ouwWdqfAiKHXGdvt7RgK9uZdeAiTNj/RpkYkF6i/aRqxOZOzcapiPydS1wd/05DARN+J88cM11SwgrG8TEIdqKnDhSk++FMd4A7Jg6MwhznnxJmHXVCsPryRw9VBSQ8L3ztpjmdPXf1QyXkroDfwXT2zk3JEv+aZ9S6grraBCAhnYuAssqhZQhPSnLS4rBJncSG0lzyX7SsHbZuGPGpNvuokPQHR1IFlQ7U3SpND9sY+2j3XRcopNN2wIoHb/8C7cPi2bYPIGK5n4WV96q95FCrPtXE/1vYqWzhsNn+/ohSi78a+p8mx9WLX91xMvz4MxFkvEFvrAYmdcdcPxptWYF8Lfx7xCBqxqToa62L+nLJnTb4lgEOf9m5mWbf7tVwgnFIIfws858Mc46UvBJtbAEtjzlr8BLdTARgl1NVMcdbRWwCkmdyzqI0Zg43UaFpaNiKtN7vBUP5ndGC2eggUF3LLnibF1v+oK+rrAXkdlxlbq5EN+CyjcSwtjjV9S924xqOcpGftjYtbepd5BjWyr4s0KmW8LTrh7H7YDq8bHiUaxB59FrPwBg3zKNRSGWCrTPwMVoQPEfLY8Lkg8DNe0mErUQ6w5Xc/syVG0lLmicUOYl4+byKNZKBNiUFvX2+gEacKwnNIQw3c6/sEXoqy8jgJOLwKhJTwaT0U8oxrkuNaB14gRFuUOp4nY/UUzZYMx2hOtKYx6YUgvMLwIxePO2Fp6tMXZ8ZUeLSB31PAJq0exfW/P3rPUgm1Mo8WrLVhAw41mXUJBNjaDYYmaDpAuMGxNcKpDxsrT+HP9vgYGgIVdc+vp/Ni639AOnQzLFD4uw8DjxAF+MPlZveR0mOd3Qz48IxY02y7nMRWuEc5AVcOR4RZcGg+9PFf5rHA2NsIJW69bsr40xtetgeK0kyn6YM9ODxKNKIeffwnnWHSqSFJt6EPHYDti/6xZsCykq/Bfn/LrVLPx1b+uzS1Drxe6yN/rUx4iyfZCFeGBA5zgw00omynocCTBWq+PjK8HueqEUV9nPmcchZnN+HYw0nACyEQUsInp3pRw4cbIGqi7KcZ0JPjC9uFeZ0lSqrHpgp3Lh/O8uY7OFkyBj6SjzU+ICv2xb9y6O69OMBaxz4HhhsclRciesuO/bgumvIc5WOiQEJ5Sj1P5yk6zzPRmWO3F//sWrOlHfpn1xUGfNacC4HE1gLPjKqUDMsRYh28tHfKTE0RexsxNTV3rhNLm5xy1GmlfoaNbC/7YWxq4V8FSNA/6nfOiEV3VtBOHaaGB25k5bz8tmsL16FUctgNSzx7Rg/FKjtQzMSpelTWrVR+2C01Ug1nrztQHQG0e8nVcTTi+ihM++Hhi85HNK/I595S4HEKnhdzkQs65Sc9zai39KMF8zqDaarH1sIFCpus44WQHzoNkVnfYZcPrLf02Bk5dGe8OFhsdXYZ9rguWmzdna5EYFmZFwt7yCVWrEpJ0jwXdWvOBYQ+z6GJc3kxBeDkAaGzM/8x+EzsuzasmjMFNVjBQzzuPZw3Vfhw9tpGzx4RpjvwNpG1XfbTXSbWF4cRYV2ET+SZsRtZmIs/rTkONJqY+0RdApkVoIGAEY8iPXIOHIu9Q1vJeTgGmobg1vvziNM0ov5I6DGXgbaFiHKShiE65AnhI3O4cP40NMMKjrl5/DLK6Tz5GbBky0Q2kJQKyBR2YMbzdapc8gdO4PzVyDBWZLvflX8RAAIcgvjuoYdMSAHDnq8sNaN+U6n/7TabHzX1LM4l/iGXWI8FnV0CHq5PdXouJLSDqNr1+EJQjD9hp3C+pBny6INzeU0+zJWSQc9yCHRefGBxUAp5jUjmYNU2pqBJ7n0Us8Zcs2ePCO6K+LNxEQXdlvE+JzytFXB4fGKXWBnYea71lx96ZOSe+qxMluP5ChiTSlSPYv6xR/37KjAHMZNKy2Z1OU0jrnf9t9CRGu8JLPU101Ef/dWHMw2tr4WxcCsDtBKTr9ltKstBNrCmoghZjiYJbqtyU8tRv7HIU2uaIySB0+f9OE7kOkpT3ckJ7vqAWS9QUhyD2CE7VuszbNHAPhQid9BzPc4LCQ5Bw4tZ9n9P1JotNYdayTB6vsZOrcfZo7Nm7OwSsEx9qqNRI7CP/Po+cCKnKJwpnu2jVwCz+N+MbzkgGCK//kBsKjfTg6zv2Uyf9MN7PbfbVSqmyVh6hmjaudLWdF7ch8/r2FOjtuJdHNkuOsyZFNWwL27BGU27OyoAGvTnU/WTCCLCgcIUdmtGaWDAGUPkfT1NI5r1SBqoYaPP8TNzqV/Hu0etqExV9eXf7HptuRYmJRGRS46c/7fMccwaWPdHMA3Z7VGX87WS3LIgy1nAX/QMdJLgpdhjy1EoCff23KiDiHTuDghpphHykdNbwWaCaw6YvVkyChuPzKbVPeWV7co7dmaimxeM8lx6rgcruIabkHU++WveuZxq9UriKdWQofDe5c1wIHXgPZ63C+r8UKPYow/OFE1GbRD+GOLBsxQVfkBoTAvPMBfkZrJdgelTOdF2u0plhIxFBkf5VVmCKaXFdsN5veZJx4s4MqbDMtIwYQXhKu/9QS62kqcGEcBRfjp5uylNaHZjtmrNbm3qUDeyMk0y7fU0oiEzM1RNNayLW9jMn/zkJ5iaCzn8X2Wqqi//FhtYTjeVpSGPLH9KwP+7yXEY7OoFLNR+ISfQ43L+XTctNtrIsBCfMaT3DM3DRk0hg/0VtTumps7uPAwdGYVNhkwAVd+RBALIWWAZPAPlfwVRUTya4VyGb0Stne0eK4N4wqnKHLfeizy0+HAW/+XNcApPB84PQ7IRjybKsVF48qKvvMIMzzBTXXe4Inl3GHvtehgeeOvfhJS3XlRMbs5ia4Ttzptj5dRILF/xjzXvosPyMkblGjm7Jf1AZ0orcjOElwcTMiXkwM6GVHCNFSjzm38e0UUj6tdvzQ1nE82aNAyM8itzl6Z1r2iUmew61QjP0pwoKSla5yzl8JOLgS1HCCdA9XYOhH2lqHqJ355brESvN9dpoaOnp7K9viNRDvyYbsgclC++0c2TbPBYZcWVwaMp1w6+ERUPH/dYSh0yuiGrNLx0OJkWRwrUvMkPwTCECXrX5SVw40XXFyN+wLHpDEx3b+q9rptXuO6164F24K1/cx1Pvk2H7WtujoGD5xRuwpvR2LvRz5irlPnGSMv6z+ZIeWAKxFbepNmSD/zDiDBZyK5dNKKeRDO8GYxarRDSsCeED2A+QnpqQ4KmOLG9C+jNe377UakGwwWPDcwUFy9ESF2xWGdhOk6AejtRGCt8wv5VkhSlnC1cqmDI/ZSEgP6Mm1Lgw7anYDuOPHORjzhcc+7NGdHNk2zw2DUVV9OKNzYmbZNDoODCyXBSrDEhhAlS7jK/RWf+bktvV/gjpvoqXa+MvydfRYSnu1zvbCeV1rgcAIy62vGvLCSssZ21PWfRZQB5mTRVuSxq9iufI9v3xazm1J/Pmu2nIT+8+KT0Ay4xJJQMC+ccIrwGc9GIpJbyflXZzWln3nD/wQAJmuLknHcBeXguPtgehmhmx2Y2vImQQVv2qi6krpBtUX49mZANv6DOfnUiYM41wLvO1LwaRsBK/0l/UaSXST1Tt+cC1kNPo+PIe5dPTi1lSGcs2VReHrvfwYzM8ggZD3A85wWOV3+29lhTJpfNRBuAjb0DC3G8UsheMstszvoz1+OiTTP3XqWzW4anu1zveK52mojNNq65twOAp23zxSlW0pX/7IoP+6fmYPLsb4GoacVG3B76ZKQfTZOXNTI1MZUKrlEvkUa0GWDm4LefRjZ7e6P0TxR7Er5gu4YEPAcWpC+coJ95fqT6YU3IylzqmoTvHA+J0oRrAPPLL9JEX5Jhlt5FLhxeQx4Naxi9ShokY8kXzCj7s0ar2D5K1kNIC2L1+WBpUc8KsGRTLFXIfuelQakZziMYlr4+L/RCcLyeVsaT/vxuQm/LVE8DDV3LX0ZmLbjnqK0LbPG4aE8N/YnZk2Bux96fvUJQTif8FE4pIaTbGu4DmYAnAQsx9iFkmGLFTvoWcifphlgJJlA6zVU0ykNnXmXNkKQ+nH29/Zka43MyjUjZKeJbTd95XyPa/MPMBtYG1Apoatd61KNlzYNn+YkiznUzVkMbDR1iS3qDAq8bgpgbVZ7VFGqIk8h+GI65zKUGJnyIegdWlWZIaweYFRUV2RBme8+r4fAHJkmx5AvAl/15doHK/siTDoTRY9TUWNiuvJv1H0/YX8rpyBAm/o46pqcQvp2HCPij7nAKZwcDDe2c0TNcec+hnGJxkAypL2rTNp6YSJCictSHaf4/NFFjZWhJpUpZH2QCSR5isBpDZg8180Q8MOlVuF+xUgLIhN5FeOxctTRErTfyX+vdqUYPLQKx1RtyeDv7ZK+w2qs/Euz6X1mJpBG3bIlHyKZlCCm6mHrYuJw41zXMae1b52z1WrfbEoiAx0kENcBOvoWA4z3yyAmweZk4E+wtP6XecW1PMU+IbMqFMHRD3DvhptSgfD0ENdh2n6kV07c4n2rC9qlnenrdej0XT0dqgFhJehDUM5Pb2cFmFQh/0MqxelYT2HLmayDSjc8UWzo3XMEoFttPxA9VpQ6xnM7iIMn1RcYpE7WOmlXgPkgJbDtuONEhdEkqVcogpKaOQ6h7HdbfMRz7KryECP+W9K4C35kX9dY6u53PL/1Va6pKUOPbt2+psywTDkMOwba2GkcepYuPNCaSRqxnXdDyIA2Hx3AIybjArpAp1pdDIWpnCFlQimPzJ9UJGZgIMsFOzhJwgsDUT7zrQ3KC1F0jFCHZpWbqEnyq8KS4EfUmtAl7ks7lXPpHgnlPNZu2L27k2tuJOU6NqQdBgRQeB6UpBTKgdv7+Luk1kHNxCSg+U4YJqg1V+E8GsWXTRx4Vy+m8tCB/QIS125I94jBK2vup2ZTsZuVXhLjsp2dsrD9i6E0b9lwfHA7hjmVk1sNS6sPb7S1vNaA8a3sI1cWF6lE7Tna83leKwwjFx57jvOgPGu31NGJvSXrtHm9LSgF7qh7SzojV15WnXU00EcOeFOjjqJd3yCGOdZLAsvOBc1Qt3Vy+r9OYXWp+HSQDLRVoX88sqW9CobMmF0FZZahdcSgcUiLWC2E+5WejNxcDwvlSq3db3oWAfkO9y65aWwSEd1W2iy8q+EdXSYW0OXbVq6lp4QutOr3XDB/2YZS2/FiN1QOqIdfMgsl85p5zHPDhnk2hlrCcz+xvgaWE6JB9IThz8xM7dtKtQ3NSofHAHSdoK386DdtaW1p0HBOPYP7laMQaGn3L3usLvZ7Ono9XUYJzc9GVV09ycpP3Mo4vNJy4fdnhC2rpjLxE4MflpXwFey6bcM5XgCnkuOdXtqy8gY9TLkRSbYmyapY7U+rs7za70fw55Rc54v1LwxJiH544SY1H6hJoplNU3h0eKRZYEiMg5OVagDH2T0/susWMTXr9scvmos73v8NJY1EaTtfskM38lpMiGcjeQU0zm42xv9RpTlE3nv/ULvUetwakbqF9AVfJSxrrSf0tp/21tJeysc2FSHqy0JzL3Iit/fgV+aURzXhGDsRmOCSgHPUq6tgDabbEld3lEZ2PLYfICgQ71lC2K+prxosDgR+X1RbYcxQDuy7e/XmJ8lQeOr/+hS/AFJ4JxFa2GfU8Kx/Ox+2qLWX/n/rquQAQNtqUDod3Hu6mnv5RJSvHK/a33ox1eyxN4CQ1klIXaJX0XKuGdLZlC1Mwq2Re/wW3mKXy2K2L85889JzE/VCxjAN3OOmjA1/CxQarphpIBs55z7uSQmVAlGlkE8A1jSdQNnAV/InGNVb7Z9lS/Qlqv5SNbVp0GkXbVBLxnA7B8mXDpRGbWEmNTYrH+WQGx5uhCsVaHpvgSji+/FtGictZTlI5FAI5XG5BQhai7YcJ4aSf2ZnSQM3jMvldm3JZh86/64UvspwmOB/mCRvNkZ3woVjGBcBG2+up/VzecDfVk6LltJK1p+fb2+HwTFfZzEGSJodfm+TAUQtIn8C3k4GG60VhtyoPSr3YBcg3lXES902ZzcaNnr+SM0J5yDM2oVjZiNhFwSfcYwUraC6Eu3NeZT60RRTamygyIyMgedQnWk3s4qMuUaDMB/wrK7GP9JM8p/my4dKI02g3KZ7mkxl/gTFUDseVLcHF9kM85TPezEg+2FXPA4eh1WUHKGxgYKdmWbCUU/q8pfMU4/AWozbq6f8txsqUej1QiGNMXa1XQDljahar51JtwdPvhEqUZrvx4WUrWW3B6otzebFlMxYuKgmZ9Z/U/kjSMviFZblWCD4ZbyfhhGt+BIDot5eACFkICGGaKVDmQxQqzwzPV+psOw6Uwh/dUB7SjCsnFVSFu9oqREHs8BNmPOdV5kPhvf9MM5RpPkgaAruxw7Irhykb+cnCITtuSnnubP5Jim068yh22vK03U8jZhNAZrz8A08oMDgjr++FcOABfz7jzedNk131YziUAIV5E1L/DFL/hKUcQlF20IPAwddcvAmK9RgHBKPaJ0lUIMPiPKczjqVUtIWFuJ9sCCT90ABRN4nuhI9phNfB04ZS0qjZ1IoPL1vJ2gtWSdaxWGdM8GdQwJmj5ZS9XDZPjep19lyLksyMJMRGLvcMPLyd2bHm0RyivNPbmzqsfGkFZDTRtamq0LiSDGU1ltFM/jAlQCd/QlQx/MUGWWzza/O1TrPnmkb9nWKsPogktoM4VpOmNBx5a1yiqQA1crA9FqWH5swc2VKFHg7O9tN2nM0c9oGjsK1toaO2Pqf204glAVQrfVucCHBldey9kNPAjOF5lYOT2Mow1s8gG7RC3t/0SQPD0lsvc1WZd38uoH2gbxhW9iOHDMvUpNfKC6r6BeuF+wkDKc+V5xD/BVbkTSHEBHnSqF9FAefPBllGUvgaRS7n1dWBD8qYHWsezQJK+k9mbxemyMP2MSlnGhl3rls2IBY6wxyGLipMCQ4gf1pgIyvgfBEvG2L4qr9TNAgXhiCS0OyGc18QG/KJOYe9b4pfV5vzC48tkaq39Fw3rXmN3lPD2Z5xLDpV6g0/kUasdV3Pzc++eqh1LluQlKcezLUC7+Ugas31L+lqHDQtONiEBYqqHGplzMQWRNUFQ3bWcmASUKOat171XHktTt/IUyxV8vC5X3iWgNwx9voq6bXygqresLgcE4QQWopFurz+WDeYZhiCIvnVKazBah4Sy3T7c6c6x/VYFziW6+pAmRCF48/8O5JwfdYLzMP2YQtnGhlow3UXx0mklBnmMHTZOerQ3xbYyDo4X8QPbZnqwKfS+md3J78R413MueUUqoGdjz2tmjbi7w9uB+2hG9VNGSl9E4G8xu+//56Er9+nBotYSa6h9rxGlLkJ+avB7OGQ2FcPADf2YB6eB4dzEEKtNav5bBFbrz4StdgFqmdBy5Al6Q1sttcFQ1LWcnIS0ERmZWPv8eNKHZLmqjn95kTDe5dZckG43hQ+PXRTRgbUnBt/Y9WENKpxwel58sUpSlYbCEOvjlqj0+R4XuvEMt3+3EkfLpSr8NW8QkjVlIjJ3YBnbC26jKiyBRYZEP4K102d4qFJ6uNKnispR1Wiyvt32dMzTMTYKvXM6LZmfZuaM9qMf7PblsZzEhiEQaY1t6Chn3QlHa/XinoCxnf9m9cPA7FN3kUjMiu1h0Z8XLidU9Eh9r1lV0/tNHTOyOEManiGnHMG6K0Ir230U3PPZam2QbctQ8xsoPD4UUnDJdnrrwCVnP7w3iWWXFDC9aLIAFVja2mgxCBoMpK97jpcVsNphZL1kWAMJ0KHoVcr5cx2M5iJKaKW79jyYBbJjP5RXsGLFf5wNS+Y5OEZmxEtI6qmousseuuZl9THlWz+3syT9y/nJLPrMts/6acJs2pQ/zXr21SM0T6numc9zQdu01JPI1Ci83fl5YFNYT62MrJWm0o8CvH/QMJaadfJ2NYmkNMipPNpmEUjTqVKU8ufut94V9eje/5oAAAgAElEQVTYndOCJbRddiGmx+ZwBmTgHppC1yD8DmkikJpq+wmsps5lY/gUAhs4VKbXQUnD9YYP27HrPffqCLYeCUMlP6lDUomOU2x7HM52V6cnHHJayVb4i2SzmScsH5tvS0hKbENSOxQ5U/mnvL5RX/M2e2wwyb5K9zx9jVqLM+WsZ17WvFZLzTyHS8nV5TL6AxPZrrKG5kx12JvsHRuK8WzthBz4Rb/6Wr+P9K6ed0Wn18HT82Rsm3bBb/FDbOqQRSM25zY01rG4bjGIxZAtYc7PhuBU/uAnk+YF3TvQv7J79dfMzvHuhDNYo/CH9cGu99yrg7PwSPgwSGVzlCV6Xu0NyVM3bbJF679+dmDcWyT7V9NJ3rH5/oQk5KlXOFsX+2dJaL2cgD9WPFYaCc++Ss94+srVeDZ9HO4M5WpyTuVn5JVhYdlrNc/TB6UtvW5Rr4l78ut2hKDwjVlPNGzZm+zlJUVDw+UOyKb45JI7p37lLX9+gofTmTbygbUD04jnw9h0p5OxbSqMvcOvaE+nEXuxWH/i1kQvy7xUSNNFhEZO1163XYWn9f7nJAJimk89J9eMXdyHYTzwLFkMxZ3Oj4DG88O3JwQKAcFgV17tDcmx2hoMLIcg+C973DGlrWdxd9mFxWU/19sbsjVCyDu9zi/t6Wcnkx6e3OVb71F+Z2jqzDmVn5Fvyq8bwVcaIk8tSm7Z+PQhlfltWr2M1G7OXjbu/dUXcw1DPVd2qAmBlbM/5qItj923bMubjYWGJ3CvtQkMY+Ajs3qWvJYX/fsqAOER4k6nEXsrpz9x68sodrVlW2IqckG9wynOo8ranpOUHi/wnrbnJMyA+JOwZiWAKl1QW7b6kK9Tnh+us/mSKu9olxO7z1h0/To2Pf8x3LY9BR0g8O07q2cgv2TRnCA2HgrBP6mWLu2Ce0zxlZ7FXWbXY+3gioZsJHxr9JxK0665EtDIcfZ5+++bnOb7h6cCyK8FuQ7xKwwJa15tGyLSlIEIyItfIxoiz5RR1DkvoVJqsuC0Yk1sp6rSEH23Nb9YF/RJjSTCvPInJuw0CZIsKuQrdt/5/Nd6On4KXsCIf0t6auD2zpQ4ZbzQT7XrcSd6HI0YtZ3MDMID/ZAjoaYyhTVGOn5fewkQnfApm4xG3vMiura5KD3Px/ZsbnaZaGvOgi1T87mcO87CiDNpWTbPRp2w6JpKBsgIeZj+tXhzQW2Nezlrvc5cS08RZEr5nCVrTpCjeKjaQOzrlRVgrcOwZYurD7Va2QE5ZTOYT6kRwjGFe4vhPOpZrQmtvbG9dg56QjTujW22hwPYnCW8cc2r7eyIhIC87GkSJqoTp/DV2ZVQkSGB+1cJyyGn6rJfrPdg4UhyyA0T9Mwu3Hpo9NqRBPLZ1+u2t/381BpJyBsfB7BDhl+tpfpM6bfH0YhREcfMIDygl48EeK0tgRsmzZ76ZJY3SXU4p/CM5Nup0vnD9XdHU8+XogzH9oza7AjEvFWjlHydHK4HPASoppJBhioQVfrX4oEg9zhr8xThJfpDk5dW7LN4Rl3pzc67pv8WVw807fwKIdDYvaI0oXVWQw56QjSekhlyiPRmzEs2oHZq3punPMO1wIpyaZa9gvHUMj1f0rRHZZiauco+sNeThs3OWPfPzl7qGR8tSX/GYTiv3MFTs8uSbV93bY0pbacup6ckR3U+8+mrxrrUVwUaBWx9ypdAx9GItUn+W+5aZlQLspaoBO6hlac+Qay00ducRw7PYMyS8aamhCIj+Z51AGCy7JZ4Vr1efw1Pcf4J0bNuV7twv703J2AiVXDU1EJr14okzasv0fPW/cDLaniX/vIs6kpPs8oeEkTY15qpbX2cxZ7fPcLJdxsOUaNiy4lhChSl9jlyNIeIWdu8ZANq824yaygMzFOeJ11gBc/FJBfHTMF25ydPLeOZetdLH9grpGEeo5Rj9dmLUqChG5KE1F05qxX+meakmn1WGeqfGm8N+jSH7NpHTWWaje+9q2ZeW1OtN23f0ghyiRIk0v8FNOKWTI4DXzZHtsUD5Ek5riF2CFwhDqq93r8gByK4gEnI7SIU3uLV8rqXX/NoEb0O2T2xmno2RKNPdrqMLekJStjOtgsGDQJfs0/euu+Nrs3VxMbJTsRtb39ekZSXqDqLvRPcA8HE/7OsEBo3FpDY8glnTey9uP5nB829vLjx8LRHRoOVX5BzLgCKSS6OmbL5nq+78smVVGmJT8ZOn8U/JJzOTvrojyThqKvr0xLg2Hsv53r1hp9/ypCnISzHHq89QALb8fccPTVdoDJ6UawwAf4CGlFvWGDPD7ui9yBj4wqZh42laWpDOAfiMsZPtdgq2Fq3ZgsUtgU7jCohZT7IX8WV2ubRIk1MNI2wOvCCF6Ky2RCNafo+qC5iS2X97OE9lYUZlj6ExCcTXpG3maGeTfiAxlHvBWD7grc/ZpAfA4/FUGNgxm2KZt4v2AdnTQZDFHsi5PkzEpiMS6ykRKj0Us7Z8ni3lb8DVR6+Ift0Vz65kiotgcrb6frlgO0LKG9BpagbJmGKqU/LylK9VhS6Y/Nb/dT6nv6aWj+XuSfC8rv+lRXKvpCAZZyJZiQ1AwltxBaqOC6NqEHs9hkj8EjjnI8sxvP1e/iplqgKNpyOhGlm5ivvISQKDxs32l/JX/gCq6O4JOWkt1sqAsrCDEs/ZJCxO4Z5c2zJbcCHGf+81EFvI3qmvhfY9RRlamk8RfUCDHu2wNuHW6M3nNrfeJsimEOfAmtXj1fISkZ9xc4dBr2p6Tb685Set7MHAeXh65miHItTYPF91a47khOuKmF7HuWtcQyOS4fk7VGVncZ2fR/kt8fyX3QIOgtPPRSenjj3F0cYj8I0dnEQdmr7GM687WtoxF4pwk7zukehsSvqlBZOeDn1SR2ekXk3FT7t0PI8hISBvbIKhQd/baJxGwkB+VpvARsbsgqaHbT+ihXYBubNHBVjq3TbErx3c618itLLE4aY78rnnJwyvH1vkcaplzODn31IO1xTf4dYr8ggF4B5YNAj0BDuMq4W5OPPs1688Z1OKOgA/8y7+6GpH5fxgjL+TzhQlh1tOAUynEqAYtcdCV/j7Tq1D3l2x3HJc9ElrO/sJ47nqbt4VqvD+a8zQatBzjhe61liW96CbdNq9tvX0Ii9UoSPpeH7C3OBAQRTS8q8vK25/GgsOYu9hBfM5xM3L9eE4RmZt4DzJ32KLasWIGO7A48qjGsD4eS9YHUCG6t5y6PZQconhDVE57RwVBxW6Xm37pzv8tbbi4+T9tIrb7vZ6uUJ+nnNPRdXyGY9HwP9anM084si3XqxMcrejXLeYhrCXQYfJx9/nqXhjR/ihB5N3jIWB8rwaIsyB5nY4lMM03HpF2XLUM72U5t3Ae+Loc4ZHU5jdhDT1vuDjO2CKxBZAfkrp3yHP9XKq9pkfDxfD7w61ZvDUe41NKLeNtR+daRwFhj6klKvKvc0522eC9ITOAsgAPM5w5BzzcWXqPrVZCph1w2kXtVlPXFs64+fcLLedgceWxgvQ/uN5+gycFInOufWfbaK3nKDpVmLvTdbGg25z+GvCWRbEKKPep0hKzz8qrkIGQpBB5xHdTKpHN7rFpUhHPLmqGfmo52tTnoB97iNVmql75Z9vQ1NcIhz6a5Xb7bn7EkxK//RH5lYlOcrlcF0W6g0eOOud+LLbvvkhaBEOntXygo8vp72zzRDPSc1MYWAoTN8mNbx8Guww2FsIr/mTGlO7W/kevNzaESkelR7wOkXnxwnU0jL8hLBLwMz+8WXqIJRj09MJczeuGan13oTwnsiVa2PH65aH+myjaz3kOkGk6FkUi1k0IeHDNnPd5WdHiiEsUwK7ErxBd38n2ZZIfMN1pSqR9USTc13BWEnUdULpE0bkxpDNhSHJv2dU5I5pViE+qhkMvyNUtKbo6TrKM6Lkl7APW6jw90DIaJOZmInypbP2s6eFE4z1z+52htS4I2c0DrRmx0OXz0hR83elVPILPZ5pW7h54JyXmU3/NHGpKCt1EHZDUjOFuBK4eHdKPfDPj0q59GbSUcVNP8cGhGp3q7K0Ewh6dfM3HNZXqLXEOnvCYecXue8ns30GvvzLQExD5wDJSPI9I7VQMb8Ybv/hjmp7DSvEd9zyhJi98L2S8vFrLeM7ZqvK2sJ1KuzmUAzCC8AJ5aoWqBwPUXIhuLQdGC6Upv82S3D66jPNr9pHceT8Kepj+liD7umLdS4+FUgzchRYtkryL0hBX6yK4E/57HFXhxK/z/5Ev2Etz69WHEm99rU9mQYa4X9BV0tc3HLp9GIK+FTMgVrEgI2HNNxrFwJyOxcULJHxMxKU/bvZU62Bx3Z131I5Xs6yyZPnZfoDOeRxX7YV2RaX9Dwc9YRHMowDij3AhY0sMyz7b5YePmuZZYXi1WDpS174mF+pod6deUzkNPWSL/0y1ZTr5K/p+1Ab84bHlLgKlF7OakOSfptTbazKdPy5kIPGzmeRD1N7c2oPOx6w5XtTG/xZlEONHfjRGtZhcK7Y0uOBz/ZlUKEBy7zuu/FoVR72RY2YIWsdWXSolRy7yZSKsnd1geZWQ3L/ruurj06P8bi+Pic14iB0ESJCkwINKQVppPv+hCnAivtKKzy5HCeFHsxeM51Xw3d1KMzdP6Cb0Cwp76g4bXDTLUoM+P1iREUCyzzsMeVhVbS73aZYz0kxVz2xONFz/Q2rhEf5TZmKmo1/c4/dfU1Fa88ncNDClzlkL3cQybptzVRztZTO7WdT73s39Dwjk6l25SHeCCkG5+4bsnxmNF4/N2eQEgFUeGBS5hL/hR4qSNPNPy6njofqsQdEHJth7h+FkPPZa+wDbrVQ3jTxRb79UQhLVP1RciM4UIA+KURw4FNERhFWiEomCvtd5H9KSvxZYSm3u0bUDwnHTEojyHDI3lNCSHrP9RBmY0hyByYGMnmm7+u/N1uT8mhg9UDb0gv9+b6CzbnL9z5KN/LTPmdf+rqq3bjr9mC/Z5NbEVhm63t8OTyGMKn3vDtvGcWGss7Wn4Q4JxFeYg7Z3kMx1mTSo+WMzpDq9N25i7XM7ZHvSA756k+HG/9Ea9xpL2ks6Dhsrgn6KD/lHQBpldgqif2KS/91NhDOhPgtMEvjRi8HEk/MwnW0ipu442iVeWYcUk/8wlRDufiXr7G+SgmBIfzhQx/VbGmhJCBOkEHWcOor+vze2ieVx8OHayGbk1IX3kngVg0S6u96PFjvYjmFj413kJFaSyNunDK+BEunDPqrQScNoPYgp6xjE+etvCK1JNr2WGxJpVaZk65YTW/l9JscGWfvHNWo0DSr6A0U/PinkCZcXSaPZE1lk71OfOfaYYJzCXtreNqPF/3Yg77LuqErQGJasnILqJ0m5JDG/zSiFOIHdE5NhM9wiSFEntzgsBbDnNF3WOokT3rD+kMJA95FFP7kY1TiCpEa32yW2Tv2lI8BJocpf/eVAMJBPtYID4LRGU/KWITEKYM9Nb6Z7DvfdHJp0YGFTXljQc+Fcn4ES6cMyqOTSE81Rl6ZqQKU2pMdU5997SsnF6TSi0zp1xBxMllP/Ldfs7CIdcTQ6e9IFu87r2gsd0feopRO+/60/gv6HMCHy2gtzHIKLWqu/FCv/o1ItlFhcylEX++vntfv9ceJre8JROVrdB/Rb3duxg/+Z0gVwuGYliPj76njKRGzrt2Clm0nlPQwLirDx9dh3BYYDGGOQpre1qOtWYdM14GmTXPflLEiiHgb6e3NECZX3SGHBDyzYFGf38fvw5grLia8qv0FSRk13ixNGJ28nDOuyen7+2in5xqD4ev/BuFJ7yzhkPqL/iHACo7nHYlgwQmNpgooeBuXD8Os81ZyVH9cYYeleLSJkKK8iKq6y13ujgNKdS/IsUVnHw1jXjsBmaMkjip8kiDlx8VLAQXOf/T450gQ+1xtqh8l1f57ZHC7AY9nqi30fimWn9ucX6gH2I2hwYOp8vb4L3nqB5z9o7Fbg3hDjLAgUylX8GlM3Ll1JdBvZ241zHWz45YrVzrKPW2HxDnP4uzQe2nNWlew2E01JYdjIUPhwgdsHwh8fMxi//GUVD7jZ+mzgKngQvop6gUd8rSWOeXpz7hnTVqkPW13mlXMvDn3kMQeR2jvrI/ZETLECV3eYug/Pb8RNCt94mDzPp911Op2f7t2zdq/wBmgABf+hrxsYEPeRFTrvGDk2ouv6GxPNJwI9dL30+4Q9MbuCUXkdU7/7SQ9f+wrz2eaLjR9BfXGT89E1ZhOJ28wQXJH/aJ+an1P+qJRVLpiifkygbiY7gTQ8Dksz6EPZFV4gukKcfDiaxca1mBF31Fqn1CJta7cDoBzECvCBR1AjJ6HULud4fThdDHwixrli/vRkowbcGnNejBkDX+JoO263djKylvGQF85RN5I5PIpNIJh10TNPBflIf0yIHmqNTG80GrzV+T0NbzzrZgLxzrjXpzKKovpRH1mlHPqHcBXLectmBNxUrC0Vx6+bnIMhuz5fenvatn3+MYzTTHlFvezp+BwPBR4WeYabBiyMI0A1c9ER/nHNPqPl+wZU2OuLJgy1hET5Tm28qVjpfNXwggn/CKwf/OqHfhJBj+6k/+OKCMwzaUwiv/V9/vLv5FZPaNVKrnCP5mrmgEmb1PJ/ibPyr2rBPaObB4fo8lyDd82nIiP/Q8tiBlPQ/kv84HremNiDMnv0Y03Pc3LT2k8VwacUEhpDnVhkX1IQtZqlFykX719Pk9Tk2EntPe1TMOee+0Ne7UXA4gfGnNJjhJjcNHhRnzDm/IOe/ceG17Qs6XAX4pEzgveBlXG/LGC97SCoCWfSeXF6XrFdnYEnKZsevNS4nbgmxtaplCWN0MV+eNc3KRQ1DzKRD1Vxr8tKnGARDYw7FlEBb/InINaBpgY/sssOsEBoSj4gJ7eYEOPDpPCHon/zPNWLstpLO8r/HD26gXXfJcgV83pvdKK0ISP+VcC7qdSyPmGY9iXnlX8xWK6iiocWo6884h1RKl7TlyQPvyZRQU8zBKU5fnKJbOPyrC30esd4DhDTnnneZNBDJ65TusBTCG3+WcxnrIGCbVxvKkX+rrrqxuy2VGubKoObcHf//vJ76Uu8LYNaBFMSBrrk8Q2KN0ZqdaAzVPl027bHwLs+yh0AnvGLLXsRn0ziygkMJtvB3H1NnXn80VUTZS7EL2ziuoHJjXDZo8KtO86aIke2rnKB1kOTgNabkX30vJWpm/ptOI+n2r5PXYVPPrLdTYn7F+5oV/DETiZYbUqUZZJw+pFnSY9RanhuuHexglw+V5Tayc9gd6wt9HyGt62okua8tfceT3EhHkUttZA2ir5240dzlT1LkGTLPA8CJWXxvbwjj8ITXFX5nYGeby03k4j/bS9wbHw5A6+Gs2SNnHgHk5PPb3E6VkAyY83HyXI6MXdbLkgUb6b2FAZNw0XzmD7Z2AGiF1n1So6+mWtfg3vk3VpJ1VKnPI7XjUZtfjPCyg9KICeyKFW7DuTZ3NuVxTWl4jsne8AcybRSl5158+UKondONsJPxZujDp1Kfvv/+e+uvJsSnh6zun04h6kx68nlzr0gIMOfIFTNMhZ5Ue5F5P7LchpL3hznZ9nUwTIUGMZYENhTRO613EqxNwzfCpP9CTlL5r9JT7mBWD+Xt5gYdp8HyPyyGN21U8PMzxczelQAN1LnvOrMATCm9bGIc/pKb4s5cizP4YvH12LtkNlF9xHs2SFzba96HSCY63BXNhaUIwSXrAcuDJIiAZ9WnNDRZnsLEHd8g+1SPJ3pv0Zzc2li0wLfXKqsR5e6qzfrNvXFzBw1FhJfmzMC8+nUmt1mov3h21AmXLW7jX2go+Bc6kEek0eekzzxpqtMTTiDL919OjbvcfAB6maSpv8Ktam7+gxfmCYErDlXM9FNP8GNZQSH9YIJhazbpzUvpeTzTbEq4YMwU9goPbPQ9hmmYiGWKLmn3OaQz/JfI5pnk08RBknnlDxnJmGXXK97Q68A889VT1tNtoX8+M5VgOZQsuXGWdh0FVHv41v2YTc7G/Q1x8gxV7+O7dp0nuvaVsycuOSpTOeUiFTbSSzsBG2x7SH067Nxtk/A9//6WpVZOiQS0WoNGG9RAptdg1LVjolftOb9dbvFFvUTyNuOVw0hus7PmRecPD9pUvCMq5FhfSi38Mq3QwQ7deDY+IueaiD0xWXo5ieHC3uBge/r7p8KswjeMh1+9VYvC0YUKm+SWyRpmMPuY3qn5lOId4Cx1cmhz7gNQPZpSEc8rOKIs0cmLfaOBQmH2PCT2HQVVjTrNPL4g1O5eNecxmFLOQTczF/g4R2vbu3obLoewQ8gpVOVdqt9TXWxsfrK3Jjsy7PnxNsYlW6oMy4bTsIvw6f2qlgEle2TKljND5qJz5Xa8WHqimxk9hBTWfONvMvozXKBPSJ55GDFHrCtEgoCRQkLrF/spDo16vzxsL6cDLNLMofw3v/7EMXE55PSX7J2Lo4+cthqMrthjuOe2XakfOd+ZVXshC7E1qZ03wb1t5xjUHhIdmkvWvvzZjS90tsGXjc/uNU5cA4lA4JM3w00l5zGYUs7CGmIv6WwdnshvKCKC8OVNK03Rb8BpjwRS1pWsu8M5578PBec01/7E/RF2Mw8Pxzv9nmqGw/9iqd5y5ZX3QM6taDzwkKaoVoxYmtbdE4KZKzkYjjZhxqXg4Ndt7C+ZcAAy3UUtKAgU1s+2ZQIh1HyAk8JooUNThwMr+afgheaC9W26EsAflS9GVb0sD8cwWNYQl/MJfJsEFe8M1EeZ6fEL5NHuSrjkgpmgmYGhOM9bHFtvTftt6PRbdNjUJWfyzAMGNsdfMyy1I/uBP2cQcQu7jnu98PBH91rA2eWjkWbEl82Gg1lzgnRNPODivyQqY9Ffe9Oc58EMy4YDwvqUORRBjkm6Z1YaJ8jb+lDLH8tFKKzgHPvAxxIf9+yq0IkYaMePJtEzN/vSnP1U6UK+bM4jIb8E4A7adFi+illY+Kukt5VvaX32f8xaQnXrKYccp/DEcvGpqhiffwkGBQ8p1rmeckRkgI10IEQWBMgleO8YJN8k4ffJc2kyt1nDJLVjNjDSjOa+TtWzK1DRmr5esQ+zPApAY2F4jYlTscjur1jxX50DxdqpL9q7y60rqKjz6rVSeQQu3ol6sBVPUk1LLggoiI540bRk2Ls4KtvjqEAR0QHi3HRDKKZrd3sWIeY7Rpvm2Rs4NZu+kbdOFj+Jc4jQakfIKZH0vBba5UkYasSkrtVGuvbcvyQleCxCyt83Uo5JUl2DhKBhsBG5Tw5BHIk3Jt9GDwIIE1KPeCWO5Nmj+GA21cWy5foLVL9IBSyC/SD3WnFlq9VhDHooFspaBx5AevRMCIxKDLY9NmkA5q9bDXX1BbcwxKvBB4gLqCmpnpMELlGdPlq8Dmw6vbNzONC2oILB5DzlkVwZnfoa50leVjremPq2VOTySPxTGscVkU23OmpbYK8Y1Oj9mAYOfcRB4zPkAYGvzX0Mj1qqXLQcGTVnhjK8AQShjYp//ZJjQlDm8vUfkxf4M+e353kciTRBuIyGwIAFlnJH0HPVg5HXsNjAMrEKjdoHz8bhHDSS18q3YQz5rew5HY0Bg5TU7joyVm9fw6oRPav/r4JWB0bD0wyFr/szfUI01HUK284JfL3KMat5ITWGV97SzVgNqC2lwPURuWcDY1grI14F1f0PLrqIpj+dlEOBvU4esAUDlkJXB+ZxnmDU4XJ8G7s16lrqFiZvAn6rUs0S1GBKJqKlLOQDtFYj1zD+wgiNVX0rC9EBG+4fQiLKRH/AVu/qQ67WT8ZR/e56tuS1yNe9Oea0N3AESX80T3Y8MauUqm59U9JJs5EBC5Z9HUS1mt3vVI3xG413AsCcnezMK8k94PC6o9/jE2so/CDJn58N7Gr2qQk9UU8po9hV4pe330tjIUaWCJ+7hwIp9JQ195C0juKv+DBWEND8pt3Nz7MpGz4I+9Fz5IChQbVixgLGtl9Wct9SiHi2xu344Xd0hnOd9TBHykqBW29yy8hXeyXXiLoIsL5KbXUIYmLfxhUnrTyc7Uq1ts4UrlKPeMXwAP1ujfWnEGpNxi/Cworx3DSzPUCIecr02BujgHqnEWY97kvFo3p3yWhsKISS+NmVY1dkojE1xVMgmWwKfVAAZHANCxfsuiqrpmQhc8lI6vas5r9AohFxhlOcTduXUzQ0qWCVT5tGtOXbBrfuQQ28qZmjM4JUENZoXOUL/Mz/t5etPi3vQx7wZQ87QPD9JTWOgduCCmm84DAAGqo3ZDQeBQe3HkPC8xa9SlIRsomTvS4IapWWv8GiXnVwnZq97jTxa8M80TyVyPVEL2mnjI43kdG7BpI8pKOLBkTRvBdarp5yRld+IZK2q/hFGPfbYlo+lEVOjhvCwYuW9616vWpka7rX0a87OPJGyOsWmUHYOhPRdl41Kw9fDqFQssBvKM+FdZzmXEHLRLfx4RiSfurlBBWvg/QNRTRU15NBTZ88T3rzImZ1u4z2KhvefNWdZf04klKFgmWJ5E210lTyjBMlbnmBEJaiGg0CAQv8pyUkOeY1IOCQlOcywH0KCLHuFt+AeUe+9dU/Pw4hamr5l8ZWkXrFez+1pJDuS8Fqip/w57eH3SX7TTnso7bcIEj6HRnzkoFPlXxSaa+Tw6cjn5Zp5H7PIhxZ0M5C5X7Co2LJ8hkkXLI0hx7U9G5nisAxYNYdoHj05GQEOg+ZnOE3NMxqBRmymsviNpAEWhM1DKhyD/uYh4T82FDQJ/B2AMMvj0+w9yvacMtYVzeubVLRw7mGLhIaTKM9VaslrnsghTMnP0mvd9raEszY4p9Zz3LPxZC/s+tmz6xdOUw9JBpalZBzo1vuqcvWxNzngK0d5up3GKWtswQbZWN3Lpb3GhEP6rPc32XBeUz6k5P5v+fo5NGJsOXry+jXrfeYAACAASURBVA1PRz/dAy8np58ShfBXHhIGMjepqJAXFOeu/nZ0y4Hde3bHadkw3XdWVrNLIx/h7GPy0iR9zeCwhqqGPHqSZ+EwWL+J+9QzTAZE/hr1YkWepfyKGYcx/CEwNbPUBxC9mXVP/eXw1KFTT/SWlu0/vrO5Yg9e/fr2JMS273r8ordCn2/UMtc8kUOY8ugJzXH0vPTuBKf2+voC2Vos53JCDjB79tXOL7cAsXMKdSElkw2Z/cop33pfVaqa4dLy1FypGV60yJLzvq7JxwT9Xx2uS7tS02YBwN4nhCZiGwzESE/mCe1LacQX7eTYtdFvy8cxj20wpIce2s7SPYKxU6L4j4AIApuf9A8ZGIopX0JnAUacu0KHh9pbDuzeszv9r493VVbZiWPTqW7jdgT2MsWy+addVMraanaQ+XWbPoDISkZ9nTp0/JPKtx1++QskbC88PDZuuZOTFc4mshF89PmGrG3eVyRm9Y2UbUZNELNJfowKrB7X3zOxLcjWYhWIlWZerNTEYNfrUQGNYQEijNV/0peZepmxPdmll/nhlkrNCdquMo3VBmgvvfUpwT8tL/r27RupdyzLb/bbCRrR/1L6fAo2decgi2L+67vvvqNlky/NMMR/G2z2jzUD9Q8ZGIopX0JnJ4zwf//5xyvO5esakD9gltiqRgZET23LcqK+nvCOgGz5AM5FuSLIpQzXFVFVt1JP7rbgdRtWXz6zZtXO6G/bvE6aY7Y2Bn3mT6sIQAMRnPFMw3ZEJlV6nhJiMZFt2AJrdiISM3YVg540JMPTZE2cG7kUzp6wPujx0RNIN280p14yZ0JeC0TLrtejPX2oHQUI/q0PoZvzU++dgVNs4HDeROyHgcKbos6nVmu116NU6kAVLnbQVIldW3FCy1G1NgGLSL7+KMleiwka0cahTpVh2dbK8ikJDsw/enNtv2roKZbazjn9e7kz+P+y8y91OV4q3FPVzPK/emq7BhPltLP6qsUua9Hs1gWhsrRXVinjQZMhl0Jsf++6pzoY82UL8PFs3lQQSuGgz2xplV9JJu8Cq4WjjkgDtepHVSlh5V5QqpTXLcPTZG1RdISkarNpg6zY1FfemIF020ZzSttRSAfSoyzc9nOlqXUxdM6zt1TmfJIigxmXl+OlD+sC31PL+NRfj7ppqNWbaqEQiqM25CyYmrru/EnAPqyboBFrXDQtQpL64x//WCMhpE/zzv/RuCuhDzHQIKTMZbMvt0vSwfzjO4ONe4dko7rXurfMjhwu6iDRrCkiya5Xaf51WUMRYkWUD8BllZIeNPmRfEjgS5TZC0nE6sB68qEY8vtUgo+P1+G+4Fq3eWqHL8ri6cL1J4FcnqWuYIbmJBM6r1lrpQkMY9ItuH4vNBXOuDVpThTymmM9dYWiI2TejbVfBucCc2ZPn6ZveBrzaHTbz5U8tmjG5tnLs5/Jnz7AWfyGhiKA4TJYs6DZfZAVR9UsU9pyjqrMzKeEr++Moxa/Jl4/eznjhwFbmpZOIz5WrkzLZNouNoFrztVsrF1t+6FbqxTS4sxlzTos+PGdWbevNvDrULpvWVl/xgkJIUVUKmjQUOYHUxUg4XnEXKzmiNXy8w0PHYP8fkjwxRrVk8bZs/KA7slRtkdNt5HLM5RnGVSUjezOe5WJzM3wA4j1D+iUvopub7k1gbbrmTj/GTq1HEmdM14j4rzbTtnnlR5n1up59rLvHR6yWM/YS315662PPLI++q98EbI+jUeSScnM3sxcj5Xcc81DYFkHfEVoInL2M4AtTV5NIwqPEx8roe+pWcLb5yKgRCD7JYJSDepmfiKkeTEHNQRKly+jZPKCzdn1Dn/qUZse/PCeSr/yZ5yQUN9krs+wuVxZnwwNl++c9GKoqrJDHh0DBd515YBwpIxdSoTlbrNcnj5Ky/PavmZQURqy26bth43is9VAca6EYiMz7jHTf4by7Fz7efQxjwX+gUEMotZczwhW5/kVZxpH1eqzubQAXe/TWygzLH2dnfbs8rTzxol9k+RRSTmWny6tAarUCg/3PuMpItl1zlH7lkJV6aJltxgacfvtlsHyDxjCR+Zn4z8kI8pHEDg5PEHQc62HeadCv8Au7X0iNPu3pfx5mwCFsFttj9rWlwcevxLMN3zyrNQUIcjlytSOMFgUPsT2Vouz1cDCL9w0s0DhykEp03wvopRfdoOTv+W1qcHAxxAcguy3foHLJCAwZlR6ZWIwZY4/i5Cn80RgkszkY/YPZWaZ8abV64/aYcbY1FNodK6XIFn+BPyjgtg59UKIXzWhQ6aRvS+aUwuN7D+cBAqdbZ88v0WwzWgbtfKd3Tkp9yxWu8gvChFwpO03DbOI9fpzKNh7Y0cZBcLvaaGph9tUewyN+DE+N4Xd9s5cnK/EH+l+VGajwXBIRpSPIKCYkPYhSmYULWQL5p2iWl501M1yKyjGelBzO4tdD4XgJxrPXNnnkJvVXZfeMkMXXiDZ3mpxddQLj+F6RnmgmXCZUkB5L5IaomuFwzmjqfhf62NrwSGoL1Mzyk4bfQNNeO/YzG+OKhODZode4zCL6A3Ut7+F9oWefpdeedQOM0b9Mq3nQEvdcOpFXcJtqRd6UCe9FkcA5EDUm319e/aPeWH4ykrQhuHKd3Zncsoa3ChaYu8vvpDeld5rMLH12YXkQ1sG1vPCyYbAglExNGJPUQ9knrE9fcr2bPkaHbhPTalMDZc7x95sIN1fHN1kA6e+4rjNKFqm1AjsPFW8wdOYuZtSY5ZbQTHWgzrvRnrKqF7nKVR7QgLbmZnq4Rk414IbvFlCTWbojiqQhIUw68kxPCnwmgkXwVjzp8UhOoozmiqQtt8KZJSdgfSN2XlCBvauAUKEQ8gs7VtOvZJnh54eJgtje7eJgZDWovzsJ2Su5EBLK3DqRVkxew1c4xnYAkjDNxpsPJBNg//rr3lmod7Ld+u1le+D9XI0Pd+CSdMWpHw//PBD82tSIz/ZO4oecRoLW/b+KysAlorKA0OTE14a3qARA29yPKevZ6wGF5v8ZjLkf6eaSqmwpVy6fFKM0Kz1Z/RBOl6v3VTxBk/Ly2ZSoV5J7U2h+rA69hFBKqS7hJsJtV0K752XY7hQdyFT8R9GPUvfdXwAh72/ZOkhSe3htwKIjYJ7CMps/JRKp/J5MXttBq3ytpIT8MU8u1NbsGALbr9KPUMef20vqmM5l9lrYOe6y8ORx8bG59RgIpsz/Ar/nw1EQ7HowGKb9alSyJpuhAPCsudmQqPqizBpmrPlZhc7iLzIRo80DdneiLOA/CFp92kMBIn5kRwimd+gEZ2m1jSHBuWMPn4+tLZFSIbqzhlGeWRyjfFJMcIDiHnsliMK6fhXXjsbtRdI6imZlNhHBDYvfR2hYDPTPGrBi0uzbmcO9B8fgTsxECLY5c8WAlUyiJqtOjKsNlzzhNOpJXR8Xhx4beahUVbGdo+etBacKb16f+1KurjcCFlxrMUhTBNDGvXWkpwtNZgYYnI5hMvDWOYUUxxFEA+BQljOjslvv6hOdZjeGn3Yv68CM21lYw8iQzuFuMMvJg1GlUMaNKJT4rITd0jb1Xzo7PXylC1TnZ0gN4czIEx2NLsd3gjlh4u71wo+AgVaWdDw8JcyguZv/BRI6vmZlCGAfnoLEuogkP1arTbtvRHJ9q7Bv3Y1hp/UotyJvWfXSVBgretswTAdHL7eerWo7fRKoNVs3fZ8vcbZ0LLmjtCTLq6sSTx6Evi7CI6QFIs38q50NPYAPeoRK5+Vga/SmKGbLfQMUWJ2CLO3GU+itj+bnUIDXp1Bp5ZqsF8d6AwauGL3vmZGYrvgnCG5kGbGNX0yQs2U5ifHpSlDep0HNKJwhSh86k0mtw93++Msd+Y3sjJv/MqAhFxdDhFI2htQvre4s39SDVbAV4Xrry9b/wdeBQ8d5ot3SNovi1FFZaV80RAbkTBpk6OBGwceSUnvGsxMbmoRQi50VAAMeXZteBnn30pweM35u4te8dsYKyG1ALZVYs47QiU+7J8ZtIJSB003jjzNwDuU8OoEY8GtoQxg7AG68Y9U1mZm+D+2UmAaUKttbkl9Gc2G9+oms9oZA7OTGeg8lalmmOmUuezX36zn24lXAfA1zHVPAQZ213VUT7Go9gGN2KOlCY7epyjNajlliDx8PRAok5TcUiDVyyG0cG2gpBv054rtpTp81Zmvh9xvC6Bt+QQ8eww+PG0Wt5WVg42bY4vOzDibnrA4K8KWrJcelZXtEW7TLn0jJm1yNHDj9UeSXnlnTwa8dxey4OGMmQN12m4b/hkv4/S2TxHBtts4jTK9uDEcm1EAx7IwQxOmOphpBd7pyuRqSqu6s/N3tbtKU869OUOoTRu2AOqkNH44OzoEFsDY9VvO7tpYs//XorgFh+OxaQCW0kbHC1bTp8MNfyifsfQ1Ph/w+1wAtezfBkm90qsXaGXL3uIdwNL2z0hyVsLYm2tAI/aGbYdjuwI9ZNCOozpKyQdXMiyQArOfqchSs4FlyiJwUsMiWUb7zK8LCvum4YElIjytx1w8Zvc/HV+G2BufAi3m77AllUvf9EO50cb/yjKnvp5/GTNlzvaHMxptuSDPKKU0CtR9YmMOTkDNrgl/P1ubJrTYbuMEgfxpNm6suXOammUq59FgEtsn6aF0T8mMV2O9uQLbQ3JvQB0iymxa1OwHenU4rXbUc8t6xbGUGf/2LvMU9aQHtkzdeJn1/4Df5wKoZckSJqIcJirmmNcufODezBPbs/dYJ9zY9QKNNOJ6Rb/UjM57Zn/2U+86TWSR2UDmpBDfnTae7w/+wh6rwCWf0uS8EnH2NyMop3sLze18TPoRU0Kk7AYNl53iSq1utxAE5MuYKd6h1OftPmM2XLMofIg0n5RCwmJ+OTbm4ASs3/DW4Hz8+9na5GaL/By+OWSqEbn77BmKKTQ5z5QyZWdOsdjhlaICrwk1MzqfDu2qoMzwlpjAbViUBq7wPuHvaFK9esp8aCKcBVPSqPNRzy1r5ZNYIT5uepl2rcn2luw06UDS3IB5SBDTz/sB7zd7xq5hrpuzL05omzpkN/5fGnHvSek38kUBVGPs9t8daOo9jSHNPmCXttvY1I0amTZa41TCcxisQmph3wOh2T770wnkN72F5vbAPLKptrkRGhrUq1l4sw6BA2HI4t9xZ+eLgfiUoszshuwzMrEu2yK85pYHar76nxJrZlnZZ3EKvtK05lxTiXIeFYX9bqPtmnatb5y9LbNpaGZz8q4JZUPOyUNkPfHVDG8pHCaHiNLoLPdx4n9gNRvLkJ7PHHFBEXsz/cbf1iBNyniYiU0kVFXyLjvq68o6gk49HHwf+WiO/A358+ylnd8fPsMVZRz+L40YeFKuIV8eVtVUxWdshmwwEafWby3ZKfd+ZdqodqqhYrxemgcpkBbyHAbzaiZFT83P7obGru/gPFadiTjZq8zFnSy8M73uEQo4z5x/OWiWVJVptSkXEhgKDz03pYOzs0ysy8LlvzDAez/vyNj1sEiGpfdVmdLEEmpv+aV8HhWF/a6PtNi5eXcbhvNu9ras54HDdv2pPRSV2gEHio0aRtDY8kzBmdweUv5FXfBgS+ZtNIMHxv5efsEJaLCxHMIFRWz6fT5/WuMGr46lU8tZEKzIwQxFXK3trhYmv2yxd0rtvJRgSo28znC5ZX9okg3B9qSz/tWuKK9L/I+ad4EVxRtqMh5Nnxp3ZI0PPeVzPRtMZa1V27K4RZ8RbkxbCZOkRGGINubVZCfoqSEch5Ou72Cj56IScae9ez3TqTwPR+YXFWyntILrNhkKDz03pcOxnXnvZx8ZHgTYbYSLq8XVYGz2LP9SvoQuj5NtbhDPqqWOxXI77zYEDU8+7/Sn9hrPEWB0ftqSZzonDbnfdeJGw6NuJhDo8jaawVLn7+UfM57/KC8pEUUIJT9xOrxhBc1DuIIWMgGzcBq47CrIo6RmLPbIAvKLE6Etub0GCmcf2EWbZXHx+/3335Pmn4oqFiWeRnQu9vbhmlis6VMb0izwTjjXD7l3rRHjFhlwfoDDAULon1e/Cfr7P/Ea5b028it5JQwREDxTHrv4wZ2euJfV7n09YRvCxtgrcVR9s282eyitbIfmi3Os2sBAPvQtr71qEGwtSFU1Lxe48rRNJIzi+jB2Wwkzhn9afN9zfqyAXxkK/r1Ji/MIOyQr1t9MyBsBcVV+tSBLCP/KqWxIrIAQ2wuPcNN6AmFyiL08xRsps7pk6yFma18cw21KakYh9sY6THPej0GsaR01RgXSnvxmOy0crnUvjdjE50MaP4CU8WcGh9y7ml1q/RtAZ8pi4Bo8P7U2A3v+QFuuz1zJi7Y/dG5eRWQsk5nuzFAmSSZsbJbxZtIWyUpG2mcIGlO4QXNm8R5jY3/8O6WYubPttZd5uhcNzKs8OW40t9UDIt4meXHY/OxlQQC0lYigiQ+nS7DQe5MW5wqekxWHXPAgfzjh1QIHAU5mNLFiGF3xh/aciz6cxdkBJsf+TcD/v71rR7Yup7n1jwwGAAMAciDmEfOIgRw6/yCHzulZUMUAYBb8qlpdq11+yLL82D7nqIOu+3nbsrQky/La3ve+IgG0ldPxHQomPbtpuHv/GtXnhbaVUdPQn0Se432Yb0YZxbleYr92m9m5jbivvIPGLXDnqTEjIseO5UZ9HN2uqgwc+r/iENQ97pJlH9cwCiY2D32ZG4s8rln3V3XY/nVlMgN9tf7CG0+jgH9af3izRU5di8YO0pYlhe/NpJ40Jl9sdB2x6uNfxMPjdx5pL5zi80gJmrFU3VpcGtN1qfzaFssucIBmGt2jGZnHStBR2AHsqF2js6T93TdMD9DEil2TJ/B72Bn9BY+CAB896whFQ/dF11ImbFyVyUv5S1p8bw6UqV/xjTjMARSWu/OK+dVHlNmiF6qj7mx0594hc2TtfMKlOYQcvjIewsfdGaEotcR7szQdGnE3y9Yqht4b9GpQ7itbmYmWvHCYZ4uq5j/bSOrqnvPtGUCwebSW+VDR43jBmHEKOFW2lDkDSDqLu8ZdEk5uOoArNA3mp47H8OaSZdVC9XUr6YUhPfliY6EmuqjuDcGFvB4Wgnsd6YYsedqqf3zC7ena8vZoRgcZu+N86FCpmgwVOXzhcaAEdRwRH0njjNLRpXSAJlZcuWRxLRGiKGl5hI1vZkE96wjFRizP+beM1/Kkme2sYaiwAo7l0arXe5a51vZB9ttxNex1MSkRlnoJMbMDKE73TsRriSFbWCBZ3nEqcuyPPuEXIwoaHRoxxevy9zx21472PPNOY1/ZykpoyXts6om8tpz91D8n3HTphtTVfEHD6HrqM8B9rAqKUaPHLeZ3OYXWUj22DWQKGDmOyXCy0wFVfLhC02Becjx+tlhvoeq+W3o/zVT176ZGVKsLE+AmPe1isRBWHdjs897fU397dEx/Ho321ZbVZHjMQH0iBz23JI3rWpVP3dwHlh6Hl5K3tiy5jbgvMu22Y+ObqXkOLDS7OWlPLM/5t4zX8qQZLK0axoeejCIBdEOgDlnReis8JKTaGZi8HCBVW6QReWzrX1nhWX4fC9Gy7mR7dqFq99SS1pDZ3iYUW4gN0IgtEfvaF9YfM6JueCG5D2S3ZCTrVXkHDuLC43abqee7dDN6JaGKyejdgafeiblZlarVaSNOBUaPbzIfGZnCuzpLh331imV29oHOZ95JDClW7VxdMguLdSMhW9VtVeMOmmk0SzhsmTlPKtMh5bZOdPteTigqHXi0fFUiQel3B/h0bTbgmt0UIUZ3cCs39r+q20nCxbExPeJZFmO+24itWm6337PX50PTPYJzS8NJPlTEwhzjC+CWGjvaV22XmzLqcpNJKAxVsIoazzL1imLdRzxHrIKCMyIY1u6tXXP2dSDVvi8pgaM0nuz2WbpbMlefXp6tUuNkLbFKZ5+cARrx/LJcWH9YRLmpRvdAn89ao3ao4ctcjjMnHLTpLgzzo0V+y2TH3YGWp9J2hU9ZVWNZ1HjjPsvfAPuwQlz53kk4FpRPSY4aWjKTc902fGb7V7LEjFiBSD+BLKfDMqesejnRZdlgyI69rBpmM6uyKnCo0ZcNWlMYD2a8nrmporNv5Uhru33dDbkWnrvbHRsTj9yHLzjAR6MXew+v5dJfjpeOEPIUzqUJ0jLDh6bmXEgT0DRLZV4FB43IJMKTrs2oyozuR8i6o0upNR3+WsumTN6adEm7Xs+4p9i9u7kVcw/cTX5JCQTQDu8pbkDcAyU5YKWcpBElKV2YeN0YVgcO0Ij2BP2i4WihGqsgugdWpVkaq+8Vd6iBcsroUGrFImyHShZ8ZvoMmTwzUXesQklkY5EcCbsimWe2VXWMMteBR77X7GeOrwvNX0XiLFTJKOqSG1JGbV+327N02ELcYMiSjYOHqzNV40IQtorinTJ7RbdJH6S1Jb5epeHh2z1Ij60rwKVRrXecZc+1LfDR6G3EhWt5xpxRtWUueqRaac8o4xg7T7g8zue2rJ43DZKRSV7iuI4KfNU3qshXL2F4GQM7OB0egl6RWi0hkpZVa6QqXBqvemXSUnJVO8A8UxB+yC9GFNcM0IhLHKm/eb5/5StVRfXRJovu3Db02xDZnlGFa0mMPShk94ujlmk4EFrOGDyzOWrr1uwPtmMLHF0OFx5f12KIxZXGgyU21uoAaXpOGJqxtbgmb/kN6fDGnblVvccLBvFUlyajpXpZMuR0S52q3EAfmivrzC3VTkvNTNcau+Nw2JrL0g7nWt6xiTRsi8eYTaRH+1Wsp95xDmEIp5y/QV8GAxajI6HRI6OlRanDkpZRujmb9BI+twqF76JrJgoZddNpq6q2uxERtSRFs/J5CcNLxKC2MTOXw6stlHbJyq0qOdq4dUt99SgaArN1iBgSYuksCxxrnDNaRr1on9M0ol6fdev+x1FWclP10VqLFp52dCR3hD6hQNqqwqVr9clPXyLXl+zVkMtQux8L8q5uPJY7OLglG79jXhiFxZXWZ0teOe6gXbpe2NeBkeY4Z7a0Usg4tzcx10w0trRN2/W7z6uYL2JePUdNQmQxM+2z8Hd9jk69oz+3VJ2W2k2722ueVUGlg4ma0xhagO7wO877X+kNYQh3MAj1ml/33eRTd85EdrqnFMHS1td1C6vLS0eEBz7ObZmgt99AWOsapk9ZIdAv9rFZTxr+0jSiZOZqMeCD5akXLT5tjaOWnCZacyEOZQr7xt0SdX/7MRrxn//8J9DYwaXchvNRGvFFk909PhsqyN4pfFEO+qqoe9y3RJObc33JXukmZ25FMTEU5Lr8yac8lpODww+WPDbjJq7cte9ph9DgASyt8FbRLruJDKOljLTsGE9W0eLobC6FjJsscMto5NSX4GmBnZhXk/kSsptqKJSuRdV9fe6njWZsr6aOGYGTY4e4JKS7Y+84R6/L8cg3icnocMcblxveOSk5U0cA2emeUgSpzFcPXM6yjS6B0nHcSo4t21IHe8vCXYnxcE+g2nGQnu7lqczyVIZUVJp/xBPBwhfe1OrMy7x5EJZIkPp8KyeboSr75kskpUlsv6UR0/PSQvope5s3c7QesrP1MtlxLByal531iVrq+eb6hFFYiq13VkT7y5cvQKMVw6sqqsnMO3Sw2effLvswU/FYbn/obq0a7iOUkYha8VOdqNoIoxx5bPJMZQGzqrC7kZtfle5xi32JgWR5HI5+CQOrSl6SlKq6+RoVShcCJ1dlVStuPcyuZTfM29qkyv72FkuJjDS476aVMXWs2ou74Ow4rHYn3drhfF5qvXFRzFz1zkmZovtIv/usDLe/L1SELHwEj0sZ4KgELmfZHAx1BiwzrX7sWuiOGVH6i7QhyZMvJofm2tF5+fvymRfAOwxcJdNSVPjmelfEFDQAplKeKWPtjz7nFyMKJt/SiJvqEsmYJzM7N6QWAZyaaSni3XyfjmdLPcaoRTd7QCs9j02k6DD/qHtc5BTKhzarmCaLOVsPNpMUZ6p/Cuxo/br2YhG1cjCPMhal24OM2OSZahOYllid7DN/SEgVwG6SvZLFP09uNJOY3DlcT0qIwHnu6SqycnJVXuhHvfCAwpfctFL24qeA7b5XW67Y0PnwQbrEkcZvSMtuysb9vnB5hEDgDOECR8yn7k2muX1EffhexJL9NlkxJBbe9N0tTSdCQnjpysfy3suO7YMZ0q6ko6esERRO8zGTzX5+y3OYv3bI0J7rm1pSLnaQ9yBYuiBs/6h5YWbvpsvlV7u7fF8X39fq8CFBX3XKcqZpIZ1XVfhw4+syWSVQoA/cLwlKgfe3YFebNHmUShZYmJOXfMiJ3SQThX86Nhr3XRXd3cii5dvO+airsqiiDC92TfpXsQuun99hdbJyeVHbQkyxdPJRlyflItrnrCVrzY0D67RyCaQyHcnEp9KBY4NPMfcoR65zz4WBjjTuTsuTqmbDHRlgeRaat2hmq8KvHZxP3fNWVCXMMKQQiL96fK2BpdVLuLP3uEcGKFaxY5AjG+v7ndyxTHDHrYwodwtynaSXF1o+bmMxkAmHv75wUmA5/JtvvsnmKvu8U4ufRtxXBLfwPV88tTS59s1eS+EuA9saGO1EYKaSU2DEpYxqRDmuACgTveUj1A2j4Y0KbGupgfT41Hm+ZLIA1KTJEDL/suHY94x6zLNyyq6pbnoBMB91VRZVbLz8szXdC1ufthDDpDsuTOk8qczLI9PkYqzihrXJE2a1D8J7NGdWRVUbjXXahe+lyB/tAydDzEi5puEqPx9TL9UWk+qhlfbfHWbV2Csb9QxQ9peWA0R/dV6lsbVVKUP4CC6b37Utc/n6oNC1h1Y2y/0GZgpz/bpNFoHMn49kA5+jy1EIS1lxM1BQLAjlHRtrqfnhFgAllTOL5yUKfNS3t0BMdgQsmeWcLD3Cve9DyFk/jXj/Wt23cR4LDgtXW2WgshRjrOwticky4lHZywAAIABJREFUnUWOr4/vhL+Ejxuq5OxXLbArVCOKjQvZKC4KHpl8jrhkFHBeGN6pXTPEMdKjrzYaOlvucwTU2BEnF37PuA/GF5Jcss9Q3p7NLMZiU1sr0zJv2eeSC1OlYgdaNuVMaI7MufbAM4PJKAW2FZzUkKGJWAYMjZrBrVR1tBR5RNVU7VZOU2DZSvQr8+qPfNsxK5Bn63aLab4/1vwSBmbmDx0lWtDdGaUtbVvtrHVpTqtnt51c5L6Df1eHfR3ItywsyGXtoAx7S8QUX3z/+9+XpzRf6el4JJD6aArHXJcMGaMRr4q2TfviVe92LFxtlYFSwmsSt2w6hegcQhJakV9QxCqmtR4N8XHYz9woYY3Mb4qZLaiWWpBeQg5mTmy5o9p+4MPM6rxKY1btsWBteUERNWRdefTCZr92USja4lGpRndItcNCTqEaYFhrDqdUtZ1v3HcRdZ9k3eq1F8ewqVUz5PLyy3f21tHoPkWUtl4hbD33cttqzT6UiLqWtjogc+q/i/bkbTWksi4Fpm+yLWMn2+0hehKx0ii7njKWZ93HjwzcNO3vLRAG7gqwhG5JS3Xv60p+iTd2M+9cuY/cUwB0ncJFUd0Eu8PRAWMfX19GbVvdeMKdgSIFRH5+dUyqWO044t2Tpasm72vcASa1/UBUx2jEll8fyeCj9FlL+ax99PA8ebafHJ4pb3HEWtwyojNVYAhJaMVDjoU/NTp0tBvKzbUojepQ9n+JizOZE0srspa0xN/6YaavBM+0nbkMMmkdaqwHF0XXlUoHC6egDE8fVQMMC3Yo21Am8lXGuXTpBl3b6qGImW3mdFqVLMosZ990A1/oqR4Vm3gZRGkriti+Y4uhzNbsk4nI6Ho73607yDhdtxsWXfek+sgmO4rAaP8uOMYOQ/PaOTvj7O5uDp4CYbBjebqtkIEwZPSG79o3QDP6K2N5auAJXOmcPTqT0Oz6GHsOkfJVmZs2r+pcWxvB6cx/YcrgsZyCt1q0SfgqoKgeEJPN8bZctwlAihUkUaLs+PWIlIk7j7ttuUH+GhpxqMK4wew0nib1sZ/tqy9JOHxJ7lvoiJTftHOdCxWY9EsM7yLQvV43U95ZqA1Hid+9blO1uko/VXu+ayOq7RkOS5BZIkTk4Cw0qcwSTyFfZZwL1kU1XbsnfYlbIVjvXbbFDQIG2jmmyYmMww/vWWcYljOztBBu8d1pf4TZmSSA/N/F5KRKhAJ5xkKgPEscDN3guIe9chQMltKlFfn72n3F2J03KzOU6KNRklTkPLso3O6e3Gq7pbtbsfMDkVha1+ft+jASDm/odg0newIoWSPdjcw40Qf+YkQis5yTpWSg+r3vfc/ohTfotoZGdANh56fcU7zKwG7uO4xVSo/aqdKn0EYh4qhCHlE4vYW3XAE719O9XpfG5Jmv4bpodK/bdCW8RAdEiLtcKI98cN/QW0foQP5LcHMIqaINmUPKVOVE41oEsN7LqCPHsYRaVTim5Qd439l7ElWdGALDsgTJUk+KbXHBdOWS15alAvYWhNmZJGDkKU6qZAcq69ktFN2S9YFDRcs9L4oYYOlGplh6SZ1TamiM4Wzg5X+mGdo6XifTTCS6x7NZ6S+9BQpLwvGdWZjeX87wEpZVe/SLEsolIK0Wbu5L7tAJb4v9blMp0rLiknZYLatvnr9OLRJpWNEfherDNGKLnxr1wWGK7ZGVkGL1ivZu1RnFIivF1h0HpoxWB4tnecx2WzRTNnU1XMX1ZBMR29aa7Sq2vAMdMeTNIU7ETU9TJd8uBZBbXMByJKsCoYOvzE0FYpm0vrKsTt1qLI+yVG8oBlryl7T7znuWqVlwZ0H1okcpi8mTfRTOZSgPTKpx4XAFmXltuyfDw2SNhUtaUhs4oGOty4CsCnk8XIeKlqteFAFh42Z6YZ2DeCD+Rj4UoxDVo+epagRubRzyETWRNIIi8OXYNHpTX/UtzBnM91TjLVW77cYEqMth9r4/1HVDlKdLgKL8xzcUxdIDj/jFsW8BtjSktM/5olmg6NCIbqKkhfJQu332N0imQ8i8or2ZzlvTfeuOg/J7qVCI6LUmApLvgnQvIKFM1jcYvjbTQaaP3hqK0t2d6ayWu+cVSOnpIcaKKiHkgLab6sLJwT18HocZCVgmS+KNK46u55nKFwPIQun6mn9JUOUslhRtpH4yThY6zxNDLQKUmMyEAceWXPASsVUhJ+cqDaxS8AjdfWtZ3zKwDCd3pSrUaWM3FA+TNa3ATnVWaoOuvUs66KtMf7pEga4QwGjJ5EuKn64+xg5IAkb2jYl69xoxKp9205d2KZCeutCWTNtR0zD8ddk0Hn/0E0fpU7S80+eosln4vJ+Cs6S+aqF9Tzs+lZ3/PZJi0TfffCP/l5Tuq5zvwcSniViN7ezrr7/2SaiOgjSJ549CtUMj6kRJFUdptNN/LQlo982uyzz8dCtZttaWm1U9oFvrg74UZASksR7FwO6BSnfi5PCqcMhccjusKt/XOETS+aaYHDXDWAFt99ay6YbpJCDu4Tezoq97MnG7gwOrBKg8BSarknDJBUOBHSeB1lwy474LcZy0ulOAD3Kngq6X9S0DiUjv052i24G0RYtymifruzqkHVqBnfahqvsY3qrORkKBeWnVMqwqozcCxm7lQOfuDjNdWz7Feqxy+qUEdJMjzCXKpxpiWVWzSmmItDBmDod0VRm90UL0lxJuWBSlVsYWLGQfjYhk9WAqMNpo7IbA9kGBKVA8vD0pBo9LjjJmMwV/IPZRl+YyNGC7LKVVr+hEzpstTCV+0kcdGrElRX+75ab/7tztqqzonaq2/LW2vQrI2imWSzu24wKcbqkNA+2vi3Xmhdal96qWYAhzjHl2tBZkIMmmOEPSdS0dVawr8PIOmb32MFPsWsjyoAbax6QoVpx8ZFw1dpWqYcyC8pO3JDuG7MmE4y5XHJMuD4lSB4RB60im7yOlNF8LKZjWPnierAcsLVpTzHzwNiL2Qf1kiKfPll7GS0O3kTs8rViqIyyQkznBvsSwY0okGNPI+VVmtyXrqbzvUWTCofppVBn+7CPjaiqVZBi/qOGlRTi/kIUpO3Rb3ul6pmLsqoMev6g7di5WjHrqESnUJb9rUqygnB/84AdPGfXIvE4acdObujsPltWSYkbVM+e9fbNUAXkkfC+cFOAox5VUZx5dugtqB/OCckTfSGBO61Ca4Z9e+rALFyH2F+y+fdRyG+WqWNK5gK6qmb32MEslD52+uiot6VDyaJMMKY/lxoOZxQqGaLpqlhx4qmG8kH8nvFn6QvysojBKJwJV0iirJoJYhLExIVv82+2jLJwDDAuCpBXPO/aRKiA67FBvraOrarARsLRoTem2ZIXqOrSeYpPVN8Eb6C2u3FZ0wUCutX0laAvJansr4VQ7PxgGVX3SxurOooxCttELPGX4yUe+ug4Gviib5jNZnEIa8SU8a4kiNxQQLgkHGeltAGmBJjsFNs1J5uv9QqiFmNIu0bIETE4Bp8h282kMiZNGVHxzw6NLypcWFDMUZEtm2Z7O0gKk1V5Ku6rlwPFj9xSQr5fjV2FuoQWvUrilDA85lpoDC0Q/4FUnUqiEav+sUecCLBLm+3SpbeMUkzViOkvJo/kYUsosL0GwwNpxOFkFqRH50W6EN2NbsGRW1UalE6HnpuuBwLzkj/YltGe9zJ2r3FzYsnt3E4e2YIevcf5fFVGWOMdy7r4Pe8R32GV03W5gTMpsWUV+4YuNqvzRRqrd3ccvv9nNct34UgQx8ypFPuoEfRWkruetzB079WiMOfpTbaM3OQV2LnHrI8nKYWl3iJQEiFJWX90haYePIsVwh27y1yPiFyPKinubEBoKGHZeAiakSXEFVD/wO/G3ohF5Xi15ugM7zc27dQkIQr/V7luT2SgLTdOaSB974PixewrIt9dMLaA+ud1XPZSEgoIhFghOF0O8Q7Y9D43N9GGVeSCJKVCUrITSWXl0+VGNms8UWPteEiAG0oPHq+CphMTWR/BFl0FYq0PpJsjfSlJjCoXr4Xaze3cTTXTaDu44wGZmy1lJYjMpejJ4sMsouskjPJ1JSpNKynAjjYUw00u4eWWGJECZLklxcoEM6Y/OEidYMpa68eVYNmSMro+IG3seyGYOZ3WHuLmzC9dX19huB6xQHzv2UX8tBEDJdmBfKRn4khlQNOIPtnRd88YdQPkJmJO3OwWiT/5OvEIjrqXD1kpzB/Sq8kupjRZScgRNma4Kxcm6vKrAqMIUMhknqeFdtsWtZNXkrY2wy858cWtRbATUh8/VXZTAjHR915Xzfh18F+5SImMJEcmjixJaFvAn76pgRZA7g2mT2cOi9lCf8iUBFuZ8eJeXvCbxzOyCc9MKlVAv3FzKWUSNTTwOfEEraC/ieVPklG7KcF5VkJRhSTeVtFTZUg5f1QIDWzPCHSfP/1x61dNXS89VaOhydN1k7Krcq6vRfcoSVy8etq6srpLVDljmXfbtEpyrJqARS+bf//630gePaMvJVdbVSunAVWC8nXe/sxRj8Qj74BB3JuAgWU2WYV3dDneAOT52bFPlcBgB43Tzv9GPhNcH3pvLQBYEUC+tohFF2gei+i2NKGuY9bTUCmmGSg8Pjsy1kFwzLrMbuk0eF92gLawYjOcrY7euU9wmQ3Jq+L4TWmaFYzl0ccg6wC5LXZXSRvosgLo8V+ujNj2l2iDLLL5DyFkwoc6M0qFRm0w+IzYlMnxEJMO7evC2W0Hwl4QcVgTPsTDNnT1KG1fxfVV8LOFdHfhgI6FeuLk8aA6nxmHMHTm6CS3aYmt0QSW6qSRNTh68FVJgBzGtu0OeculVGcOTyJSqdjPkI4iVekoLEmYZWumy2rqyqlp1G7HMRbGq9zn8zpdSqXXA31LGPBvSXY+UHbpkejbkDf6qBrwpMWlxKMxnMXbg9FH6aF8LyZfRavPTSDHZyOB63MF0eOTrr7+WUbLpbCp+HCo9OASB5wYTmssShoQf/vCHD9ry1NTf3UZshdTrHh7O5NnqLDuOi63LIKNEnrF/Kx6ySDV2k1GT1OpTKySdt+prXTGj1S3n6sLTpyltZBwFCkafGtGi3z7gdMTHXgo41EbI2W9oinqMUhmFis3oFyOS1W5Aww5FKsSBZFWHGxoJvjGKbtB5MoFjTQ2FqNHqMqjWvoqH5rs9VWXZcO41bk9GuKRb9XRKNkHPfvZZsp6kLaoSJqOrKjNthFEla4+WTSZnWtHGchU8Qkwzo1YpsGd5OtbYrXX3CGLVMMNqqmKI/neyV7r3aSlu+R2oDarYWhqr2aw68MAbi+q87kZZBUhNSnSlwlHIOWpyt4bLB9q9yanh1vfjgGS/ABqjhM678qpKsOFjZNmzyi1eGYVH5Kw/8NJcFRx+1/z3v/+92sHSyLGf9jeaAU7lo2YLajf0cVTDN9cHXUhbfK6dyMMUo/1llAPq0pyZs9N8rdB1fbdDaZGlxWh1y7nZFEscQZmow/SpES2yXeEkYzzkc2vfhCpM8BXK9muPMgvtFQRQ3Tosmjyj8k21Y2oABQUmg8eHdrlGJss+WEFuYigsS2WkBQL1WyrVgUoj1hQdN+9BZa61j6B5Wp7uWMtVlg0ucGxPOgLVDMyTqp79dMnKU661rNB35xBlrvIRjCo5KbRsMjlTQzkhczkYd5PSQF8LpqsevR7n6QAX11pmINrnqyAfbukoYChLtQqj9HzKubppSjRyII06s0B0hVtPLYZg7D0x07KlbEeEWz7y3bErlfrsbpFIw4JqLfxSAf5xjPLRq7fA+5JAhoqxD/xrITPfNfPy5mcSXuUaWfJdMy943rx3lLavavmORpw8ZBoVWlg4OhxWPVEYNX/7bkqR6oB6Bq6FQUI1uq7vdjBatHUdHXZEajKODaOH/FWoKuBvnSK9SYfixjHd5BmVlNnQ1FjOKE/d9EF5uB3SgV5TDvCKZ6uPsAR4WPWFZSoZAskrATE3Y1vV2efBqig2stSGc7emHUzqc73RiqGTgy4ze0pXMmakw77pMDsTdcbluXPIkMlYbi0accf2Wqon0YKYLPkmLofR3aScZagF05WwiJAdq35It5bLIAQ6n3GcrnYrsDkKiVRcf9i5utoSjUAvTQLZkDvvUWZKCqpdQ2TIC724Sg1E0SIZo0waGQ7k3ZRjix4Slzy1M6ei8NtYXQXfwY4xVD7qr4VIEkBVA/aqCmar8W9/+5s8khzy4FmypdtT7fyu2VcWSrJFvv3ML5rFa9/RiDNRJalQKXHSE85VtcVM1Cr2+sS2BLbafbMsGbV7574hSNywG9fRbgzd+i+JkFEhcrAcfXlefiunT1oyYnr/VU9H9cS8zJm+jW2V8quYo/QAD4sO0F4zIEwaTutwHFroROYNHnoxhTHtdDEpb7ugQlqbT0or9p3h6cp0Je6bLlu/6XmYZ/u1YJY+xXIrj+JoOba9IiZL2m401ZcG+lqULeBxng5YlS4TSyV7HHacAm+ZH7LO+C54VTpSNBl9BM2VP05CjmbtO6RRPbv9LcTTi/JN3BeofwsN8v6TO3VL/rF2mCxrXCG4qcx7/x5AgQKFk/3vXbw3IEoQ4i6hxEx1y2gNlM4Is/iiOYXoRz/6Ef7p+675r3/9K4Z/7AXP+kfNDo6jWpsiKawqKc7s7sZZqva2Vq+lvSWw2n75Idxi774+XXAsp7gq7KnOjjWyz2SRnFmt6N/FZ0ZPwNKtAjkF+ltKqJkhMpbl5rETo8M02sicKXzHDh7H4WIwL5a1owuHnCWbAum5mZCGRSXZoVuhP6V1ELubtNKVGXpansrAvin5ZEh+q/NCprWcouSPUHzPhE05S9qSBQAeHbuFx0Wa5tVjJCZxgBoMfrZjUewDv+UawlIevdCyJCm1ZtfbFXruquzRvdaHMLutOhLwSdS2Us2rMFMIFZLL1biCLRLwu/N2dXZ3o/gIaUEvIMV2dLgwzEZtpwn/+Mc/umPxubcEQLlNd8e+RIfRv3eB63gCyGvF+bwvyAOSw7LIjC+aqyhJ2kFSxVXNap9Wo+QifFYv92E/LQiJSZ1GbEGmtFfZt7VlmSN1dreZspYtZyn7KDicebQK2C4+a81RpuvSE90OVLULzm2rfQYWu9WOnvPe37p2cL6qZh5F86GbHeXpzmERD/CjqsIKH49DPWdqbigMnHH68q2dhVQdF4scJHjA7i55JR5gEaKCpxdlSSqiDjxiCCGoJkOrVLhkoHbQ7qkTocNWrqTc02HUTNiU0GUtQDIl8hhdvjzQnZEduEjTC5jHSMxMjZK1eYqzo7uzdwbH/KJ4MFvXac/z/K+ipzyCqtVrfTcg2VK+zDlZT1850ZpuX3vXEJmafNM+NTZJhnX6r0e8f5u2gyO5GgtKN1kEfsJVsqHvmgnItdWaPQxGezJshv4iDWgyibetlc+oLTf0x0VCiSj9BUapqjCzqHA+9otmwaRPI7aOzVl7WamXiC9vmU8fluVk6bPctDcQ2IqcqmldeqLboSr28cbJED1gtc7PTp54t64dpO+hzDP6iTGFc3dxWMRJh1TF8ikvzhhDmnqWt4GMEqQbFC6JALsE9EypuqfuIo3qPNOfqwZhg/9PLiXowxBCUPlCSzGtZKCGaHdFcvURQws/DG0ZVYHVRiCfFog7uNFsaiCZJhwgKTYO5YGqRXpjFn7ofP7sXeU7HmSaqrAIOMu5eN071acSLQj+Ml0DsXtulmFnkWAu96YbkKzCK43VaGRn0RwpaLJga82+sF3wR6i0TrwvZEsJC/CX0EpfwGTd3uxTVnBnYm+5oFLDafUb/x5A/r0Ly+elH363Dp/iSsy08kC2aqQbAuxjv70tsw1bhAREUv3LX/6idCsfffXVV9Iou/MnfyfepxFbx+ZWewn0h7RU6ZhLipKqbjv8kk50MkLmcU4ltA78rfYUyU0nYUxhNNPYDTJ1pjI78Q5JdgTYPvSguVKbOrTVh9AWHw2H5SN8xwHKQzdEnrLAnXcQRLmTAxVITxoz+Y2LOq3jZwQKXFWeqNrYRb7sAIURyYznSYXTWVL5C/2eGYL1SNIEP7ijokQpbSmRh1166tNldp/CwJK73GRjZi/iIT2XIlQWxkkXAc6VZl2qdFITqCphgEmzXQCxJ4llazx04UJglLf80GKpPbpTLOnAGuB+xjOzF5pXr309yG47nAJDWheRaMsrnmyps0KOwINvw6bREP13An7IX4Pld83dsvnD79aRcv3y5Yslh5CZ/eR7cy2gpDZA4JFsbfVM29mZv13RMur9+vRpxK02t0rJe2omu/n2GvS8dYpuLRfYDU97KhPZBe7AZ4j+KI+dUD5tbwk8cEq0I3m+Z8oztiBKtcr6WNBbErF2IYhGpahtgUxb8OtL3Aysj/IgsKxNHcuKKNF8i4NKQCgn5TXKbpYWKiDs6pLvNLmoRRq/dpzPY2nYrP1cDgpntxHnFSb4qXwC4vO74lDEJ+Vv5cq59BDGO7jX0tKU78ZThIE985Qy7S2Ih5ST+u9//yvDF8ZJVxmZCyCkfBN/Xh5RXX2kA1ZlRtVd8ldBEKUZxSln6cn3LhZYhvpkqykde/m3tES4ZCiQGWRtPhKWQ/hLZ5x4xYosWiAH9KLYcnKxj5rQ6i86Y5G2/gqtmIwV8YokadVqCTlsCi2TZZSYDF+/jdVVKBjb8oNOqpLB+di7dWS+ZL1362rJFfjlmwJX63jb8siHtP/0pz+FpfYLiegpRc6HM7NbaMSsUFaOr9k+x4EIdPfBe3ncr9VkaBkPTe04orRKjaF5lwDOGYfwMU69vDq0CFQiP4VX8VrKsllYOQsaxzxrgcjSJzOqlTQstrNPK+xLIVk0HkMPUVHe+Cg1rLYQWEpwLCuiRLqnOle3kXJYGiox35WGsSysZ0TJXBwuZToq9UmB0D9FG6dWB/5VKFKCEqdfJc9UJeiNqfx9d8cQn5SPH+yrUjche5oxegvJYkUNLkBMJzGAMNhkY6YJ0lTKMuDnY+kL+gCElLZDOjqsBsFh1KVE0iPIlJHDVZy+suLPTyFW6iktUCa71idLGKhepWqqPxUrXwrClms1r65uaSwvJIoLYN3r8k3MXVVyhH+K5FWcVV1BWSNoCElEVZOlM61+e9ZM4hYFmP73LuJunUQFL8F1/9AKO3w44aUsRinMsLhkrbWWYTpczjLItD/+8Y9X1faKejc/2kIjZoWyHeLRCjs77/GfLMgO7zQzx7klJNEogIdDc8YdM9gazZxRL52CcWiMfMVrKcumM26p8ktiCRatwsToAkc3Bb1U2kJMjEpmM44qALt43B0dLkpiyCQDCGNnrjRSE/lhCYMDZEQUbuQZA6DlNQ4XaUsEYiIsHKkzSOUsYSdFeJpVoLAxz7QQyNpTaeSgJ0Eupy7ZW+mzCqJsuoxSp1Fbk1vGCp2ZlIan8Eojg/DANpqCD4RTNnMH8V1GV6uFHieRxB8OI1NqWOomfW6mEcWtKRvLPWLrsipxs7eIYtgTs4tO8s/LCdDMRsnGCNeSRrzfC11/kSmr3keDyeLK5VtSV7F9HWhyiw8CjShO108B+zQ8KRnsmKSXku6HGsLyxN06gUKCAclW0EhTceYsecQvoq5NzicDrDUXLyT+7ne/a/Vh+5/+9Cf5WTaUD/+iWUAYoxEfr7Qy12YbCf/ZOlaJ/ssPKikmrXm7ESkdJCPouqXrX+9pma7sY88vj4SBHdsuOF1LWwZ2JQPVx+ubbqnRMrCMipkWC/OV9bEoZvRCpnmGiV1IGi0W9ThvNmPXKTrUjuEYwhdr3bAvFeCQmSuNIpbK89hjx7/UCmOFRoRWM6IgHG6VmhUCh7xcqpe1gOmTxlVpgeqRo3R4VlGb0gjIWvmYmmjQjwshKq2DCfDvGSZLNixEJki0w3QVgyQ1WWCZXywltkpLGqvS7Sk2kxqmsY3Ge3g6CRjAlXJDJE0UkM8/Iowp0QMkJcAcW9UxE6B5xr7Rihe6wQfiqby/BlukrHohWzLvS/wgTZX30cQ61DNvdilPdkNEZpUPotUfQlh0/94FPzv9EECU9AjmS4hC5VNceQSSkTSZIvCTH8kyRGKRvaz6DoPgCKRIRAKpnZp4V2y/oxHT+rJ1/n91vER/353e8mBJiBZiYj9ncteZj0vHEVExeeaUUoJsty61wg5jJr/r01HJikWtJVaaTNPsQ0ohWYviwXLsUISknS3HibSPGGhRbNQLpUXS4hNiUS+d7qnlAB3SgHFrkg4cioQMdsghp+nDHzIxVkShNpoRBYHQTfg+CBz1cjXAiBXLOyUbVCW0GukRMiALM4NMSvlyRl1F1Ja2EB+SldJnJsDKKdIWgA/EdpDF1dlhDr6XJMmyJLqq06WNklcRFaiGn6J4MhrxBs4OTiGRhB9EzzN+0R0H3XjLT1IcEuZtf01C9EyjS4ySzAkkL2ev+FsF01MiNBeQb4gBPUL4lDin99ckWmCL75hjnPpAt9ZfoYWxEnuXh5kDIpjMi2OphDe2ugqULEP5UFQeyX7BLYM9JchxFVGykOWIUZ3ibRoFBOwaEiTprX8aKI1xFdHu7l/+8pfY2uSyYeuCp0CKql7KBgSqXf5b9vyORkwPY9nZ3mL5qjOSZa6tfbgs01nK8qKav7Ce3eoNYTh0dByS7NZfBkoUDSmmgzykiU6UWFxT9WmmA5FUzGSfMmwozbHEdPWGXKwoP4T5ks7UXDcwncvizZbjpN2N1dBAmShNqnp8lkhmweMwOcXTzbXNmJAalcpx2JKKypAcBbaEGkCtvSrFJUYmTskGpUpKi2gL4fx9SfaFo4jlI+ZwqeBXEbXVeREGgs+BX0zGlSv0AYwaXctVE/RGTCHTyckHYTAZ+fp02VPMBWwPIFzVTWIJIIDdwN8QkBZ3OqrOMtQISg4MnbgGq/6kXxRtSY6A5OICv0S9VHOoKm7FaiIrd6GqmdpInmTf5JeswYSw9WSUAAAMeklEQVTXYqZkBQHq9P4aA+bVL+tV76PJUgWpJE9XbabKYjz8SMIPlYxEZspfyMqC1R/1K9gkgLFOy89L2RJ36xCiv/jFL/DD73//+yxoJZDYyG6HA/u1ppPEIkyi6CwVwq9+9atS+RRS9Cz7fFpL/6Nm4xFFSevpMW+mdnccF0u6JFOgKnPhHizTVaeoxlkVw9Zwo18wkUgezbmieYleVe2sUVHMKLBaiXbHdk8mM7FHG+kOxcyqH0voaKYiSkZV0SilyaTUrRUzHKXPmAkfwi11U9dlmIhwddWmYkbJqSFD+KQDU6yMnuXwFLpufCqwD7mgipJPgohKw2/UhNSiVI7d0Rkm+GemxoxWEJjpM6keZErYQA6OBG78qwggJnFTKfNRtf9oI5zFG1vGFDQ6CzCRM9IBKof4f/XVV9Bzk1EpCJzij3/8I8LgwKRUAHPJvF++fDk/O9UAOyMuxn87wnUo8OgC4VzIJS0s+YaUyTqLbkgaiFKwQhK6Q/v1jAL2sdlv94fCovzlZJzs4NCQaQeaS0Vxueala7L7a7Id8NrRhQFT6q+0iJt4H40MNQmRd/2UlR+okimTvI2fJT7f1epqGEhRhwCQqE6ZRNnLQKpKxj65mVaVvKRRFjsiR3bYjHWVK3UorqTDq+eEY2jLWwp+2pzhKevx5z//OSGNCIRT+jTivPPSY55sD3/+8599MkXOb37zm3Rs14vlysmIAJH5hz/8IdOnPJcaD5YluyHT/fa3v83ki9rVr1TK4TKwVEZBTyR3McmGt0zjRl5OV9WT3ZQDc+mOVHhLE/TRx0qfruGKYpiCdimiumqIKMrRLerqkyGvw54iMBQz2SzlP4e4M8GHVluw8qltlJzZQrcODU+dqDt0ErpsuMDOCBkNFYhKzRzVnMqkUedTA6JSBSbjU/yYLjFltZYeqbakdomeQ+FRFYjGVLF5JdOJUmnVrUTRyvIolS9Qr1WeCmRiZ6Kra5T4FPJRAi70sjI1k+FuQraqA2kR/C5w6bPJj9XZ2cj4/MlPfoLGZzk7cQpwEM4FtIsExqolr0NhecrPOeUqBN4T3EkfpDDKWQuqjr6rtgCyvA+VFFqKIL/iVS9Z4Ihk+cJOIvnXv/413ha8hBe6bpWwxy4v0SX5U/7P0/tk/dCd+qkOwl8gWwpzCquFs4BP5RQ5VIc/ZcLCeSWMsWXLfWFBQ9hDiXPsZbJ9x0WwFOoUq5/97GeClSwZ+QF/z1pgfI+csDC6dFESXYw9qVsETIFU3urJz8hCUsMEpMTwBI2oO2zo6Y79w5KdjfPai9HqF/X24QJa60jQCu5Wf8W01hDRUylt3adBRRNLkHSJkq5iFvy7s4iqlKNb1NUHVrNbVz2jQCV4qjjbxWL46Ft9QmqfyOKF0hbKt08kQsSJXAi6Q8sZWyuo7Flt4XnbJ0fMJN3WDZ6qAtKYTm1JlS05KeY+c1LJ/N1Po8FWVY9HYnm6RCBmSc10419VOJW8UGHOlcrf92u2ZBYuZPlhPiqqWLExZa+U/UsXMvo0nUgUGE0go9Ol/WWu1OTDs1MTifyU6RYvr10LDojgFDmf44h+LBgsqvJzTlzCknWxY4FbNOn2QakpGPKweq2q2bqA5nIgBMiyN10VA13k2YEfKsp9Z5xvxZDdidSu3kxP3sCQAJNTPWPsRT1lhELoQtRsYq9YTc7iJVaW0UZ7N7lyhApB0BBSDL+QTvCRqz8ztahdgRfqKVihxhbCS7CS4MG1TWl039x6IfPXqirRRTxlDQqYAqmsTbwtk1KqvBy2VoHXkvYtjShrNS3oh34Wg5XheApQILYqvBSSDuTP6Vhdcjpj2XNHS1XmpsaW2IXtiih5xL2cHpFG/McipnyUtihPy0epMtnPlnnRhztxVX4qttVB+ijWUZMsStme/WARJUPIvyhaGQ0sNUytbumZEkBdHUSIEhvVKYiDnd1LC2WLShk+9okwkNS8fS4MlImMwVBFhhHrOxjIXiinC0juXmWtKiCNcuanQ91CIId3yWfkQE/yI6sOFXTxKoGip7iPls6bnDpI4oF6jgZzy9FpuzidzkqpKMtYex8eFGXIgdsWQtBwMR47lcmkdNDC0DKCLFHNwGu9XzSKmukmVTjVyD4omRHrHiveT32xYwW5dcMBhnDdfGCWLJR6U35+lbO9rIWU2n4hzbO4kkQtx11Gixgla80de7cNlHUqrqF1Em9i7KvEmA9MsU4oszQjSab6WM5C0JCvmNPqV5CRGHj8RZTPuVtHYePIagz559svmU2oIvbSCkomkgJSMtLHrscW1P/3r3/9S55hWeLVx9DP8tctJcvrQ0R+Kjn7pzxqCZGewv7+5z//4RS6qPLp4ZbqdJsaW2IXtiui9EfyGiR1mXTmf5m700e6TDxNQyUbK/9U5kXnbocsUMspLLN0DaHYrj7oadHKaCCn1h2RGT7U2QhROoURh3SIqCSZQdL6UEnhmIjAyg8+Og9vBd1jW0sp81HrnzOzU+YSIQgMN4yZgatUWm7jbj13K3xMPiZa7scM/+yfcv9ICkTfYtQlK08P25hqInd5zv91lxKKS9RIFROnSHmZXjYv1X6qBXWvzH44UB32ojZ4CVUz6yQAJCzPZwMHyPqQCxeXrvDQ0/e2rgWFr75tSXv19tEDyKvbO6M/9w45HJ38+mFG58vHon6bPIhdbuOMev/3v//9b2Z8jA0EAoFAIBAIBAKBQCAQCAQCgUAgEAgEAoFAIBAIBAKBt0fgxX434tv7IwwMBAKBQCAQCAQCgUAgEAgEAoFAIBAIBAKBQCAQCAQuRCBoxAudEioFAoFAIBAIBAKBQCAQCAQCgUAgEAgEAoFAIBAIBAJ3IRA04l3+CG0CgUAgEAgEAoFAIBAIBAKBQCAQCAQCgUAgEAgEAoELEQga8UKnhEqBQCAQCAQCgUAgEAgEAoFAIBAIBAKBQCAQCAQCgcBdCASNeJc/QptAIBAIBAKBQCAQCAQCgUAgEAgEAoFAIBAIBAKBQOBCBIJGvNApoVIgEAgEAoFAIBAIBAKBQCAQCAQCgUAgEAgEAoFAIHAXAkEj3uWP0CYQCAQCgUAgEAgEAoFAIBAIBAKBQCAQCAQCgUAgELgQgaARL3RKqBQIBAKBQCAQCAQCgUAgEAgEAoFAIBAIBAKBQCAQCNyFQNCId/kjtAkEAoFAIBAIBAKBQCAQCAQCgUAgEAgEAoFAIBAIBC5EIGjEC50SKgUCgUAgEAgEAoFAIBAIBAKBQCAQCAQCgUAgEAgEAnchEDTiXf4IbQKBQCAQCAQCgUAgEAgEAoFAIBAIBAKBQCAQCAQCgQsRCBrxQqeESoFAIBAIBAKBQCAQCAQCgUAgEAgEAoFAIBAIBAKBwF0IBI14lz9Cm0AgEAgEAoFAIBAIBAKBQCAQCAQCgUAgEAgEAoFA4EIEgka80CmhUiAQCAQCgUAgEAgEAoFAIBAIBAKBQCAQCAQCgUAgcBcCQSPe5Y/QJhAIBAKBQCAQCAQCgUAgEAgEAoFAIBAIBAKBQCAQuBCBoBEvdEqoFAgEAoFAIBAIBAKBQCAQCAQCgUAgEAgEAoFAIBAI3IVA0Ih3+SO0CQQCgUAgEAgEAoFAIBAIBAKBQCAQCAQCgUAgEAgELkQgaMQLnRIqBQKBQCAQCAQCgUAgEAgEAoFAIBAIBAKBQCAQCAQCdyEQNOJd/ghtAoFAIBAIBAKBQCAQCAQCgUAgEAgEAoFAIBAIBAKBCxEIGvFCp4RKgUAgEAgEAoFAIBAIBAKBQCAQCAQCgUAgEAgEAoHAXQgEjXiXP0KbQCAQCAQCgUAgEAgEAoFAIBAIBAKBQCAQCAQCgUDgQgSCRrzQKaFSIBAIBAKBQCAQCAQCgUAgEAgEAoFAIBAIBAKBQCBwFwJBI97lj9AmEAgEAoFAIBAIBAKBQCAQCAQCgUAgEAgEAoFAIBC4EIGgES90SqgUCAQCgUAgEAgEAoFAIBAIBAKBQCAQCAQCgUAgEAjchUDQiHf5I7QJBAKBQCAQCAQCgUAgEAgEAoFAIBAIBAKBQCAQCAQuRCBoxAudEioFAoFAIBAIBAKBQCAQCAQCgUAgEAgEAoFAIBAIBAJ3IRA04l3+CG0CgUAgEAgEAoFAIBAIBAKBQCAQCAQCgUAgEAgEAoELEQga8UKnhEqBQCAQCAQCgUAgEAgEAoFAIBAIBAKBQCAQCAQCgcBdCASNeJc/QptAIBAIBAKBQCAQCAQCgUAgEAgEAoFAIBAIBAKBQOBCBP4fGXdH/ZX3i3kAAAAASUVORK5CYII=;" vertex="1" parent="1">
          <mxGeometry x="45.13" y="30" width="564.87" height="82.61" as="geometry" />
        </mxCell>
        <mxCell id="vNEpbfYkABLHEOKN5NfH-5" value="" style="shape=image;verticalLabelPosition=bottom;labelBackgroundColor=default;verticalAlign=top;aspect=fixed;imageAspect=0;image=data:image/png,iVBORw0KGgoAAAANSUhEUgAAA+gAAACWCAYAAABNY6LIAAABhGlDQ1BJQ0MgcHJvZmlsZQAAKJF9kT1Iw0AcxV/TikUqDhas4pChOlkQFXHUKhShQqgVWnUwufQLmjQkLS6OgmvBwY/FqoOLs64OroIg+AHi6OSk6CIl/i8ptIjx4Lgf7+497t4BQqPMNCswDmh61Uwl4mImuyp2vyKAQQQxgIjMLGNOkpLwHF/38PH1LsazvM/9OXrVnMUAn0g8ywyzSrxBPL1ZNTjvE4dZUVaJz4nHTLog8SPXFZffOBccFnhm2Eyn5onDxGKhg5UOZkVTI54ijqqaTvlCxmWV8xZnrVxjrXvyF4Zy+soy12kOI4FFLEGCCAU1lFBGFTFadVIspGg/7uEfcvwSuRRylcDIsYAKNMiOH/wPfndr5Scn3KRQHOh6se2PEaB7F2jWbfv72LabJ4D/GbjS2/5KA5j5JL3e1qJHQN82cHHd1pQ94HIHiDwZsik7kp+mkM8D72f0TVmg/xboWXN7a+3j9AFIU1fJG+DgEBgtUPa6x7uDnb39e6bV3w9BNXKTiWlFSQAAAAZiS0dEAE8AeABJdgK0OwAAAAlwSFlzAAAuIwAALiMBeKU/dgAAAAd0SU1FB+YEGQgsEhDDp7QAAAAZdEVYdENvbW1lbnQAQ3JlYXRlZCB3aXRoIEdJTVBXgQ4XAAAgAElEQVR42rSda3ZjO66kCfX8p9ez6Yr+UelMiZtAfEG5cq1769iW9oME8QgAgdL6v1prrVW1lv7P+u+/11qr/vzf6+13r+bvP79//7m2z74O1/v383/WWvrzf+///ffnWks6f27/fHuN5mdyTfLzf/682dW9g/f7D/zvdfnZaS/2d1Wt9R+x/aD3mK6j8DndOwg+138u5cvJ5vS9j+NSh2NXzc/0b+Rzrz+qoTv29cW9Turhm/eDv6/Xf+X2q2f+Hzxv1Z/nesFnW/m7t2o4WYf/gbzV603GpmestVa9n1p38tfFqe6+N2n4vxpx+HtqFb55/l3zJpZDX37u1pJ2VinRotQK7uuSvs+C39Oq9Z8lbHXJM5/ft/4818scb3f0T5/9PwcVMJiMUU1NaouoD6p63bV7U1arlrCK69b2Bddsek7nSRf47rzmtV5LYE38HtyZk8+1dqZkwWfbn+V4/P4THePeBCSqY/0P1bBTHYJBVmKeFJqg/xeatMTM0bVbv2CePp6j/vsf/zHm9ug+HAKot/9+/TU2qjfDs/2rervrxx/efl/bz3r7+f3a+zXO99w//SM371d/f4pq/vb+dKffN2/893rdL4p853AvdW+uflWm69a2yvt3Cr7faXc0fK7e9uWxNvX5K63sXw3PqIv3qXV+njKSWcNeruEkTM/WyXC77tqOUJkFK/i3eotzzAFUd99pwerwUuR+K3iH1aiYGoT6R2bJ4VrweZMD6858DetJDkpBneUOt4Z3K3B4nTxs15Xbt4+9rcMpXm+BSoEXOZ1M971KLEYgPAtfs8YNnIRD23dXqPX4p+pqfU7PISh0iRJyFm0NimQBOXi+l9rnfN+TMtavmvtWfBTdzlTztlTFaThV3Uq7lS1jSmR8GadCP6+p8ZTQ3Rc8BYKnoYZ1KHBKPtel/vx/tXv76bNWu2+JVD5PtVqtWybi0KDtagEBKXNgarDtdaEQJ2fTCVJB/+gUlhH1W28PpV/2c2oLCRUcEnJ/DYEQCQ5u1/3v7+Xv1fpAGuXhNR+h0yIVkPQkNKxxT8sEouRJ9rVW80HBQyJg9tMVmgxgKsPkmlOwT5T96Vy/31iHm1LDKeBkCO7d7lzoi/XpXEUNLjzVybXpGU0KPlK6/UOqzIGjBoEeogKHmxqBGkA0gaD+W0N5G48lcYourj8BABXISn0CbtZApk5G5wR1B+zjcxq8p2pDov7UKvC4KkBq1FiA9OCegr0KhEXDJyZ4W9sn30P8guJYENgouI7Oc1IrmHVE8VKAoDZPsy4P874nDq6dnru2sOsp2RymKBS/kKDytIMUhyUxjwa13GN8daVKy/gDAiYifT9vDgqbgaeJlcXMP++iVjucAnhiBtypTiHIDrxBAWcFD6AEsam3hSqO8tRiGaKTLyNyYMss2qBaj6q3uEmzSqW4D0GDIYJaqnrnXtzPOroXP3JQDeLZvPZr9oaot8WP+emECF5ZK9u3EXVTD5K1eykfl2hzaAsYReIuOB1xI8uTkUnPWfu3n3WuzCCe1vUmmMYBNwy4ZAIdXeqGNblhRDFocYXf+XwFPS/qkdWXB3YSgh1g0OBja0BCyHucAAGXjF1M+EqhkBDP+aYqQLNdPP2i5A9a5eZgPuy1TMBCUJsFBZ94SwTKdCEPtaf14TDPgnNTDzTnOtU+swI3fLScUMjdfmt4fqqd3Z4QC1uL5Y07pedSTk+gQI2afz5FNTstvHNJIFZtYJfjmBOWPFXM7T+VkXya7FGohYifxep3hNX+TYa7+zlF5guuyfmqhWSNmdCaA6QO2Urt6buzKw0VyM3DCgY/zinW6oHvKevbqasJNXovcU7U9SmZ8p5VrkDJTEgdctDVq+YELTx+T89KgjIuSP0tca95l6tzaEyKzh6hWnvR3g/QoIv9df59LVbgloIDj73SeUVOD0iSULV4+boDpHQKMmtG3J0vTdaoO3Nlzn6X1Sc5FOJSocqFep5j4pLhWK1mANZa0DXbALtZrv+iNhWg2auqxOtwf5sERn7hq1MYary55nw+AAHq1UyBvUxW+9sMegVrvkx8527bGDGtwdPU7SG6gXFr0Aynh6KLNXl6k3Y73U+jZquPrGuShafhgEwAuZdkT6kaWp5OwiAa5Hpwg3sS36BeruRkKlaewIa5IFx2V6rJ2PMVcm9dDSwh83MqrZNfewNNpSknIt1ac1KzAsn1FXo1ShGJiwh0JLM6Kb7/Li/ne+cQUZss/gkiKaJy0+alwXbUCtq4goA2Rc20vgPyb8yNBkcXHfbq3yXZR4cUrfCzSaKG9li/vfPrefGD5yQMQYQrpr9Gf+f/oWbduVVXNjVQdMQcdwI55YGSvMxkmH629KFf9OxzruVbh2/yHInxdQE0bZONXVh5foC0SHWqCFIDrlnfeZKFWll7JEn21HZ7GbmuoZe6BjVQ8Bmdz6zzc//VKyHCOmbpt+fvQDhXclf0MKQHSEDJKDjIzmBpsQpvt99ad+3HdrEKwHTO5ad5rzkArDFw00WAlJbP/Pylok2XVUhpME3WXYEH6wSN9pXfdB1PiCc9uH3XbTk00Uq+Isz0bLv6+5+qQTWYmoLQkPMgC57KWrzppAKVJHDqaOy0grWpvyf42eJAKhYIoDEF/aQa8wbocaf8mu0jsXG3ZELVIEgTbqnFey8dOZZTlakpQ33YxQ5t6cLPqH+gh8MrbwIMCjoIIouTKXTtAA+Z0Ragyx1RQSmWwUafOz6SlIXtDQoD7x9w7UbBTYk8JcpjMO/dfydG5RS06EIxns5IBf5+2t+etjlPsYHTLRWcVdJH766HXb6pLMshsIIbu127hpcVEepdYNMSEAH1E/i5P4G2Ur4nVvzzAHiQf19rrp4gaKv7nKtEphiOwGGo1ZffOI/UyXC8QTRYf4apz7DDlck7BOoZVmi0ictAj8/PlNWWZyWgyCt1TDBdCLWgd5O45G4tTp84AwKFZSsFg25Cif57OipGfRUYOhV+akisx3rPBTBJrcu0qwI4ZAFIJvXRz9n/Gv2uRGWXUYE7oFHW0+FJwyTBMvu2NXr4Dnoj5mrSlgKyx40ddPSnBUv8jFPZCbJ/1avXulRhqQKp4SapH9oF9dQUu/VPVXzCRL5MsPZxPWFT/+odF1eaRana9nrgJ6T0zqFwrCCQ91Vb2Rbzw4/3rYtDDhTvfn1n2o/GD5LcfQTPyoFDmslXqO8uYgWkG2PFrHzvaIGiglhzLMdPUDtterMWo6/dFJBMcFqdoHYNgbo8OPYQXVx/35RUeZOemsM67GtWRM06g0faYInhahB8EbDh4AFXU9VdLoY7AQMVGDl8+jWEHdUErq61azXC7wScClu/4UJondU0QMtTqk/ayJQEuCTU+0cSKIgWKbJO31YQfmNpZxl3gegZRqpRHdYFpnZTN+DfVrbGgLM4JNBXp0bVQj7f8ogeWz+R36XYF9WCLbQWcFAc5P/Wv1p5wxMLkMrz8iR/28mYXKnqR8x0uk+TVaGZNuTQ1wz4C/oajsfTAvnlez1ScGUNZt0BDLSLKaHLOcjQixtXF2JATnL1jste3k6nLZFSbzrKggBDyZuPxgSy8x/vr14ObwwE7aMi4z+IDltvoMwkXQLxyLR+Wn44IFXm6UCiLn4lhYoPmSWEcG8XVif4ZG7J1Pi/B/CNsJfzd1Mf+Cfoo+QCrgSqTHUOUdZ0XEedz20LAlJGRILUT8GvQwEJ6coa1Pzhe4KHre1dr+nBp07MzwNSlqGFwKVEo9JglF6TBrGJYO88zAU0Hh9alaFb2ZrVfVNbAFR0nAAksK9gX29q7grDBGqgqUlqCDdVEhRX4JVoCBxdq9vNGNxJ0ohPR8f7+lPxaYxd/Y4u3m8tz73jKgVvuWOFAR7KUl9zOwAdj1SHgISQxVVxNEhQX+0OQdxHC54HqXn1pbl22sqACO2ghS1h0cxTlJjcriXhh+E7nSuZAAJhf/DLK35StpWMHPkd/CzhvU3mdyZjiG/AKQJEJSyhk39+M8LCFXCWiVXSM7OTST7uUc+YYQX36vglTuuQzjPQ+gocG8ECImg1rOVo0R3aQtGV4bDJFduQ2Z3buyjx6ScvoIZX6xoV6ViFg6B2M1m70aPIGw6U094br0lmTkqH9NJ0ipAQ7RRUqJo2rf46awQu1BCynEOJWjPF/O1cDS2Xfcq0yV6Aq+137z9PnNAkFKKwsjYApQvBpsbN8/cUkdDZGrO3vfeevJCXT5kQb7qaz9ZeTSCc1EmQagM6bXNiUU+mIjn7TXFVd10CezEopxBYMJN2e3b0An7FTStmBTtTh6A5iVfOcqXWDMucFzSClRwKsuHTLOtuRvd7MEiQMdJfm4xEKhO0mMq6qOTEmcVu/U7mYeomc11CiERMZBREI9CgrDkhgqjjHPTlPUsLp5AToNbFcXxDTqFOgFZKUEZlrHvOCtDOG9INW9lRZ1NedSjnLw9+xfcHxsC1mJL81shHpTlGoFU69Bq3HG34GvUWsKZVlQ6ZeS9TlrGgJ/+2UeyPihGafRYMWgaStthg0Aa9MoJ4AH4/buW8RIceEY91zZUYcjjsQaGVU5ip160hLjzGP2Q22xSALaCFtTnJWnPR5y1bRqGRUDPq9FxIAU9TR2A9gZe7u/Q9KnwYU0dkl0IZpHPZ7RxBGJM9n+T1vOfnCfRTwbHGtZZR5acwfRoaR7tt9LjDGgK5QhipDI/RZOZSqC0ZZ5bUQ2iNHK2turwlsb6Js/oQ/KQJGZ2k64LrEka1xQ9uFDnCHKdghDpzbnSttmCQCst7pol0TmnxrKUTkFvWvjaYLsDUWJ5UK5n8QvpvKtzjx+GVN5NTz9DBf36N84l08nxJQ8KUA+53uysHJr7yx9PJ7xNBMaPKhIvCgI5byU0+neYVawhOT/3oHz6vZvSRMuaf+poEUN+1+jL3bk1k3FbHju8m9hL6p9UARAnIdJQx9yLbC4hY7Wn++bbwKoBKHo78iVhM2/fVHLqT7KGyaEEDvVNi0Bq+dKQC7V+aECdicG4rhpME3rZ+WsYJILitY3Gk5B2WP8UNiiVaiXhECQrUbU+/8NX+7GYQVhsQXTZ+jRZKywnHWrwjtXvuJOyo1RdW08Ov9ZxBzwq6uec6fUPHuo/PZ2LXqi240pdqzvmxDv7ohnnsfd4zL4/w2GqiDYhfRWKEMnDbrDnKri/t6ppguIn20sWnrnVwOuUCYF3CderoO0eE5eSwuVFqNSANazEKfnr93WGaslFqAqgEhaEIl4AqPvXwlXrBfHd+3cFPptmkOLqM3+wLmc6ZYjd+YnvOV3tU1C32LTXXROrCgrXJfNLM9O1oLgtwKZOfBGl9ABXyxmIKkif5nd7NuSIJWQrZL8r7UAGQOAKcp3nxYE8egIG8+46c9ksa+6I9y+noCPXAzdrsh002NuhbzGx/c8CqB/TaAD4RBvr3HdTQBVpIveVdKRCWwgWUb81xb03PUYECtE2FZSBqLZY2cJ6WDx8z99kdvPd80U6UZeb+xfO4J8vw6ZEV5stOx42tQNCea7WX0P9wEuj4WYA2RofMebp+tMOzwaLsGiTThmafpI4AwARhEZjEdS9NoSgdo5aOVj3HBjwonrL1N6wIOr75fHpoj3sCWtxgwcRPm+CuTqeeT1O1mqHtSrMLJI+nUaRCENO8wfUI7kc7bCha0o4YAH11O6jQCSblI/oGPUwLvAsCEGM7oG6U3sd1X1lgvX55teoqICNPQule6lI2uvG/ujiTruJEF7vgeu/fg1I65ciNwEjno6ffSwPcKS46xkCaddJ0Rid9Rt/h6B6qCcAHhMOWx3cL25U8qAn+p/7ptGwiFRR9qZ7gZ5VuXqIa6wDIfIF1ljuY2/8W2IeaYs3y3qBo7PqNh4lOaUHtsvNa9xZi7hxPxwO4js89RCdCIhAoagx3z25wbSEvpeRdi/Mtp9n98+807IEuwhaNvfcuH01ZYGosUCc73td8+HeuUdaZOXGD9pj91jWrkWvZ7Yb9uspb1+jifKR5hB2H+not5ms8/Akqu48UpNG4Pxp91jOkpTYbf9VkNPkUlN24FiMVGCsQt5MkKPSjEBWbmZzY33fH9HYWuYz/WY0ioYhgKqxT4RwkAB5NACV/qKdMve6OcHMkqnu7Go3aJQ8VCmiTMccaFDGtVEFB+aHctxYnIlkXyqitVBGfolRgXQuu7WS0bnq4EzfYGd/b0ZFEXkX1bPVOkJIbLiPgnYL7c53aA65kdvYNAx6NH9y8n6zd+HvE6+Ydkqw1WHCtFSXxtDxaqRqe7ZZtXtuIOQcUPBK+JO91yvJO1EWfoRtHX8iBI8I4e4WyE4hpHnG2WIWsiAtSqZYmFmXy8NTsHFcENa5RofumeFNmGXI7VIOPSLwtUupdXC0tP9s987X/eZbV+hD97hXy91Z8QolPUH58bvOu53ufKBc9pwIBKqhvQ09rYr73Jp7T6SOTTtEfpz7hsWRAveDW8rOSH5uy7XDiX7Sfk0eHaHaTdvTUEDR0Avg3G1ApNcfsRHfPRSsVJ8CEHN4Undw5CYQC9CAM1Ck415oHUBT2SenhvAlaT8CTDgo/M0zNudK/CQ5r8HUJQiwji23QBFwR4p7S4LoAiFSLz7Sc+o0TXl0HtJEq81p3RHrTZLNH//YaMtUW7ZwEog/OVzUZZDoiS2/A4O2ccoeKggCxnP4dDnWRES1afY+SqzQO1qV+g4mQKhINSugdPCJJwcM9TgR5tcDBPcyYVPPipyyNzwnKhHHz0KA6CFfhIK3TEHPDIctzMgYdvTGYa6SxckOwwj6ZyOupIbwis37WGK5Wy9bvgsxP+qp6+Dk3bFNkvqYBe9f9CGFnmzWCSft6ZtCRrz7UUTJrhJF05VeRZ/dr6Skgf8J4Rl4tC705H2XqDXcn9ZRkSOGl3oQrWv9vPts6+LSo5yhoIVN1mtk9GWA6X/qG15L4X1PANgaxAPqq1ZOqpaOuKBCx+xq3Jo30wzcH/eU9OgF01zEjlMF4++d9nKPyfrtT+hZXV8buSU2oczlu9n9Bt8kBf6d1J6RmjxFsxQA/AQNBJPN01m/1T62514yU9xeUh4k4RUQxLoCgaDEikNln98fZLHanf9vyaYKETZ6LICAD6gxFR0K7nopurQoE4bVNZKjh0LvYkzCfuuBZZ9A3NvY14LtO4WxPV0BbFs5ZUffwqSV0sJ1qg1ZaPzeFAvfs8f27y2g2MqfnVhBum6joNGzfIf1daLDDJT44L+uN581jjqDaDkqAuGKtZ+f/Xio+QTmkVDyRbqcKCwAZ5OQIvkPit1UDcbgqT+ebOM+e1pho+eRjBTLVS3ChUybqF57KEW9UlJtnpyawIwjQXh0mE/yfeiDTops2CQIyHTeHT6GQUpDAjWM63rO8E09NWsH3TkvlzwG6Cz9cd/JgtJsROa2PONjXdi+KxSK1/MzvE0hGOAUcyNAtLzWUCXhQQGYckRo5K3/1iZjiTvMmdBx00tJAdUebVb8lN0v/VCvLlBMBSI0Hea6Q3ESrOTQ3syNPyUZSPUvfwcUGhJQCGA81h+aDb6VLHgYZ+Tp5OQPOqsnLTA6cuGIpF0kcb9O7yyx/5dzudPaeE7Q0ICN1VmWsw1359ARDFu69ng5gWl5Ci2+9Aiucvb8BIebo4FyWX0fLU22IpNg8FFSpnYpdBwhqLd+zTey6iyd0KcEUuvpNnq61Zp/VQTiuCMpVYD7fu9rT/NRYQv4WNQtC7yMUjTjQYoJbrZqnAW1yoKiEyuGwYgQPulBNpxiNsgPeZE3r8nkda/jjucoHktOBLHgwHdVN+z7nD70yj510/g81k1pHyRPUpogTVhn7fhIEknZYriSf54EAWRUawY5k8KawUGsuc0oIXdSMIttL1P8+b93PBCVTGiYkus0P6RyfjWugBgid9MFphFlXOXlDuHbjmcggUjczEhNFTwioSRm1VsYI2HmqN0YlSYISNtABWDnKL/yuJdKpUH4m5LI2m6UUeXLU91NGmDD9aHlWGbqBCVPPTbhB4Ma1Zn7kPRA/C7JsWOfCs0mwfjO064LkW2828UTT6dq1+rLo+kpanmzxOcQwT/6s+JS6JgVCvvb0S+7WSYsRuiUTnGZpLu5DDBJVjZzUmlthJqqRBSV4f8u8VbGQeXOJr4f8jE5/Mb+o+0AaFE8DH1BCoTL0hvhdMhuUkkkRU6QvkURCllWN473PlCfokWtjUIMiurnUf59Zx0qPFzN2Q91paXCA2iMTHNHcN6fu3GPaU+XyfErcJdxYY+YW+Awa7ueJOJ6LNHXeFZBh7Cp1jOldebI43wKdTuZQX3d23Xo48KMOQKibXqETHtb1B98OfaVjKFKWmFuWnRo8IzIirut9ThUJYU9MjcqCQXUF+3jI5oseAqo0334uCiqkI2DQYHs3pIm4zAkEW3jxyjJV6FKLrkyQ4OEnwV/eSXwSiIJry0ooyoYRNcgDXaMpXKOh4xSGTB3J5MD2nOdaU5+2fqWS86mKdZTwurjP7b+fDDBNmiR4NgX9Z0jsGTSfwlttrOqJP3PmS+9PUmLyzp8V8s/Od1SUXKtWBwCcrntDgYsYezgHdYGAHdWKeOCNBboSszaXytDA4JakgKBHhDHyZx8ThuyjE76ynMC4X88XfdkAvK3d/InoCkBARU7KaAYTsOaW4VzKlYrrcpsITFKXa4/LXJWL1rOtZTwfkKFbENVcA0h2nq7LDOGJnCSJW0gcksYPt7NPH+tyml5xenGQePtLSLgfX1eDlyCoQ3913SjkBFE5qadpA0/BvaCwF44LuVdh7q3u2ZOZkzc9564UaPuOfRRXae0QxDr7EW4RZbOXHTfyhMLQwE2DrZ8DMu7R3fGHZ2X0C2r4TiOTVFFBLXn+nRqYes8d6lgi7hVOoZ58rsBkPdga5EiDtAsFvW4KUGKvqK/VjQ0mPt8NE0MN8v0k2i4Ly61gXfXF85/ZLIT6xYk5mzRQwr7gnoVWRe/0gWUgrF5LAniR4rDjUS7f4kaRpoSQTsD4ptNyUpCClKnWbL/bw02d8woOVfc8t1WSpMLBBWV/v1s+ePtvgE7oQqbIdYIPUioJ5mcmgY/Ci3QVvFMJzU2bb5ppn2KG5Vwt8WdySv9Gt9Wwfm4NJoI1T/eTBdKkaproHsf5HMu4G05vmGl02gyX9d2ErAjKWQFIkmwKRcqcV3AiczMHr9KGSjeXcTXzx+dJlP0s82SsRLPf9RulahPAcEIpqTe5yemTeIuEGBmqoVHAaUlJtdcVcn1dJVqq6QqAA1MmKh1IezvP4gbNOkG96y2seXfjaSnKTvI3WeFJCVGwhUDDUycx918TDHF6wgp2d+p8cir9eXqrxSv33X//dO/XCPnavzU4o/PZp0aMFA+eMVdZ7/4Empz9l4okva/Q1Mjg7kYpj5J4U5TUZoQ1H9nk+DueGtL7myQNFApm4uQThCgheiL3FvzgFCxPY69uCtvKmO+//y1kIl9eXZs+uw9qYUEn43zEvyAAHhNMp9FVCwBeExBDuKhOBXoT0JYq9t+hqPFkH5RXl+qldp2LX9+1sd6VWIVjnWvel3T68ePeNLp/D6JJAAvSILUhVWNLVICeiQT9Nxn7/bWpoZz4ULRV1UzDKqYM+3Y/EWMM24tFYlODAssZ+qkE5pZqORKY7nspczhltbkdE5Z4KxRNcRYqQ7fenfSyejVhi6SWnNCsEkCFDC6+kRHncbtmUV1cO1nnQhDJzdtQf+ECq7smDDv7R8INlFQdOrjtdrdu1va2EYPy67j17THsOmgmXyzPetfvpgadzbEphU0b7rXuuGqcUBVUI7eclW4yT8cSSGYiE4ecON1ummWirjUAKNNakqxZOl9bRiE4ypt/PejNrhbx7E+et3nan8ij/u1qCj5Nccb7OKIOnexkqiOUfshQMSMzgSnO9UpQ2yMMUncjTKbdO8p2MUOPXGNxd9jlc2rxtt2brtSPIOnSbbUuZjVIX3MhmSbB0tv/GqMiolzLt0dNHo6WEbIalNogcDoJvEM8VxPwUnb2W0TIGPNyysj97bCe5RQMrWa+rY+d9rKJsVhpexKMuZLyfqRYxTVFPrVQo8Aks/smwTgVS0/ZqimXRz2d1HNjzC3VppyC3gxzMMseCFdVQa39dFiUIFbRSNj0idOAtnubtJmDTZEvBMFNjZw3lYI3RM9Oe9GajOkE1qKkarU6fFYHeG9KOMr6m+d73c5/oPKHBnI4UNpNmaTB9G+NHyBCXNB2Tx1KDihA2CgdXVQc11ZwMG/8G3fA6WTQqTpiMqd/AqvX4y9VQ9SU8JxPUcT5+gq4Ch7787a3JQZsUDKSh1LSEKQsNm/UBW/7vHc3XuPxffXgQBmAJ4pDNIOD3Zm7KRezvfbLtxdXYvyL6QNa+UMMuFJldEJFu8C1zvJqD1gHSiaLMhlGgia6NIxjN7yx+ifjNVUbnDDIuxHKT71APbWAK4dwno3vQACZNKndyLCowY/c6UlL9Dk6faXFzkIunFOLIMQ188v4I1FEMaBwJ2XxmMfP6TpYpiw36zDTvtPYNwOyXLMaKMVBQE3Zv5L20ZMaTMrodXgarYziY84AJ2RoWTBNqxYcIfVNO3JKop1ohe8iRhaHLHhq06dTsreU1I3aLjesQ2BDJn8l5bk5GvZOWMp/35UFO+F8vKtgxYGyyTKkH3ktPoXGCZgujozDdVvSMP0E6HouZsxtOalvG4p+BJUOVWz9dDGZ/g3XbhmZokN73HWTnvlq5E4Q6BN0oxLOqwLC7K5BqJRovNcta3u25Z+7NZJlDHZx8u/2WQosiID8lIlP3vX9zYzyzgB1ivCW5dHNXtEngBXR8A/nUU0wqc4ggHebgDA8bJfGU4OBlvOG3L1dGYsaBT8aTWeBu07W5MFJJpZmybvgEc/XAAv8ftU0a91NHtZIwTcfWgIkJPlIOrLBv2seAibj0aZwY/IoiQJl0+YAACAASURBVFd/tnTdrOeya5pxTHW+uuOwfPLtzCwPa93XGzgQIVTDb+eJx3SnJIGLvVKC2iTof65f/aEU9CCAM6mTGZ5M38xVKvi5CzMniNElTfQukC/gY01h1YKCXMPDv/csEnvuEL1EWSRDP8aMffXzDUl7ocNJHWpm8d/GpqSlTNI+Zo3gebdNEN7xSAi9TuADmTSU+JkuvjgFOA5Xr+VphB7yoPMuFIht9gx85xIIulcLAAA0NpzItRNylDTnROOUFAg7vo8Asdo3D0B5q8z9FYBB8SZcvH+lDXlJicWb4hAlfqDJMXedGjzGoI9fA4BQk/DXl8IPYtGajPT0eUL+MQqRaxZy9St0XvrkDbg8pID27IWnrID+mz4tXLBLbLQOz+EOtGssXIOXlSpAAtgQEKU7OCw3OCkhzrpTxqufguwC6tbXfiDQffFMLileIjHSVGlWh/BOa30EoU6qCFGaxzfLtu+mptqxTpDv6fikQowSKYCzgLZV4M9OJ5KNHwzsGs2sT9cpJKx3RGmt/1EgeBJTs9Oz7JOASPFZuj01BNESAywe/fXFlJUWm5nYmtdDlljqwRn5wOrF4A3aObTTAhfaAdYrc2e6b8x+62x2ykZzARxFSm8Qxxq0cwIyaXkCmUOc0wartHWldXfKzyW/iQunfdXJqBaLz6grTOEsjEaS1AJo4ivyYBXcn5AkN3uAofLuMPg4hh1A6lleEryNhssRvBzeXy4WqsVmt2fVxmdOAUfA0bG840NBNewNFJzQGrmD2iFBji3mcwEED1w/ffpm+vPz3YW17M3gy9thle5gVhh47wdGEBhww4A17M/zPjUCGvOa0UrCZGJjUls5B7eced75RZ1kzlUFZSk0KIHdBJV8Uzxegwkn4Ef//PvKVLsH+vIkzn53QUiQmdBqGlL4Q1f2YhPe+CH8dThAlWWVLd6rs5orqBLdPSlYQc2mCzImEt4aAuuuSrP0fE/Xw9/0hCMwxxL3lt+vniRurXkoVjfgWAcvewoH9TBESauogvMzuULY4DT+RUhibQEaGtuMikse7JAJ/CeAUTDIduOPyQa3Zw7oCgKIlIw8AU2fEAF266vmDKOEYEfy0Vn29eyb1k3pOiktouXnZPPWOpdc1IAk7dihi/EcokoaDpOge0KlD3tSLt7a9qdobEERKIqO6+CHKEEZJ+UyQdIp1WgapE4NervDS2kqidadPLlTPVQHl5Iy+QKb89RetR2WsgKaFC4reEZaNpI2WDm5KajYyh/cOPRWe7xpUm+KBRyURO3xaV0IeS3tRHrKoV8r8j63RWY39SfduwvpprOUCsp4Dt3VJdzGRyxPkBU9tT6IUDaGgAy9P/V4VvSEz+AwyXztbNmOjKvl/il4v/XZ37nCw0yZvNd6FholbXinQRw2MSCewLEHoWOXrs9qiPpb4h7OKVcCs7gQs3Drx/EKlfMw1eXnHqXyMt8tPlGAzr3XBsSlfVsnbCVFygusEQJGxGKyCeZZ6zwmJKXt+Y0BQdSldhUSrSIZ/ORaqyf5WNsUxHWgmiDB0ZRZd2iEvlFo8zMVgO5Lg66kFatfE0v8ed7a/vsUXzZrKhJn6mlTxtKxBZSP6RO65ZFjxnHfq9OMmL6wsjBE2vVzU5jz34NrZKNxUHFWBVCoTmxKHUxsjJwWeA8CZA8+BULc3t1S706lSWkPy789roN1LMxQv4D16lGyZNKi80mc//wbLWZJRSwnS5PFdsm9b1poz+8+exdJheessjnw0QMaZMb8DCOR4cpEwp/30zUU1oQeHuejVXxEkKnqexxKsWt02adbdXO6//tDtLZbvqMsAeunTqbbYrAFD9bEst2V2rrxfacupr+l2J/VEC8GVaxAhUzH7SwVdbl++9g7iu5OgeO32fzVgC6JIsZtt5oJ0qZZkRRqdLyx1q0sD0Bo9SOOdRFLdWzyRJfioL38yXGA4LH/HpTUH6ccdsHU/nd6wJKypg59UPj9k9EEKJrAgYyZ691oO+fLD/Pbp/alWDG4JsGpjGVqFlS2D9pjZYKwEiV3VN4knyTjtk5e0TQtvNvsiaqKuKV0LNnT7RbyIPEpCA/sSZN/6yk55eK082/MpnfNZ8/9qqPkVQPYOA+WyIMrifd3utGTM/ODrx25TZBQzzJ5txPEpXXu66dcTx1LgMUdIW46Tf68iVfeAY0yo/sqlItlfKB9D+hsggXXTLdC7jZ4YmdOBYYgPqcFnAjrCLBAJ0emDtZvqN/A/0OHhvpEtNejq5RIyXRNguT13N0pLeZSPKRj+CkF9Fupf01+L3i+0swqaTUhJWllZGpvc5kMKH7u5iVPfAuO7qYlAxv+t3anfx2CG4gb3bTEuHX6IIGrnujOldnTCocdjMKKvUMuanHEOOmndp7TWr6hcJrxtynhosJM+9MdyiIQI0yzyGuNPeTHAFnD2goaFSKU23qU85Y1xBKE9SdpqcBepww0SRphkjJ5Qs5ANY0vmz+jKCRX+M0/QUjVkeolVoBY44lm6vy9NJlVD294blkQhHcLKcUu29rPq0zsDPHrE1ing4uScVi3mWpHUiewx2dfXS1em8RzC0hF32VV0fx0SiMiCA/qS63iev0/YQLG0eXWmhKIny9YPJhdjc2mwicYxJYJoWhWqQbfZoXPfHpXxF4d+pwRiW/N5uQbIXYyIHgIHbfs9u/1xXTm9dloeMPdqQ+zpi8U32ScdpLDx55XYrCD+FC94XBTqHSQt+PKbiORKNiRcAh/9LUrS3Cuw/pOYOBDhvfRWF0Q0dz8r97U+b3dPPUPfX1gxj+2GN2ChDVkuhUseMIamaKF9CC6Jsi6WLAtaNVk2KayBmp8HREJRQhXY9SIh+YAhQ3QqM7jOn1mUKDqjFwZz0uLzXYkhDatgUytQXfydXC/k4qxghufwL00iKeIzA2S5tx1BxsnKZSJrrQGpM5xQj+/py3s9qtfa+7tQemmP3f9NxJNkef3qbxuWrASNeu6qghj/P0I6cKl+EStO7PpYCQBuTlLZZl1KDTF6gd2mWpN61IT3kJ1FWou18F0osohmsHFOG1MYWcJy+OkCbUEXcw0k+TwyFqMULdTrwr9EtKO+Rv4cHdq3p1xQohH/VcNQu327NRFFXZpvVhtBkgF2zk8O9NgWbkto0AXVcqafc2lfB/dmf+YhRwie84P7YiXplzCt7M0R4NdM5i3xPNFBfd9GSCuLt7xeJaaMvGb8XLuLGvKDhOK22nks6vYdJOq1rRIG2C0NlAlnc3t2ESr7y0rNwsz6XFKP5eWW1XkvSJjK/C+EkDpuoplB4LQDAIYEFxtbFdDQEc6E2nwmJ5uLdexmVmWGhaLuKyTW99lmelUZKMIkMBTT2fahzq+ceEDZkgcxv0qrEBOzROccYVZNTclXoOqmlIoTyhHCIrqRuL2zyVET5hif4lK7+slFJgwtXHP/nen0dRcl4IiFcaGZVZagbQuGEx3cvh0S+bn+HRn3jQACT5vyyNcRWBBH2HqjacjBZwCWMbfIyPkRhNZd4jhngmLTaWyAOeEy6/VZxS7NbmdPO6U8tvvXthT1OpVLcpsVHOd3lcTAKUIW/5tsd9NzDJtBskdpM9FCv8IEFLNWRNxp+TjwIJ7qWWI8TwEhF1zh9oev19Z7JbMdceC2CljF5wu49EI6F1zKB/Ely7JWGbtm/upMTpyfq0CRTsgRbWtd3XGLqXwYJMpPydaJuXsjhtrO7Anua+JrTF83UdGX58tLjXKKK3Zc1qBjNzqYNBkM2/6pimw0I8jEMpId09G0zxpAyABLqpBjJ7rrs1S6BjuuL1QA3BQoMf1jmcdwnUhFw5mquVmZGfxiVNZDkK7gcE43PSEEggJdcLlfwsH3q71+VTUcQY7gcZYTCFnhh7AhitK09W77iRx//Tb04fV0R+Z7WplG1jG3usU++zXqA5h8ALuyts7s5ZWLeKZ7fKH+TaIIIEPQfdOhG7anV0xgEPNNTmfaOt3bQH6PoPJStyn+pUL+Sg93gwyCWo9Uuk6nVlHVn0beNHRhFocm7/JNpMOv9K9kZFBQ12wTpDwKg9SnAxCq/cKGguxfSCy4Wayj5tG+2sq2PyDAKp6G1Yp/eyakReRwNSNFzhNgXRjPbqe68GL0HZI1a1vknBdixOsvaved5tyOHRVTEfUAdU8TczUAsF6s+8Csr5Pv/EP/6y7r9a2OHqiBTfuhPDQEgwyLsAJUx0KZSng0EGhJ+QumbeYQso3QT8Z2HtGdSryGqafnMf6TbdyHcKRHPKtCwlMfAg6qcRJ0aT6FOzWTEcs9JwUGNAApeji+buYjMQaP73y1UhpRyNYi2XXE9+54y7b5Y4muvx0MzUA2gwI9z9D4LTjkmlt3yAJE3sv7YclB1EHxCyZCeyCs9MzE+6jROAmFX80kw051zh+a2DzHdcEQoquF39bs9f8IpMhTlZ2Nt7vGZS/MtT1X8u7Iwmju0P4TmfBKfa0nLy7fg3xBeWnosaVxHHUDaNJuo+/FX+2B1hX/fnHFRTie+fAhy5jYAtwNZx5yHpYxPcLPTpR20Lr/kkJljN6g4FQgp7tTPDFQNRIAcsE5R2q1Xlwez/8O6ByWC9t/93uZw0eb53lUhQB3J6pqHPj5jM28JuaRTv1cyryembGvBqgwjpeI6kFqnXOdpdB77T6QbeTZ6UHuFEYbu5Dqec16EwNFjpW8xsN615Rd6vry8+scI0eubBcTk92YxKcuZzsYQ17QsuxKYjgKgJoh44vk+8aJ4RMjZOBUeWB9+rjuPp4zrSV08Fh3fNrBBV66PC01jpMB4jbNkfK/5rHRN2SP9z8OwZv1SMvreqvGSV5+GTFcNOJ4XkivrNZMhCMd70ox/dWpuxqkKCEk2AaSTURER7M/ss/KYU03N1Mf9Z2Dkp+OqyGx5VRLuOBLu4+OQNAz2E697PNLVR+v3Q8B6rgqND46mz4EfWQvuMsTkv+CE8xncRLzjUBFv4+15QAE7QlNHFGPbgp8E69BQFEk7BnwnVQUte5gLJKqmC12U4ygoUqke6ZTLwlgftPfXYG9DnayQ7NO1pf2kAzaV3aJ/EUcp41ow2DdXEAte5JW6eranhb2lypISPtCA+m8Q7vT9mFT6tFx4SI9VIlOIfjq4GV5pCI8RrQmoXER7n5TDVvmHqJZ6moIwQgUCtRwVtNsF8iGV1jBjWnDgftfUgh00ThpXegbuIScyXxszZ96olT7dNaoHIdFekoC3PoRGp9oTpOidIkwSLIYPwOfJORYiQ7mfSf/xab9d/fiwEMN75SogDfg9mPzw+9odu1Xjfq1h+1inYsKbU5VvZuJaaMaXN2CklLQzdj+zcG3NxQCukQ6KbzThWcs1FuxQyxTABLgudvsgC17nrDk3qRzp2PetZAgCmHdlZTHEN6l9J4wTFYuipewFOFqS9u+q4qPECUOTRR9NXY6dt25RumyFoZucUkf5Bs8O+vx3K4GoLSMkI3ncauZsn1t68A5qQeCtV+nVtM2CLd9OoKLbcL/GkV3oJeG2EylAkXHLhz8940RD19Q0ZW+sqFiE/ll6CIKbGUMKvTYQ7n8FNt4HtqSNEAoHQwUqpKE1WMq6WNqU3GBGuQMA/VsXUAXKDXFadXntt4QOrZD3Z6kSRJkRADpOWbhE+Skj8QdnZVNpGU8uskIMLtSAZCukf81cnnI8Gq8xH1CNDTzhmLV63zfCKnZufA8DeY80/B4Vq8dbed1ioT1FZ/th7PCHqhF17Z3M0osEY3bgydrEUSdCkQmcSaXaGnjMuZrgmdstEFo3UTLE1WeVJUF8hIJQFdBcq8YdUf4x8YFNcK14ESQxBhSPwNffE3DcJIZMOVFJGR1rXmCV7v5frtQdGXC2WE65GHIzPTa51LrNWEAZQ6kwyc3YnUlgn63/Nge5Hu5zXVBtd7LpMyHGLWoWG36nKvKVFfmfslIWl2aHVlGeq6syniSQlO3XthNeHNFAzWk/HSriHhqRpZGbi+WK9ajMyPmE+NmiifLU/fY0p6lTEjt77bczDzGZhqeas+HLw69xhKMyjd0f6TiZtTZ1NKg0+RNkHER+BBSlk2XQD/pGXSjpTrtqJx2rPEpBTcO6rU/nz2dZfv/aZuY1aVpPvOkbjZmKCY3Fy5EDUHVbZYDfS+TkAA4Zxag4xPOagP2arMgLdl+eXX1dVlCOzZSZdOZ/M9WKu1HjwJt20NFDx7yLhrF21u0I0jOxmaSpGfYUqSyOYTdOw3ShXgBEjt76Q1M6FPh4RV4z4UVwXCgpxBSk4+Yar0HknZHz1ARTXXyfUtIxSzZ+VHYp3dx70jVYdD1xfLTn3dWqycgaRqdAhFankY+YzwaOwjSeoKnaer9VlsXyuDqWnj2J6ZJlresa0kZILTzKXzc6bFPgQo1uXK7nBDBwQk/hfxzdalaiG7I6DuvVkrXIvjhhCuIP5LfUAXTGv5KTtrwIKfz8BmvJeRjiOQdiR3EsvCuWDsZHKIYNbifaa413dwkp2ZqOZidSFUia/h1LcrgnMm5nQofmPm9Psvkv1ximpTKK+zZ+h2/51FqUuNUE58MbnxYEPL5l8HIIj6kSQwPpXHn54tyQYnlSSnL7mZkgus3/TdEgMMbYwnNiNzrXmE2zIu+0mXIhBGTSAXxLLJbFcKd0lmcQSvVU9wZ1wQStzmIPZp8OxqwIK0EvVm9h0ZqDu1FBGUeEBeRT3Guswh7/aX1kQSIlo625Aa86KWnzJHTPV7FDqfssSAUGCzk+WhOQx7Mhe3O9Sn/6XDkog36cIN0uTpPGctTvBXYH3qS0XT3d8N95zztfVGezdJ4k3axAdlrOHhN1o43XPJqOxJegT9ZrrjhLROpl6BEPLWxd4l/l1aWu9OGQdKFJntHlyRh+tax68uepfriYLT+eO3C016dqfRUwT5qYPD6/p8k0OeTLlxI+a0WK96FZ+r7BRaQtOWgBnbu74+o0qCRjdzc4pI51miKCXKgnKv1c/8TAbHTA4xUfQMjsj3/4ap3bH6U+OkCzAtmU78cLMqnxqcBLs3BqiKM7M7+TjdrMjiV+ClaPATifeTlF7THoFafdmzwPxSF3/Vyuack81s9kMAUStCeL1W1kS4vhDun8sSBsOa0bMiKatwIlmNSWuZjb9ZsCRgIlaI5eRmf82lD2hgJ8NSnmrPWoxMj3qTJPgmtZ3n55kG0jEUEXnq68mbLRjSJZ78O6XdGWwgiSKiwp/r2BfS3/Zo0/bMYbCE9elXqEankWen3/EWUz1C9W7dO29Z4WnrYZx+LQvCf8mEn87M1ra6t62Q+PRM9fh1Wwks76cRv6wODi9RQR35bsHNcm1sU6nJ3uebOL6pOcj7VfoF72ZaU5SxY/hPEg2gzORlV5XObZLDvvrd/2ZEmTOt3QgQNXtjZwRvD0rBsyvlVt51/IYzimb0OxqilARlBMKaWc0lJgu6kJWkl+1jrX6DBfBws9EFHfzhIsocK7FBgVkDt3gdIJ0eRNGppLKZtOo6Y/v2c4GYRwvGRzdTLG+90YF8rxp1XoLvdtoHF1+9g3J/HqLsuwqc8vMh+pahej6chCL/33/vjqqig+EdcY2kanO94Xn0ER1m61a3rlY82S99lPO/l6yT+Swk233qiZVZW9r5PWVce4I4CgVwiERRp5LwdXv1N9ElPt/1THM4B7D1dYNnSmC9Ax7n6xdaR+Jj6a1G58Rz7/h06iHX98DHOroEelz5VPKeJLhG31TrrpyjLg+OvvwCIYqaUCNPl+/9n4RzpoAKq8qExiFnIX7SooQVHLbEeaCB6+GZXkwbTdPnu5sn3tl3DhLuCa+5F8r54x8roHNghedsBi9GA8nJTdTlGia9+LqUV61z20Hq2p3WPU2irgE4oK7Vrbuq5GXfNkFU7yeKmXpZXWJoav4HfdFjifsNqHBaz6YKoZzR26758epJuUdS8uZYktyAWWJ09sc6yX7CluRKmdY6d1e9y3bdwmydB6NHeDOFBrrP1Syei6st2LqrmStEk08KXk9X1cFJvymzudGCHZw+BzcunPJhEKmZcyARaV+YGiU5S+fNGFVaNETm8xRUYwXVR20yOPUud7PINe60ss6ax/vWUTLI8MFds9Sw2klRVadZun0usB+3xMwCYOh7zUk1GnE/FaSVUl34cjNAnZRlkPGv+5cSp5Tioa7PodtISlTrssUo1BMPKL4xKQXXkpgLN2wFz0SH67logH4XFm8nYyo019UdaEXv1B86lRldDWSp2WDtYxeTYszHeSwuo9/KuSBIFklM9fphhdc9YkODK0TJTNQ8QK2MDK4DM0d9f/CwagGl4Kp/aUmzlofoKUFz94zqBUyNMq1vs8dattpUBP06xEKiQIaWFyqXQuqMrLsGea6bshsHmKhXHILKvB7IjQsDbro4qwEACqBWlHjBCStq+lt8Brtj3qDrQw+XgivfwLG31mwvBfedy4XW4WauvFfEZdfnzne6nZTkSsoFII6Jr6k/+jrs4r8+fG8SFEtOIWkXjgkS/6nWJ70kxW2XUe8OgnKxoMw1Z4NW5lTwMYEuwfb4u1bG0eg2VWBzKYqxoOqYpqDQaaFU1ZIOMqcC8diFYsABWb94D8oANuXE2fvdrkrSCPiLQzDUwXHeYUaUMSXoVAyIoAaJ5hWOQI9hVsYr2mW1qg8cP1a2zqijAh1DdZMW46c4JjCFQaS/AdvUd/ahf5XFKJ2+YcQvPvaZ3Pc2V3P4sjpDQ5VAMiiVeSiz5UwqQ2Hso/vWzfMSOZVVQKlSRkbX8GcOZGU1lOyzteL+8MmGfVQWJUz6QFF+6r1buk0igDSP5Atvv0c5nIAT2qikEfKWiuu5rj6Y6POyZdk8nFJLO2JlQkOFnhZJ1fWeSEGIII02EtgojUc+PbzPvwhggFquffc9yNPIR+ow0NSMkOlPdLa5gK9LE5pnb3piEZilhsgDaRKqByiiSMuloIncPn+bpdVmiG+Rklu8j9h1Pkrg94qdSMLndDALRiLJaAoZc65wUwq0G7h90YUsvB3ql/fUdw/xBvEWeiel8nYIUlsywfIym+RGHmuuXhFH8cg778Chvb/omtQcWCacVV3tQ8IoSqAbx+3QjR5zky5+g/KpdUqq3+vqjhAIFidOgtLw9ylrWYuxlCPUJFTyyfweQTRoZ343mdh9jeUUaOJ3E/aeZNTzQVHJgTEp1hrcmzkuq58KkATl04jA4yapcR0FN/WTwIlbU6fh/XyXihtiUlDBcbufi3wn+Lysd7Y/UZeTqzY00eMZqtHDLt9HwrFavAcnIdjrBm35fRQ4gBUo4Arik9+gCiFtIhPPqTtvCXl1d9I0rCT9WQPMk5pDOl/glCTtesyrJS28gY3WkSnDXYdOIdtnHNwQ/tn4iNL8j8dd8MLTiw+G3PWtUwQnCQ4LfoeUhE8loz8MywKBcZJdI0yKt2XoTrVP7Z2T4nDlNmpL3BsPSaQInHirn2+lcP1H86aGUF5eWSajB8maUzCgLUMSIxY8yp0mxcr98iSGO96jeHK2VthaAA5Wyo1GY9LaAr8adGwdgJzjs3R9+JsPqzLrQJGWbwM5khZJFV5t6oeWbNc2eu5g+bW+2Hw6J35C4tJmzXXw/hQoJ1riRvs+zCGSU2o0DlUDSIijR7LshnsQcT5wZa1o0rB3ZqapWBj7XvYyYcpn7rF7Hx0KTmXEiPa2dMMuZa64B3xqimI7WN+xJq3F85bE0+2/o1GZTd3CauES6nU5G0ibCTzeWghSmmZ3k5awgupqbgfRVz47oYP0sFt9+MPJTHHCA8bWqNMGPk6bZMJRHrpCwM4vrAYGfUQpN0W/+9i1I2pVZ5t004f9/rt2c8QCGJJZVCDE1G4jsifd8QBMwcLuLLsq05vqUOfL1OL5gNO4t+aAvUaJ1Vqs0JeEjv0TU183ZglVBgZRt2iqNJbDOA6KY2q/rCZQJQqulYHyhN9T6RahrxHcg3QKMKl2wDxddeNeGYdHoYyVj/nG4OtkYCg58HS/WyJm2msyHa5TgFaBQnAARFCqVDoAAE6puMZLkuysYa+TmTZriBFTDzRRzI6l8auxcZRmKlnkc/CrGQaFFqXa/5K1iJP2ewqeRi2ZbvyNp+YoycjaEwH0z1XX75mgXi70peVHrvHz0xtIj3/SyknIx9w7VkPB+AysKpYWSmq2zFNNZeG0XH2tmXm+EF5ZD0b+aZZCJxXT7iZNLjfuRA0q/52oz6X1FD6ji0+VOP2PIy4WbN4GGLXy8t39Fy4vSgurJkZsAQGfscSMjI0IWRv4iKN7j+/WmdQ2NReOrVPq/dJNiF/nwNsYp+I4am9QLxoey6NwFz44Pk+nPddwdq0O0HfP71wxDTdH02lrlvVktBmdMjyhrbfzTbvxkFJW+ucN7YU7LPA5OiswJfTQYMimd7odM5cKtSsLLxC/OWGpWS2JqqmkzIwiuHTY7sQ0r2Zt3FjmoZGzaPrNxS1pPagckqTF+iISa6BhwU/zxedQQtELp3+77WtPFA8Rbooa3mpRR5V8GlXncq20yDilVLsdkaHxUAvt3+m4VfukjjKvbzlQdIQ/r6m2N5qyDnCzo0Fqhcev0t2ik7A6MMOdNa27YYeOU8AlHTt/eAZNdAn+5P6XlQ/XU5l2r9xmFakgu97pgu9144ehQGGtcYqnAtVXg/93w3VKkhldAsWBGKhkvhj+22ROX8zgNRdDUxk9RZmG4E+HAIKUad8UoNFe5W/4ZGmDQOqifYOot4ZQ7F3Sc5HOzOzOLsl2U1JAR4hOwZFkvGS0LoLKBSjCExN6BYpMFF28raPsSA8aQ/nYh8QgwE1xhHKW6FErI0OoQBmAWe1K4q9aM+s6PQi/gaIe9zKZ76HggfLAUQMzTSGNef5bxdoyCazJfad1JRzcDhH6BnxI6bjSQP83GJ/W4nPPKWrVAVA12t7TCK8uViDVbd2wPYfH9bsou8szQHCSKz+5rAAAIABJREFU0jqyGJDhJyQ4naS8Bh/jbGIKpMg6YKWQbzPtEaFH0eDZ30GHZUGYpMamGyo5vgwNQMcWtQra8IoPF0lUE23GTxAV6i9NHKJT4P2t+q7ls3mxOpf3w8DY3c+fFazp87OvGR+bCvlpOZcMLlfjHtI9jfy7MGi9Gm1XzX9fmHWqOCdDQUEmrT7nkZD4UYNHGiO+DfTpvh6f14xsu3Xjut6oInFIUtZ+QCBOZGOotz9p0VyLd8esQf3szDEnwKAzroJC16F7tWb2+HdCNDVB/W0wShOPCTonL9t2vRyhBfF6O1ZHglzX9IEJnk1Lu79lUJwnHTuvThgGTUMKwWc+jUN1dYqwsQ6ve2p9fiNInkMpNkyZHPA6BM5qfK+ueJhRk8lAWAvGAr8xPIImH1xap0aA4KfKQNgncZJWEM6aKhME3qWLPU41EzubfaKGy0gYiRsTDasBIrpJcs2VzsUFs1UrBTljFLyEWJB9Ur0VLvJvqMHEyV7GRMoEFyRIGXHnuns24vN0h3gZBKwDhAoqozOL+y6gWnMT5S3q7dU1UTKdWe+Cz5sqEFqN+aEotC3h4kWU737oRHKhBdsyVkbUlpzxmw47RzU4ofuiBxq6t+252wLasMaEraFWY3SDAHcSgIYoIW7lpWya1DcfeJtqKm/qAJRNaMrFMYT0AaiqU/sSOujd/TpU1hG3TM95+HkHjOtWWZCxDhoAnkahVOJQRRrsN2i03IIQmNVxYwss4PIbbTWuTFhBS2B0QNWWOXzfeJlOCKfwkw63osios3zvfePVwDcT1M0LeKe2OzcS9cYfzyp0y34/oWOcT5payReQ0gSCIxirl+ayENOUeM1HcPejEFdwGhy8RU1ZvwcnCMvz0csR7KA+ADVHsvqqNZUPHMiMcaemaAbLoUxU1d8qg2QASuvzFgvESvdggjM1LnGA+ikaHNb4z6/e+5en+28jolozPWLhfSNlK1pZmdWH0qv7vXNI6cjY/f4cXZZWn5wC3TlOialdvFVNIKRA90y6yJVGFdSjx2oBcd6M0QiLn8NqgJX6Qi/VyX8OqjFrQCxTkAP59Qi18tcUTH5qSHLpZLyoHy7gCZ2+ruY5aPk3zUqnSHCHZL5XB9yAK9SIT2MYGqdDribU0qqlZGa0HzgJyBb0iHZHWeGGLiDE3aZ1M8DJAdBitV50ijYhHxNY4xOrUW8layDwm63uFDyfFbSQdZOR0/6zNPjhI0nrOmh83kPt/b5lCVcj1ZPk/zzNlOjqAAYay0zEaTWHlLEpTSAjfYwzdKa5MLw20ZrQoSOfsneSbyF50Q2qJCCYp2ybNoe9xSSLPYuM4zlVniWEvRNg/nC2gH0nPkGtcFwWJOpScE8CYkwKjfD3dEAP8QHffvEa4ZUio2o2aZZbyT7s1rqvxLgpLfob/L6/cgNUdffQYv0yY8AGe+u/+adwXR73VjbaeSLUuxn5cdNB6kZ0VN2DbmV0iqCeS6c/oKhfBwb0pEK0K4V2zKPrkP0sh6gYAOBbdDhBmZMK28Pz632tzbzLGsk2IJLi2Ea7g9jFpwkvAHF4KKoW97B0M7f96C7mXt4MiyVamlSLkTCLBPF6BEdzWLMWp+tP6tlOrv45pFLkSSfZ7H5Nz3lsyubk+lDcdQoF3jPQcg7yKPmyYwfqYoHZfBQe3pBMgkz87ZkG5N84Ql9dWUcNs8IdUhRAz/5BUtfiYkAUIy2f2HB7Mo2GWw2cddsa/fhbUqbR+RQuc/jwiw4j2hSMkhlIWtsMWoKpJoK15LHKW4eZznVMAIhUcAoc3rp57/K9rMZfeI0evwhuR7FPpgpHkpLKwSfkY+sfq7rzW51r4+Z6pvKcKmVSNePWCAXCNT9vhxbLx3gW0HR/c+6kVt/jfTGhzLrRE1/EhxO1T8/osr+Ozee2v0iHIH+692Hh1aGOVJWsxfpQSIssDe4FDyjxagQURg1982SeIgUOJuVwSjXdeEPUqUlIq6cUWN0GME47jt7WACOvi026PZjptaoZsjR5mwSscBVyT5e8Wq7vmxqw1PuiB+eWp2BKebmZO1Q5FkA5mRpIpq9MOOc0oX3KbpOxuhWoGhLc7kAe1xKKWhxlpKCAyThl+E9VD/XFiSkM2Gh0L0jX3fRUU7Lot4ZFHgXZ+QxpX+vJ2UNMdT+LXkyQW3UptnCC7zH11VI0LFW3ZOKN4B601QfV+5jJgJcuOSISgSzGBfrfHnTSGOmumDA0sQPrkDDHlHmq7t179Mnkouke5FmwUrnkOOgK+pzrU4vxHbSKU758fDLOJHuforIOzSWcVNRVfLx79cCBwNjKIoeWTi6cglindDrvx6Cc5TZwQq6KL3a5oI+gUBQNIxUCzhgl7JZBzV4pVBQLKLvfHJ+XoJxTX51OLUBOk0wowdQ38rxWHXsedbHIt/AfBwPuqqwm8Hwq9J1CkCeK56msnLUkkGxyCJxsFBRwg8SFzVzVhqoy3mEhDDL1S35jGo7gc1B6i4wzqwCfUD38p5sqvwKnLPueIi98XexJApk5yhZCJ1mNJu2gUa3vq0fbng57rKu39QSIpi9QhwCbZpwn/2Xvm3//0PGZ34nx1JsEh+8Sk9ZhulMfS1sKu3gJ756FTShSNDz/zejc1ezJ2zu9cklPTsCN5wjAol8I8KwJLg8AdQHyzaRU6XvqPZoDqC//noKWyTuVcW/rQs8WCMyPerj6fX0Y/WGaQjfvvgDo8vdz9QQDigRFrlVUi7W1GtRViwe5HqnolZpcP35C/EYETgAgnWJFOo1qDcbq8K66GW0gIC/fBOMn0Kpg3DkYWAGEoSINOC1CqgULfuOmfmpFwqwru8zChvrbAUrWKrFEdSGE5P7E6vq59cxyTfNQMvRN0UH+9FDdW0/ZWIXS5t6GkOwmQ/DW1Yk4Q0NPdSortbpQg2VwyAKw4RogH8q7VIE+y0dkF7pOAXK3VBNiU0eTDQ9hMmO3iJPa4WhpURQpgZmy6zuxkctodX7IXtJMs4H/q/7dtIWRriV9zgrfRY3j3jzHa4ZBhiihlUSSl6zT//iK1vLrnpDJjfsq5k+6vmySQHMlaMl+g5HIkQ9fg4G4ieWcvnOOAE0yUldrdE/V69n3gLTN7ZQ3viPRuM7B2MNAEy9gC+6RF3HrH6fBYgGQoXvPhF3+BFwkvj6d89m8U6XrQINb1zuedilNxtV54+9/SuYQTj0yj/3WwQ13h4G4eBMfdNkFET4kzgvoIN9JYCfWdsqX3d9bmO9boYLQ8JyTxasgTKGhKQdQygbi9QYesarEip+jn1tEZ5FTDs/U596vcqbYq8hkTCf6Rn1NEl2wqeVsgup4CgvAWbRvnMBiz7n1NcaYHWyl4SSp0ZBP31ZIFok5r/WciYASVckQqsemV9+74DKqk2DWIjMFmXNLNu608VPP5+RflHjwejOalyBif9evMLlvC5gQ1LJDIG/8Z1AZ8ZrDvP1XAqrOUAtWPa45lTHVRdDs3kZQ7iPQp0APfRBcUreSyrNzx25bb75pdzk9XHKdjiAzoTAK4o2zzA2LJXm3fOQGK6NQnLAclIiIX33TpJjS/TpjdDJctMaOENPVJRix/a5coL3PUnfxA0XKneE67EElSdzpnmnQ/aP20/ufRnIXQSgcukO07ElTymwYDQ3o3LyEBfDEYlMXG5uwnywY6hFLR4t/Xca9/EFAAMqMeslaCL19liGBOjJMUm9ZaPUS9e5WSGhHpuaQ/pmn6aEu0aKPNeV+92dw7Xe4l3CN0JACKSU+pPf3PytftM4l5f6EVsRt4OCyGyxY60zXh7iejmp3KJXdy+UUvrg7bILByI1jTco50sDnlucnDghCs7zvT1KRMDFKdyUrt2PpLrq4Xv0OTR3KJH1VbyiLhkD/rvQm6UL7FtRBRu3tYgXMKXF3bgCh7hquDYf2qE1GWdWfgYk0bg94Hp8rE4v8EYY2jqucr4pWA5/6pig5tZJYl/ZRUMufIJd4HEGAKukJbj3Uj0yMRXxvwc1wh68LutN3P/kGlBeKKKchWacKlNO3Fd/bHkuL0UcT82M3lGi1FWpjYoWSBrob2qkEMp06eN269LWPhd57hdrWWTY3BwggRMiLXR8hGvd2KVDhOqn3Pn+maE+lxmTUGI0FXA/5tDv1kOIa8VbSxzxJ93MuEKNWqS3wo6pRj+n2uYldJginDRzTypI1966AfCve8uTNc/xXVqt9gg7hWj+cYt0fjCS4TAO2G/t7nCM9+BPTgSVzwBMzdutb3GQqnZBV+E5OgToQZppbXW9ByuEaL7/DXQGMFqLwlXM4hBKFqkw2CQHatO61LvrZxbPmp/nnlmyuWJxCZE1QDhM+r/39OwJFlxQVUAIfxlxmXTaRo5UXdaFzKBrtzrkSpUd4kNyMFBpgTvPzKlCupwBuGUQnQZnrYr0cEEIZ4+GICflEXS88CYLrZtuslaXLCOlOWpZfAOwUQD2ixZEJ6r/xIBJQwNEyuefU6rP86TN1YdJtb/9vdJHelF+Qp64mNOeec2ErMY2b+3w34XBNbaDiuJ1o4q5Wn22dyGp7UySMn1JStfNzMB5xEmfNqkx27eh7LbA/E/gh8zbn1Fp9ZTYLQpd0HU6zz8+mOCDI/HA4K1Bp9a2CYQ6lYyZM0LXf6Al1KEsaaCeZ428UO0nCEFI/5MeV8a2qv99H/+rDufn49xojmRTq2NNgNcEyZ+VQMNPVVjuurH1zQSNDGP6dC3Eqj45AKd2zWnYVHUQBT91+U9Xw43/fenHVEGRSfef6uB/nRl6qHQP/8TkLlnDVrOMe7dHnRi62aGk5hFafBjGkJ7UuBbLrlXdz1m/63Xf1ZJGzxYhNdCGsFHRJYrf64jnQyIY1p8s6ln3CaGQMrZArfFNacV7MGkOZ6S5avgj4praKvNckFMk4L1/2rbhb2aFeBYU16ZF5d+NZ1r1aIGRWqLKo2FMeZIuaqdLhdYSkCz7BabvCqq6/2Y2mfXZI+2ee44Hzm/0WMV0fX1Uc5yT7dpK9E6WKoLldxxNSKC6bBsRoeU6u5/7WeB1daIDnB+QnS/69ubhDnajxm/7T90zlA9crJmR0fBFt7r/ptXb3oIzo3FmYzSTdl0ffiem3PvVBOlLewwF9zao4bDDQ9DNZofVRqoyodOQzwTcEbE5mHNJM0EfiH7cBChhTSKYxJPmUU/tOSmezlp9BXoPgJ/1yMntCwZfRtRUE8+SZ4D8M7V6sQv0yqqTW8sNZTxunRifWcqw7mU/fqRiyKVM5egc6kM2vQDgmIrpkDW6YHU9niyCVJ7RtAoAOHpRcG3SXGI3GVtwW7HpvYgIB6rgpatzcpJj0qlgTAhAnYe8sJAkOb4aIzpanDmEOGz9BvD+ikH6KdxP2JTczMqFYw0xVUNmfVGAholZKOE15ltZK8WNFwThTibw/n3RUnecbfD4/VMuXWut9ZoWO0pK2NHfcAK7DjQxT4TGsm0TAqyLOLO5vZDAu26s6ZwNSO9r5UW5hWrV1CgzVByOpwE3AucLrkMTAFfFvPTPRCap1Q3LszAipdrxoE3xlI1JuJmtnKmhS8slE0w9FVUyR0FGHmLan7qZXjau3CfYtV3AC7lGm+49Hq3vuhzGwWB730craaIieTc7uTfVGq1/S8cGd4CryV7PDt5afWkQFcgII1pBBX8YoEgNRwfcreP4BLa4blZkYz6794+1AlOvdSdZwMrYdgDF5WK08TYMuJ9SIeFrnlxYKjkmWnKQ31sE1nWZ3px4H2SxCxuCUiYzC2N1yR1c60f2fUhSU1mqqn0rGXNCp35MHQ5pFZ/k9BV03UkEZBJxPTNtdU//+ZofWyjLps/ljfdkJjOjZFtTujx4M8slYxszv2QFNR+S3FuuYO1U8lIFPx+ffyyjL9UQenjQZNvGe1b4tgSfCQnyQaUSWGmG/wW+TQ3NUfeXnmT/GGw2HmYywmOYWTlUGZWSBdmPJ//xiUMHEFPs+Q4g6JHoEVLcBZaeQd9DJ9Vw7t84hrsd90v075J1t3u3TpZwkbm0H6q3ixYujNNYzO/6+3jJg4E3naqJX9/tWdh7Pf7up7kw8JdKrVBBE6SojuslPzjtze1RHlTIjJWoqUbT6cvvUw4MzM3UThFNyahn0U089VST4rsEkmHjq3UwUIVlv+466B+gm8K5A6yQoV7fABHmh2V+1I6D6AFShpulY/Mi7J6yVp/sklKgemCibeU/TQ7UYCcMKlfFaORt9f9imgX9niSkbF5SBsH4msE/1Jon0n6/voaiOWG8ag/Zco4qH7inUKje+hjNnn+ugtT4addTEPYXNHFsHjQmuAjK1B+JJ/Yg9faSMnCYl0FFXXv6uygVk5LKsOXTr3tX3VfB1IZnR3YEjEzRREdKWsfubeafcAsXV/I2f6FT+fzPoe784cRgOBl10wOAuwDWa4LRV4SdbTjOiBdcqudb4mZoNURo0U94HSuCdBrR0msTU8dDNFF/mHHd9cTUAmEkbTbIfHau7dxagW0r6FUgvxhqspgIFHviip+ztzx5VUKJOjIVccOvk2pG9UWQ5Hb1SgdJpHIkTRlqhglJnWKee9MCReG9vkYz3j0vDphoWXeRdRs2y5ganxEJ0QtGVov+44BqDeZf5rhHdcWQU5L1up1Kf3iMl7dNGlnVmhy87Rov2piS523ntyr53FCEAu32en76aI9/vlkayrwpUEMEgp2EQZVgHNMIHGtgEapPMamOQNM4rqNF65qZ5P3Q0qcLx11TfcpvczQEABgm28iXotN4MoCcOuCsL1mYkk7Lr9rNiz+Yc1ZsA4HigiwkHxSztwIxD1qag06LVtBMsz8CZACs1rOVHBl2dd5/AQDeUxLKdc90VjjIvLy+tea1zoJgUmDkSMMI7cSy3qtlPPmEsbmxJt+Z79vYbTuTu2brNobmVx77Xs2qiTNy6T2xKJpTtCT7Eu1sMKNE3B30tRgHrBINyN62tgqx7jjqDxXIAwA0nUuIR/QZjT8qyehLwxCdvWnVPE8hEhazM9UllsGNBpRUKMvHg2A/sPJdaed+I46sW3DCBl9RbAPnvM2UFIVcZ/qAqUByCB4d2KjsSvM/7lj18n/uuNrxyK5r0vdTyHd5rPQd8eSStbE6VAsMzK70bj5UOvnNSQ2owE+y4wxQV7NwpeK9m1vkNlimzC3MsJdP6Wb+gH/Lv0SEzzh+iHXluLzA6cjO+lpgOEtCkGGctPzLs5rC6ng1SLn58B/mD+lXVAlQspPSCXj+hiKFK+e1gvD6jKK1nTvdGNddKYKeUS+AbRXFcl/oM7vdAMQlOK1iRzr08fle9sj+CRXWfw6khKKEJ2Z3UP2Hj1HYd1Bl4EPbOdX+gv+plkbTwlFlLbeugL+JqFCxSFkANqOAa2FAnUmrHHpQoyeRvKekzXeybueGu98sp7xMCmXByUU9Qw5okI0s2h6Em5V6LE+a0h4X2Dncb71jVcSPPYnU2ab1gtb2YjIkFN/MtNA/QQpYCx0dQ6HvPsNqDo7eMZjLnpD+cdaWcaGjiDqk/tBP3tgsMhZ+/P4rUTtEKtjJSm5wgGihO2GLiY04wUqKp3htafqPd7n0In8J3cQmK22ci8J9rRiF8VLXgS2kIDrpRWc4XSHyZCtUg9QMT1IWMZ6DqjY6Vm57/iqCu2Jq4jB/x437LHwO+2uvjyZRc7RARjqvgnBF/AL9lY29Jq+VlQPDMTPJWgSzeuhgiGqwY2PD37wFR2x6Un9aQuswncUR6UXd99M6gUkQ/4WYWCAks2kjLrhPBXIdy8QYl/egxd4zfTl3sZQ+0rOkWBGhmbiMA4lvgwBFdpABHGXCFKkuaIWgqJnTjSJDsgpKX6BZuGj+WdGL2rnahDV3QS7i1dvt7pZDyapCVzAoLMwW5sEc2V/jvbgJKY0bYFB8a5/dQ4ScEcef1TzDPGnxShdLwTfvuv8C/RmkTNCXc3lfE+0N90c6Pr+39NDSa3HCrOt+yLq43+egKZWqGm4x/HvjAx73eNwSzaet/h8PRv5/GEN2aAzphJwliC2xuer2brGyJmdBacSf2Mc6lE4vS2fHbIXjl3ub2xLrpsPm8Xk8+MuxjNQqq7s/R5PMjRd6Q3sm4eVo90/zpZq3ineZHr7dMvM58EqdAhYAl07sTQ9+ViqcGk+S0prVNhum0hrHuHJVakAZiDQEsrU5tfi6ndE/EbglySCcLEcH7H0za0mTtXb/FZGTqYtNv+sXe1k5r5e275DMmRqsbZ6QzAC2LPH1AV9tCG8nyHt/ZElA0ZK2R9yVGhJLAvKs5mlHBiq49P3+NBHhKtei6Z5NxwMvzMJZVeKT3JfNS+75sr4YFoIFqVkHgWXxvuUBirR5dQRTueP6sq9ZRcsIKyZ4+JEWLkWpPLcy3A5K92yAbkyTxHb33bWLaappRDez9YbBv+uZhdHAYie9GiRtOjnbBQzP17NeFn6NATRPc8hsfMB0L8fF+Cg/RkNkH48FeyOsajQghfanRWUJuUT0Zu49xhLxLQhKO2I2pLfi9VOTV8TkoKNlSVo3ysXZvB5Gin7tg3czdpOdWy/fUKzynUh9/UnS9Y+5PicCPxo8k2gjVrVP0buqI8WS0hs2c+Ka6M39LjHwzPLeAMpgUROpBUGbFgntAvRo3790h17B6WgsoW6IYun0Uebkbkq2k5Dh1P5OsaC1fk5nM5JisIO2nFvSyFBeMT6X5whqe7IljIpkAAG3/36+9kIz21rYQfS2r1yJJnO5YT6tAbVkn+XkQqZG/MglAndRQE6rFEoAa3omq5w6u6zQEVbW3pmxqqiETvbr1W19oPyRjU2HTO2ttF5DhQpyg9txVB5Jgd2InnzJggs9d4Fqp+SWY8yQs7bTVt5n378GjigWACX4/zlbUrByqRoF/HaPf60ZP6s3WlVYUMHG3iGEyhm0Pil1yzbl6tTgXQwdkOfcMVY5UZlAdqNQFXklH5wQA3qCvXaZAqxmLWPP1u3HO6biW6taLBKVJZrd6OR69kHQOiyNobvxtUaTs1KahLxRAisJSlbc/Z+OnR0TlK9hHl+aCVdeVsuwn06x08C8Oyqraje60J0MH5mLX90FSWhkD4OddKh6FQApXqcb5XNwaguzvtCoBP1xlA/E3bhAzLw9lQZNvPFE667w2JnqiGAoP4bj9dw7CCnmGakPTc5CXQGaOV2eHPShZd2Srrc9ffKyqMeELnHRCrdINESTJBXciaRszmpYFgJ4x6fuhJg+zTY++ioaRMFTVim8mDa3GQyGP8HToytGJKCZAJDBxgMMN3+mkUut95r0+s0h1sZfJWF3CGF1mQz970CcbG3RfF6l9rYPaPL+ozDePYzdqHpDjsrfT2L6kt5jEBR3LuAu0u90QuN/4jPKyNoFK1QRZMvrDAhN11gGku9RVlTjZknwcsgy4kwCJj3X/81B1U/tf2f3HGrv34PIWb0tacrV8Uut96oJDmQU4xm4phs1BqYm8tJ5g0MeznJoai9sR7IGaJLROtZQ37dID8ifzLIqFjM0cFAgB1AbfvDddI8RH6qROnbga3OwaIYkcyfqNJsbJq6JDPSfNO5ellDkcez6zrDVORuuRzuUphJlBjDK25Bs2gtbWw3FdHXO8mraIxCdaeAc0vieFqiZ4cKpjoHil+z1NwhQ8GZNmEwjqnRzpbeUTWhk2j+HfzIv2JGpzqLpRT9M8c0pFXwsnFewcaeJ3kHBrcpA7wahDMJsEsAs64VozeQHpo0n8uJQgg5hTtxfVoEhOFmrvQRcxvsOOtfWNNT5Jx8Y9kRy2RubAXUcAmh9gjc4BrSYw7b7fBXBl/k7ihHRGetf64oA+V1ioHbyCht+eLS3biz+5Ly4ZfCSCqwbdNQAQdSZIO8r7DURfyBFUED+wCRQjuokKeupXeGiIj34QTDmvkyj9C+WuZN7OatBHU14mDWAEUUoCRuV0aB1pTAoWpKQXjcAWCt7mvxVyzydrQYPIG6pfDkCchKCMAqkJqUNDhbs3u+XjruF6Lu9HRqidDnsB8IYWEydz1ZMmvdOTVEtC5mgTnf9dJtgn8NMZKlJjrsqqiJTukWDKaSNLNwgv4QBLhvf1vllZn7UGaMwR48rEIRMEN5Mv1nZK6njNz4RWNdJuzEYyUIIEZ5EDboiqvrWjnZ+gYizkjixCYL3W4lQp9DNurJJjor9ZWxdQJ66FgGI9KLXXd8PnpsZIMvt0eLPi60GzRtO+1Z4xCtDktYEDxI/VReWMMzIJAjmRO2mxvEaSQHOE1LbjTp9rRsZxELevPYf6bGV5/zItqZviP0RNRNi7KStl0Aduy+KLqQDR4pskdVHLj+ZwYM7kZboNoyh3WN5tGQpX8Fw7COeKmZwBm1InCQkeSQuh8R0TpFc23H5+qtaTnCzNMide3E19DQkrOuTq6WXKHD4NyqWOAlHQuvcVAQXgZiHkcVqPm3KfbwkEXXuEq29LaIF/ABjFCa8VqCcq3QQjnoNIoeA5rUQ9zR0XbHtgFZQa1qxGz/iGQ2uHlHTQdEnyrsOCn58pewKdf1fNE3v5lXWT5DDBG0d/f5oJVN6DgCWPkkyLprUwd2atvpR6mjZKMk7kgGvAPmXRnLMScrOq3zOyN8EV8e+on+NQTOC3v8wU7AAKmISCMaWeZlOTFooWKTuAVjd9TQlfLO23KRgg3/aO2bnsA+t6V4EyAkE1g4VTtQjlv+rAFlJYeMM7Vod7OmN31MlBfFLOsJSxfn0toq9YdcPZV9OrTmZFdj0i6cycCRkavDSti4M/KWmynmsAF8iYOGpUJi+mzExY11pbJnm9GPZqMxkTiirywgWCsT2Xcz6d3ww144H7t/zFbihkEsTSALZMcH8qIuZlN4oYD12o4pA7XR7+CgRTwbUd/SkvkDaFUNZ20oBe7T6e4K45fkmC8G/8om6fJrriro7E7UhvEgRrIrx0TTwAGmDGpMmkRt+WVc7QLjJ6yk9Nw6uxAAAgAElEQVQVAzcM9hHOuVZg4LZg0Tm50xgpOnN68ivSsI6YNcruTQOnxO9pnXr1I726g10DspiOtyvIyj+ZprffvR50y6Uvdu/949VEB6zIbPL90QSp997hoY84qcKg0w2S/iEXIBNm80npyghnwDM5g1sn9nzNesMZw+PnThwFf/RgVf/Mrj/qY4+LgRPuCBCXrobYdWwSE1AqdLzu+BAHwEwMEKiDcBbZcEpfQa1y4gXQxkMQGD+EwTFShp5KQWUoU0blFGv7qMEsei0DqDSyVy1q5rLoySwVN2nkjCAICYQejqQXTloSQ5hRFEK+ruSdWm5a5/Xb/1zZxhTsklTNafycW8dEedSaKYR7NGsyEZ0KdQks7h+z1IdL+AmsfBLI0RCSVAhoK1tncJY/NXVYSeJzrVATkVbmBVwO52o4aCrxBT1mre0dD3pWgy2+LVXoHPif2Ke2YDFlK+9IsWrNZQGtb3QY93XLwh6he5Ao73Y4yRHf3ObMugOoy8N7NAtiwbd9p/opcd+6OzQdqQZuqPTuHqlEbk8xMIKQidVik1apy/dxzio7nw64qUDpji6bvEzulSP03etib//qjWlfNQSyIMjXYLg0iOfIql/c3d6/N7YgJSUCJMBMCDjW4szfzfOpBlAFI5ID4nmLoNx6fvQ5XfxCUkblBVrOs3LXrVBxnvYw6fe68NI0kpeSepz6UhBcI08Cz36bp6cFwi58cbzTz/BNdr1ozRLN3Qnuoxov+Qaxm3J0kwU/KaRPD7miA0BJA58/n7qAdq6bBPQnT+sSd7RVFBHZrmyoYn9NoZFen/cUXq81e8zbNYROovVDFif8Q35YqMJvGjhSuerdop8d0jylqAb0gVTAVXlzU+qxPMIqPPKGFgt8j4Z0eGa6Saf3SjL/zrdhIxFm//SjD7Xrd6zMR5nwcIJ2dWap5v16eWM5DTAoH9mg8K3fm1FJqFd8tzMyNfxeQ2C/pu/KcDDUDITVhZIlbsiEXp8ynd/kPgiZ3an8P+KBkAFl6lz50iWjgeQfy+DpMKISWx/bf3GbrLocgFqTAiNjw6YZ6bexywRUkAGzzWerQNxHYsLG0OAzpbNtiefi0F6ytQ3loHvzGyMuFqtQY+75dMqJ9U0DaGrzbkeW3WhhNuS+MPyaCNbpAHRpk9ts+0QQkcxUnMqBKbPlGb0SoiFOlPK5dpUM2XB2dNqp532qrV/p+He6U0sqzdbbPVczLDBQcVcn25kCArNUA+eQgSYUwtpzyYJaqqA/TnmxaJ2JW79Zu/+jFCzjx56FrmBAqDu1LGOr6cQYqQ/6ErD845rlBZAGEt/4ZsQXfJ8//PPfY+uA+n28Ibk9VSXIqPKEvGP794pUUaV81QQTLaTQJr80iWcWVLQ3cY4NSgy4dWOuTestBqpoT9RNsuxHByAjWfd5GVuqp2dg7FzMaoKHm1meSQekbgJqU/lbCypyI2Tq0NQds+uQw+GQF0VziLKbEqKwBElJX81F7KLQi9akKFMDaxKNQgc7UAi0clsHX0jE+gtsNnF3z8Kahcb9pv+EbHyC9Bkp6cvl73o6ZL3ORBuTAtnJSu2l9bdlLrehlBbhpZ4taf/cdVCeZZXzRPJxV5SUYm1PAHuiE/T+e+JnvPO9v5d2C0rlWrROoSIYjvqeEwSodQ+9nTTdP+hLCD5LMfHMs5+0TmFZ1QhNAS6fcZGFAqbHZjr1NqmRxH/YAYTOz5naHbv3LzElQQZtELCi1pMEi66H3hyzD6ce3Iv6iET57es2sd7fkCP/+eNrDl23MkIlg3Q5vcitf0c64lLUcUFlU0Pgq1NApMxgCnzQuWMJDU28CO4cNZtXbo6z2DuvxTsilwnq3TSHpSzYJi3VFVxjVK6Nb3ycIT8lXxJU5GaMAByaqhSh6ryV5hqVVoLcoIAUs9ye0fkOiYCVi7WconRxx0XATzznQnLYCa9jCUmI2X7CpT0DNQXez2vU4QXUBsSJvayNJ5oGz2v58Wk0vKECkwTMMoBJgH7h8LXLIwtAsDIRQEdEWC1AUi0ok6Ql+lOQ0FAkQy0mSIa2rU4D/FxzgQMDCux6dxW3Dro4MdTvTQCTNFY6rSOdpa7VVzNPVdH7FenIamquxhL3hKB2csj8hMlzJpWABSfH9G/mvDiXzbSZgvY96aBKitkk79vS7KM98HuSeVgD2iPi3rXrSZEJHjfQ5MUwTh08yALqhKjlvCsv9aMTX7qgodrluaAPUSDuad9H56LAgqhlOqLwcXtx960F5bbxWxPVTttz/oWh0wVw4Qi705qS+J9W7OdqAcEmpM4L+qkOQXOpBJpKmeIyMFNUtYFHQbIRB72kz/vwe0HkrEBMIuK1gDUvF4OUeTanVKbxcK0BvW0OUxOEa+sv3fmWmcusg82T9V5cx6fjQ2Zaq/4n5GwkLKLlKucDIosouQZKIgsEwBEIC9PZHefn0vhMMxlf0F0zfofsvEuYUHZwauZOtQm3O/f5t8KqMfV0iTSSXn1SkUDBlQQoWcaHvKloDHMN9mSh/EXRN199ir4ah/4R9JUX9lsss2A/5WnDu1EOkzAlA0hIoZoLTDDCVex9H9dQLxdk3CxZZxpwABP6Gq9aB+/WenwpTcWnNziV79/gx0mLq4Lz9JCFYZz7TSsnBvmKzd0mO0Z1TFqK73hoyUg3Mn5Zm5gK6Bnb1w4+9w2QhEATN1ot8aELBKB78+BEUFAwMHXe3Q2pQj2xw3LxUHIABb9C+Z068KMbhjvdriv7qOXJyl1cqw0YC0rBtIxX3ikH2vD5WOSdWzm3/tp6WjPr8i0zB3GtO6tDOJRlqJOmPGdSMUdTMu7+XWqqY3d6f89OSdRgeSZw573TugIfhyBtNFzi9X6fK/05Sbzrrnc8pIQtqMwbkerfk9RMo2cTbh6fkJGNlTwBWmHN4cZba7GxuxPXfzre+3YGxrRe1EVZF/ELnwu1H0fNL3TFvKyZXIjigmoCxc6Gn5xwp3bpxnYMk1PQEJFaBebx+H3xWX4FlBRhm59GsBFUjAAK28F/jd/WRHlY65xVr96Ldvsh/+4PcGti/C7fv5+Yw0rQ2mIo8OSOTQamTnJa58+78daOcM3FVnYdi1UqJNMvRgMqNhqcxFqTzr8d2U3cOK3LQ5/40Nvv5dBD+DK1noGzjXFuxpsdeCrl1BFFhp3Q5WmaM+pzEeNV8xzlWPeTGUrrAkCZUDmSgOwU7egw1bEb++R8Z2UcLKNdduEmjdWNQKOpCBfaaFwf765TBp/bGYckT8eV4B5K7+hX4QN/6rQme3ObMyQw8bKHUo+w/F8QPoHiNBNdW2Cf1EgUfDM6lOOWdIyYzMnP6X0JWSjqlPlP4RrnO7HrVNN840/lOUapi778skBM0nU1JjcpmZljM3zPANEWMC2eRX53vKlaEbnmQUi0/Pz0/T4VImPUsXblFjd+b2KGugDRVUlO46Zc8K4GCNnG9b3ml/MTHOe5SY4X/YxeRus/AGI/AYLrDBurEt4IA0lR3DvJ1S0ZNfX9H7GNeoVIWybW4qynlA12Aqescj2t7eKkdoPkRm7U/i6EyXVyegirLQ6EbhQR/Vvi4dQnELyqceEnxKmCMxMiaOWQ0XSt1xB4T0L3DmYoX2s1bDgtsRpJyDYHpW7iTrIutC/naEJc2W83HXgqD04sxLtbnsKV0zPXl4I3ucqk/u/23804iJMWdj0yNHw8r43aIJxYN4IsssFQFa8ZK1ynuyqI407T7WmhEAl616AiyshRmed08AupjQETL5s1r0jl0glcp8+6tfy8j0a/e+I+u+3Z7952qrqmse1y2rnLRk1Z4VH9K2Oz/gar7GwiJRmg474olT9R3TfqbIGDOJnvqUyXBjIygUU3jznpUCPgyfoH1rzOD0tSF8l8VbZbaNxz+TNxg7q20wr0DLZdL8wIGlAdUL2M1vLJJy0/ArnVIXDihDM2p2tN3z3qjZoDZNK+Y41p8TN0etakuLMGW7EawCVqUHOkHTesmXQ47XBNrcDLASXV6tZheD+dPLqEuaca4sfUCL+tp2C6oGSMRQE0anmUsbbfyynbJvasaV8Fn2tKUI5uOkUkKFRPegaIBvn5raPiJYdNBybwfmq5L1M43SWZh0KZ9GkN2SmgBSQTj8ORztGh1mRB5XwOSlh+MJtvNNlVbfJHuaT4wL+KAytaqLMHgrV8NrogGMFihYp3Zj8/e8NE4sNONTbEP5l8uLV8pW16Ksi45JmmssYTEVdNU/bCMgfoIVT1OyXcWrysvVXtxYMfck/iLwoEEU6gnc/a+Qs36vgUXKUkeO4gOBkLp5W+GIrsPP0uorgrzh/9MeUu1IL7qy8UEHF9KF/u3572Ohsh4kr+cFekrbYnB/2iXfcRUNu1baqGCrLfE+maWLJvWFhpWSCpXNhbvitBVKjiopuYDJLtuKryeOPuud+erWr1peO73kjnb/7IseC6KVFqb+8wARK1Fortfq6l4fON0D7a4NLZqvUGPNBDqMWReH2DNnULNzXCa830u8kgzNM3XF1lX3+jQUGUdfmnfF8drk+amxyxATnQNYRlO8Dhh3XV6GXRUG4PaamnlXi3dBhZLcr4SBsVqAqc/Q3FtpHWMKQNGPkkzjLPoaPkkHjgrC7VT4xZnCurgvelY91Gbp/FKo59jFdjZasGmHEtP6uj/WyBh1Nj4I5DHXQud4YTax7PJRPAPJGeLZsToAS18tFgZU3S4FSE6nMZ4KSWH66RHIp06IgjBkv85+H6r/96Y5PxITN6UqxSyLC0/12+c68DL6ZA9xH3kBnB4d+if/J1CmS0o9ut1v0U331H4WMnF8NAfupRo+3Wk7tGzzhFk29AH1EPhSq40yGZxj+soSQ98a8VHOxpSuNEVGCmQO4s5OqIl6kH0qUA6NgUU+EgImgkaVuHmekd7e3hHppqWQlqt32m9pJ5AtjYxDKxAN0JU1Mc3HkjGrQG0bK3fRQ61piVyaHJol5PQRZ3dUEYQQjw6FDfz//WURFo+SFOywAh/eEU4dCJGkInWrFOOc7Fz6RJQ8d3OfUDVxDw1RFIWSujy8sIfQud9DVIJG2GSUCMalTlxA2aaq8J2+wqPSm9ZEK8J9tQU80eC8lD57a48vvHeieowp4RKjGa+HobgzaWsZTHYamjKSONGgRh8oNc2HYsz60+GEgyow81XGw+5EmRTIRwHbnuJFQLoF21+lm+RU70559fn14r9cJdQJ7wZ9dINnIM+HT20ydgRCsvwpeyIG/y4U+rokuF3OLpBeOpYrtFfHHCwTVVMCejtNfihZpkggSNbZ2jcjup9pgpX2AiCEEHviHtKNNWRVpDkxIWV4JWBsGdxqoRr2MiUSPNjZPimgxAkphN/pb29SfyU+CAH66tqQJhBetqgzzq7jnytAVRGwWn3aNeZUY+1ebi1nXtD8mvJlmZG6Z7LR56VIN4nayOjEKZBC55VwXg6xQEalByDgAiPOuT9/VPhrTJFan4rObKCcXEzQ4UnEvgcNKp7VgAqHBqtszpJqR40+CNaZ1Jlv+WC+dfDU8NJ0M4mnARRQIyPPYk6WqhGZS2H1qzQ/xgeA+Zz+iknA+BKRaskDX6yVyW2T0ndKTb7B1dcT0bLRZcZz/U4e3T9CMCnNgEBtN0r9+bPu6aJPvvElKSRJRxnFIs05pUaCQjBKnxm5KLHz9rHlTzfvE08CbGdjJgXcyQkMasAfRScx7XL+1BehI6Q1IDDD+S1zSHpAz3U9HeCOPNaQM1sV9Oyxqmhjii6G9YgohwEL+ZGrjZv79TxQoQQhhMW7TNzQdyPX6OkMfuXQUnegE06bSYpLaNk7fNNtHNXe9J6YSCc+fJaRAeWotEAYI+IC8sFFNYQxsckyHCa/Fy8zKBOL0XUWg1ggRT95ErUMrAef2dFzD5d041U7/9bjQcayc9ASsOI3YYYwfSFDyNU00NqTBMTipHdZ9d4ylg8vRjK5p443gTTpxQeGqKDgECJZHTILAanL8xUykW7NYQ5BJnnpS7qBsjx7LC2Kwc17iyZ96z2ZSzyZHVyvi6hOMTJGVe/VM6R4VALdPfMm/UlR8nhBs/PZIl5jYlQ2RkhJPOIp9AHtKrlABYp2y6FqOtGYPRdQ4kp+DdKWjbNqJ8Slc0gtmcSwdbIRK1wwU7RnwZxS7aqHcRg9QO7FZwKB2vEzmA38RpCY8WNVxUTRbwy6GqrQTZpSmJydubSpdWuH4CCun9Usf5micKrO4mCQ0/oZ+/tVoJIYO7/znsqKNm9yXMvMaLghiTBdkptVw5Dj1wTqBTtKor5u1rwwqtcQL8dkF7HVUKrV883a0GfI2vrK8u8IRtfBTY+ZRXPGZNBlTIdq4OvmW1+1TgeXYgJKEoXGgPdIAB/q3mv/spAkcYhKeAlNDHe+pMBZ4mIr6wdNADUfuT4+3sKGURJFlksmkdEOBoXSYwo/ML1AAVda1evT9G8VtdKA1Q2fjixwEE5XX0pJajS0sOJXFTbGAlv88TqzohQHwAWfI8B3RgT23Bl6DBIyhwxy5OjOR4BsXPEMlLEIZ6x2hLxs9R947ERBM4M81x/wAdiAIl2NrwMoWymA0vSl0qo3Vx0C/fb4zv3m1AyvhHgQmYQS9gNKVLoaWe3UFJ1YKK5bbq+SRrH888D07VeFOy+L+B4FCSMC3G15KVXah5V2HAgoVQc4B/ej+nyU8QMYWi9UVIVUF2tAtbnwEHR8POsqUjaPQ8ZAqPWMcv3xUlT5QUyZhnx0PVUc0ResJuF4gHW8H/nk/gzmKvI3GeDpJ0Q049x2A1miQ2pLJfz5s5CE4L1soKynyX1wEiK/Ckt2PRHFbZTi6pTEATkKDjn7Fqsdifxozc4nnYqXR4OgRZkcewlzUzxbtMHulNWcFe/71ndQG6YEi2/e1jQ97f2A0jHgLbAI0jYFXBPexmqjsZPa5g+fbZgmd//3LCWEqC6dO5RgBK8exz10elxfg4tBhFoXt2Whz5AF4r0w0O6PshAT219cghwOvAdF+LjRZZZ9IuyQSVBc5WQnadlKgkxjQW4j9rnsQSk3G6eZ86PMdvMeI7L301cZKe9iwyVN1nbz1TPBiILNYNNDdtXNoU45qSajEKS1e4TDw7GWVDmH+qCQ8onPt+JUHogOZ2p+sp6Cy/OdycZKIspTOTSwWnwEFc1UgH9cOnBkhZ6cpJxdJgflpxJkF6cFvSefOUrYInZLPe79Wa+rJQ19XwjQ0QI98jg2ROukNWWAT7LWv1LLrO16oBiVEjmHXelKRqbQqYa/ji3is72Xs8iTOYj91+pjK/kAwfe5cBmJhCAMPRZ9bs0zz2S2TM2m3dZ1N3q6c0ph1zk2IhhMoEwZswbjJw5mMFdQ5ib4AECgy4cRnOmKf0SdLdCBdc+VBP/UTpfk76UgtW35x0q3yFQwocVjeze9uUk14VISh4t0VvGye6YcCrwaCsK8NuRimOwt0E07XA59YARqQojPESKyBsI9MZ8uAWggh7ysvFHHR+5LQ3GNwQ0Mrp4hABpcRd/w7sHkTWqHG15lxSAZgz0eAnr03A+k2hiw7j36b2gT5k1NiLvw7UZmmYurPeT2ERH1ZWh4F1yax7XZYhJfgXAc9v+VgSVdmRmZ3IZDWoaV2ccmfiSAA9ncLRX2reYTr9URIU+EYCp8JLe2aWnrwFPQ6ecDiNp9NVxKkRuAfzt7aNrDmIOK0M7goSyx66zC7GoNU/H+00mjJ7kg+sbOAlJny0rY8GXjddbWpMehuo6rhfL4+nutBKs4eMYBfvn03sm6Q3ulOUBTfLuRVoD2EwQ1pTtRhXbedzr8ULCO26li8enfSGdaGqDyhTRb6q10UTwHmqRtr1+0N+u4qW8qTVRZ9Dg799+LtStknqzbnPUfZHckZqYfpZOUOYeBmJ0DZGQQ6Rfrf7OoOrOEmoNVc/kPJ3Gv9cTBIQAUXaZy64GCzbWRFhAh+lthOECdnU/bmS/OfZQtZxTvoyMGVCm0tnDn5+b86U0l78W57olKrXwshvoce7VBEv2R0kX1tWwXqU8eiSAXnJ1MTnvasNkkmj5N2OF6rQo5hhQv3niIA581M1EGWhNZqCY1qFMMeJ1QI0bn+65G0aMzzMRUEH0nUTfbTyXgRwbqETdmwSNLuxPG1YV3cmIA2EE2oz4sfZqT3Fp9Gk6F7iPzt/qn7moJ+QlJ8X6aS5zNEjNPyH3z/8yzrHHt/wQ90E1AsCU7f3v+m/OQXcCMGtmaUV9zsfHrYgCBWRmShbf62hmkJnsMIZkjq8p+2/G6y6G5ijtVh912hAlp/a0wX1anxDBUjXbfCWjAoQRJyoMSjgl9emKilbei0+jm2X2ZuR2hNTKOm9ENyPlCss3RdRZIDWUZ1CQ1Lw+m+zCwv2KSvtGpv+CYKu5rs8G4e0HWDhTaIhEm1w0rDuhJwgIYZIg/+JGO6GqSSZLVTg0NIxaxqnxNeamdvTCjC2I9W2ECjcLX+aXZCqaGLMXaBYDxiKcPGT4Se77qlHe8R3ceKJHK6jkut+Vw0IlySDqJlBoMlRyKrPnp/GmhH7hNgMKwtgCOHS+LM+A6lF76X7IV/pJB26zh9q0vTKt7O3NQhTPQ+lIxd06OUNAPB3DnoNDYZT+kmaQ0Ot2ROVUOAr5TJMP5fKEClDugnWk1g40RWtPAlWA+ifLDvAKXFjavHq4JMUuRmma80Fo+25XfcJ5fric62zkwSezqv4hpxh8toKvuzNvLqT9SbzstN2V8qms62tpjWop76PlAYd21HhnkyGg7C4a931w6QeFZ0+cCwypTMoLCTXCqUw4qPVw8tkYvMEo6Z0XVq+WargJpHZI6fDVxu39eQFddp/zxUmhcv10WxwuoY/PrecAzeplPzwdy1gZST0dHUNAWgnHY6abSoRX/CtJ5VVw+mkkpI0TZwzvkLvzmKaMtBhPhFpgfV8hwmf4NVTIxbYn4SlYXqDqZq6lalTWXc3i1yaH7gujq6GVUgmVAvgsw9BVl/e2WHcR8RoOFG6UItOMMYDq8+4tQYTiskS1JuOx7X3vvrKR9ea/v7XRo+7sknklLqYUXUce+0r3+M9yJFBKxNt5kaQdJ8hYIDAql7/Kx5I04A2AULSuNABTgnSfyOxLRBa8yCmd72QVA4Io5ogoN1nod8gKMSCT3FOwvboBH6Krbr7UGbQ6Xd0aG8yDg6q03JrlBBKrOX7yZcJuutCcOtLPTUqEICKoIfp2TAKPSBxKwVCkXSWiS8GLou2uEBfEBGbINHn/ggN3ToJ2jRV2h2UE7jyvstaT+b0SaE4RdpRqpGAvdbc3Dl7gAqO7/PNCsE72tax1l05uoLYY1K97n/XysrWaWXv1MKQDt2rFgA4s+tXSBLYFU9pza2TJ0aFXv3XUdsknE078HGCKeggkHI2UJ2jBINwBQJOx5wK2FviU4yBvLJgWoeg+HRzmQPrEMKb4SrH51qe5Ne9r5shrV1u5Mv+k7bQjxL3uqlN7EappLDPcGXlsAEKSNacuPn7Rurlvqt8OFa3VlYVUYMCPbkONlsrvqNdL9rj7BRHuStY99nYeUOdlErFsYcYgEPAlqjymx6fw8soDZpuNsgxnDu/3fZ7rZ5RaBk15ErzBYCGBGQ4rKXI2h+IVJGHfbhOEWX17pu4AyrQupECCW+6Ec+aLIIY3XgJ8VF/fLJs+ccUMGtwvimxQNcuRr1ErTmfRlHBPL10tuE8KO2tJ/Y8Q2+NIHxrCDfOyqbi++Uo2JzUkcVKeykoBJPc9rI71dmxwX/Hzv48oU8JlyHq1SgttfqifG2B+ilQpVJJsc9uvsQ+pPEcayjSnW7+ewETHocqRAhIh8l0tElgL4NMoCo3mHmbkKAkwzwGvMoRQQs8VBboOyE6OceTr1nB3q0m2KNED4d1ec10zqsP0WpaVcdY2jtYHXjk+nRot6Er13YzstWBKQ78EoM4EmS54DutxXM2lPvqB3gkNDdOJxKXkLo8SQCe8IO0axXMd1/guUQsGF2wALout/kpcOAWg3oTE3WFG3d3qiSghpAalk5N6uKQ748/KSOjLLSa6j06T70Demq19Mo1gTODV6Xbyl8UJBV2i52GlRFmP9yIsLGv9Tn0qzvYSTl6jQhfjUhZaknv2GE0DjdLqXX7tSvcx0Gff5pB41oqnnKmMfSdKxSoKnbSl1al1fKl1pQnZzXS2PW1U7+fvBdNeLgZDt9W95bpy6ewFd1Tmqx1Azt2GkraOUa0xS3vk04ltBOqU9X7TrTX02Z86ryohHHwgc8q31jii1HS1htzkZTXlrDPE1U8dP31yUFpZUFnX5BMP/Us7k4lnQL6qYlhDsjXATCh1CyP9y6P3jqzSX7nEOFbf5NkXZ+deN/HTWkffgeSdHJLp9TuOuyGZ6LCM0eLDPcHTnrhi8YTp4C5g5ILIDckgP9Z6ymWGShViyqtL+fgIBbYmmOYbrII8h5IY+I3xNKkl5yi3D96kMRbte6qI6q531ozQv8bRBtWwGid32TDHKf1ty6lhiFfHfc0Rd9IRvcc4hUu8zh6t5ceYQoOJMLqvpVBw9XuD5UtNTI2j03Q4/1mK+7U6mkCyclekb+53Z9a5GR2qG/c+CwgJ7jqLdd/om3ItW5oUC6GZKCgttZdS6Wrw5l29mbYC8XGz3R2ZW7+PoZITDgULvLDsVu813zq4nJ9mcnExq6vgPhBpNzmAwE7kI3bgKZmwl3na05OPNlvMrDs9IEy/vGwji9v3Amk40K5rh/rSTtS+gy0C/rC3dQD2uOcuBLJdxSsJjlzpxWcjOlpnHEKpk1+Op1NmrpfPyW1N5U3yTtUiu5uozCTkvqP/RIADjKa3ByNcEx9DnebbqfAU5oYM+sJfCLDYfrDazWz5s2BrcQ7erP9qDTj2/jEzepx+03mLk6M9QmAQZir2vd3wVBXu5cEedPpJozvvorsWRI6a0m1FsORv9Hi0DIZLflBYUkAACAASURBVJdlppOpiXKaFAitzjuhQ6QruJcNIZkggInWTBbhfC7Kf8Bbz1L1lE6XqgEYcMG7HoGf0HOi9r8QLsqC9cISMZnmAmr8ZnhJwvfpEp83FZs0Hj2BQQWikQdYMM3S7Q5HHQTYtdp1JdQTh+i0YwImLsI8a1ZHC6qsv/9Xs8N+ymDvP0/VCSeWXf3/2s5oyZEc16FC/f8/8z7s7W47TRIHcs1EbOxMd5WdKVEkAZHgEK6tWByY5UsOVwdxFaIVKxIXBc1zmJLBHWLYqg/oXPNtIW4EiOkgnRuwfgP6iZ7W33+XF1pzqcUY7J7ne5riMFQ1JCndBKhIul2nb2Vxa0L3w6XhLnmI/9lKrdzhGI6rDgTSGx5JgsNWOrZhiyXbVFIDp0FQ1WUVz9/bMl09fFmS/RD+UyCb6/6uLp1eymK63rxmf0U/00KQ36DtaJaSHt6Eqp0E3LQwK3BGIHzGisE1LSR2z35LpXsV+X9vhgQPsB2pXWdS1xnT1+2fT61jZfCAoze+z1pmCydD9VxRlhspfVNZO4XBROH9PKg3zD/+gmt2uj9aanZuwkTFe6x2hRSePndyvQi0ZkBJr/Md6Ccb+fGZleV46b/XkoleCQbUnp8SEbxNXiVxiwSuvr2TGKPl2MpElMwRLX/HrCHLKbgCN1PrNZIS6ioa5Jm/6ebTEU1s/uT+1g7gPgEt2atNx2DFEzX3qY9nRFC4Zeh7/fBhta+tS2m2711JGz2Y1trPrAKrreAU0GRg/fPHImljNi5mwNUGBtP2T/KiYsTBGjdeJ6ToJUYU/G76PhRHTTjhNsuhoyZ0slrAWyB+w786nDUIwPq1coCTDkw6w8itc7jiur44BE+A12++1r4Whc7g1+aCXGZN283vpCdNYFWFRk/2kdz1znSGj3RneEd6PfG+Ronrp3Owdd2T8v7cbojeMRzflicI/D6h2sjoV6eQT2kpkmET6eXc++gDFm+1rXs1qkIr2MLon7tuXfPHU9vvHoNqzguSWHamL1yOMS0Ec39O7ky33tN6/OKNCGzn6p6gNVG4nsL4mjArh58fZMVlvvQ63366aXD706zlDztel0OMxXZ6bH0tTubclg9NzGp3zuoLB1kLQUYdtnVEIVlQwM43ooIGKi2pkWP3Rz8IgFVpf++PICTzfeBUpJMd6sCNfnF2RUrH9VDHJkdcPbGF8+1ENJvU3D3+rCZBvloAKwmodPb5LXNLs7ukdPzmCuZWaecsFeautWCz0wZrWGG7ctlSHVaAOd11DT0WV7VQr+Db9YzPwnC1LmxSTuOMrqBBuoilwK74EFQN0V9IfvmEh7ZrDqOQ8gQHQsDePvdgo5S+5eJq/L47kEjmrE+DPip0a++VyMKnwLl4Wvvi3pec1EnlgeAlT4jUSB9N7z1/d6G8cPpdDf4gncz6JCDe11ksNhNXWNS1FovR203YVgylITmdyjmnMQRvh+/Rq7+WWAbgl4Ylp3mKSl+CUVX47zS/wzQL96nP5kZKLE7g50T/uPrZx7eXo0X2fWpbCWoGpxhPiDle1ZyG3ObrG/5K82iBnNcRGh//X59ASNg5Mgw0nV0i9qIuoZ+eDSrnd4KYtXwWvSQls9pFj4hrpz3m+KUStwWwkAPp7vDQCtKs0tQ7eM2khJXScJdqoCdMBzjs4b1FjKwCO4POs24ZKEo4PCsh7Jan3v9Pyv4OuspkCrKgn80j3BWo368X5Jiq092XbjWZBTeCNOyccy+72n2SMCNVA9lR9rthL8qX66D1gOny7/rMrYDtk2nzugCCnTsnrbbbz+6dTkLh79MN1627iwqDDjhF54vvoqePlYQLdZ9R3VTq3s9Axji6sex7aqUNKumXvRneMPWQtJsl8Jnyzfg1EAIOKNi++epLTm942a2kPZ2R7nINnbnn5aYjTe4ztIWp+2rDhoj4wZlhewQdrBRfZXnbP2eulPgArEuVieouxyfSLM/xRuRC7hvscQLfQ8QgZfzBOXlbTZK/03NNUk3igye8psMqo+vs0klXBadltD1gn7lYbdl3A2incgR96bgcCeEiu7tO0tkVeBwbnKgLPm/+EwXYx3MVdOzUzmJM803maROEwZaKwSHC5tQADf3oqi3ibNJXNKUnS9zpvs9skGzm9BRNowc9GWx7BtIhyfy230o9LK0x20gSwX37drTDgTYlvIOutdZd3NVIbO3HXoH7/LS4Qjvdfb7LCxLud+vIqnOim9+tGyudIJWJxhUaqiFj+eR3CuSUid7tRn3OeZf4A9+oO6+xU82tUhKU4XdpSKAda3KjwHzjxtyoJ9sdDVsGqMslgmavRMXHmnZlrJcMmoHWPz67/ObKhFlYDUmYGxM3jdktQwDZvLqZryw1DmCbDGA8pQxTmPRAdc+ZVsASm/prQ4HPI0FuIq6ccOJmCwf4Xtfi8Bz5Rk5CUsEcEbjuiDYvXwqM6qIn/CqLSIIlnQHUXQPBm2kdmAuTbKYacsSMfrPZNA2gBYBwIuamJXAkmmNbAlMmBnekkyZYcU5aCFo4dU9m7E0FqhWwKuS6oexGzNPbt9tWWlKSOagaveOeLQkB05sRbNUatyzsIcxiQtGSqChwOMu6DJdDMQK8EE2jBylGwfjUrZSQ5w4U75SMhopGPSxCYwiemi/O4eJ4x+Q5Z6DYaDtdMqBxC0u7N9DHuivEUwown6Nk7QfedOmsD1Le+F1vw59EjnCZiZbQObPyOY3frWEoB/3bc9cjUXCq9EQ8Ydt7Qm4857OnyuNE8OrfDbrOvVoQ7X/br2AEgFx3e017qJ8JuQVFzbnq+uGnPvIa/oCegbdnbETbaiOUarbTG9KrHravxw9pAfETNqnf8gVB4O2+iIqF/9n7W+VVl5BYqOFqEIkAgQlOmkoXnNIkbAUWzQpcLaUxWlEDnz4ymcu4kAWV8pn64rsXXCi6fin54uoU6e8v/rL776rNMPRIif2sP6FFoCd/U/Z4fl9XwkGMpCD4qwfE/fYmdzdO4WFQJPX/9xm1HgZXop80fZ7zXh5bAA6mUYHQ133NYA93P9sx6J16mVg6WR6nQgrlrNPtfXKz2oUrYgV9Hv8ce9hTWLpqMhCmdqbdniuqy1oeEdR22E6LiNtnqlCIBPpcA0VeitKG1t1O4lR1/t2GH8AL8wVioHZSey6wgU6vyFWzPW+q7KL/ASAvX5AoaZ/DR6++/WzlvCgdsKGzK2sKONAUKPy7Qa+mHvxm0MbWOLjDJ8eedunY2pPkSkzBm5F81Z33egDVm+rQ6ma71x5waZAjfP3ajlJzKqPy7bzEn00Eo5vn2u1VR8J0wYum3XSClLvc7ApktW3qYqxWl3F4karA+CdmZMmH60mgwfexeOjxLAVZZl3oR2nLosjNspsEVQurmyYVr/6Drh9VqS3gRFLyaLk6kvjJLmtIU5dq13h2yxidobz8DACQ9qKAiG6zhgJpsICBvP98wY5RliGfBpTuh1Wrs6AQhAjxuXWf7ym12I3Mfpc9pIpIYjIJpscgslhHcFUcRtCwev9sbv7u2ypcfbylDuWWPV1TFiulg0F0WKl8mtF3TTBqiJezECwpZlFDkhDpRBlvZ3nHTgH8I8bVnYIh4VqrosuUtxL6c7z+5IHuzzqIYqqHZVBWMHoVgzICvslzbAVqVLeIdogD+/n5YB/W+2y3SNNmCAVXyn8/R9cJgHu3jlvAqe2MuGcuNm88+edJaFHm2fkpd47vtJEHILmkjgl2S89IklIJvvcxgZUK96FswzxMUcd1DJ+2MjaPfxU0qE4ErDyYRnnxlrk8S8/rMVoO1kfW5BKf4m9lnkNgr83BksswL0hbtA+0BXlzTMNnIFHUJUaxIk8FGRDxJL0nKAT0aRylMzo03NFpeGN3Z+eEAfDcobNH6+7z9SYLNx/WZ6VAMUewZq8UYpJ37XZkAuCTDjjLkG4xg8xbTj3/5KJw4i/TfFkfcoLzJc9N+/D8O4VybbcytHSbjPt94geS36YK/5/PU6uY8ae3U4ytNhUPOoVs/b61I6YYE5AmlOvADPlEcNXfrP1i4DfmiL8GZyeOex7EAQbzMJehOq0uRG/75oqjXIKv4H1W0PW/Nf/Zf7Pp/qk0K3cGInzQntWNVGmTcPnmIiqqNiW28SxhTic6daSeY01pQE0wEfUFz4S7s10dWri57IE8FqL+qRZS4Syp3UZA0J6qKOvSxQvKvDNg+cqB4hvXUIczI7Sk34343BwtmFtZzwkljqF5vIOmANEEN52zzwyv7ADX9m5QwFsHMJeJkB1iQDuQk6mxaFShSJrydLkBdSwZfgG5PACi92/n7I2LW6S6kfbv9KXfI4LQoaKFvi5juCkpgkIK13eetToTYTvQamE3mvxUNvCTg/RSjXCq6EhHRSORV7cjZGHTk1ezB0/x4XM8iV+HqDfwyaLkpPhw0LUMva9lgf1Q4F01nn49KvYuBL2SL3fue8wrgG8nJegUUFINzI93LR8Wt957B5IFIeV6YxuEm6QIiYC7Mk7ECoNotI0f76bOUD+easY3K1F8PV5H/bnfq8vzR+9UTkh4WUBWeyh3Iwwnp5uUX2kDXoxjY+sglzZnJMB065ZOSXZ786wsooWUNH2vxLD0SaSiSJz2UzvGC6z9Naoo4FK22shanouInKV921vmUHtmWRMuFPQvCg79UAYkUt1NnkmhIyQHQ8vB/FjYgizRs0Ny6/Scm1ZkU9xd8lKtQd5kHknXrjv4N/WPG1VMR67tM1sKZ1JODdNB11vSJYHJdFyEg8Gy4OoTS3B5xG16Jm3znHjbblcJ0CSSGf4OfF/NOrzRYN7hWp6ZTU9wk3c0gHw46GX1HDsddD4AOc2rKJ6hnLGaHXr7rqrcLTK2sxdrej7dL3YMrznKrQr9xskmJZnJGOC0U+e2jDX9LIWcKWPsegcDwOoP4s6KcqsJ61yRXapYfky1lI4BRi4toXt1c/Pe7cYGoBMdqulcb0JN41kT/z6BA0/eo8BZfBWU3BRgp7aGqUeu619P/MLWK/VcnwIg0naPLLVyShxLUjIiOD/9Vt7eRezlUtD2o33TJ5EGIsICksrmjaV1woIvhltuPAZlOekYBnfI6cUjZiuS4kle51LXk5X18fsak/c9iilaE5ed9Wsmm73cDrMlg69cJHAlP5uzOANcTNnD/nCwbpBaIG3GbLkuerW2o/VJzsvvJtWiW95Lj3Oq3+NazQpawlY+TtUWcG57fGsfJRqIOvqtO0+8SnKqb8Zlc3WM4wlzAm9QD0U1h6Zyg8h4Tc+KnSCeOwOcFNbJQaCDMbTkRwKfSY1jK6F2B3kqZVTIRr3eODfP+TNmdVqSA51gR7sjqsjBnjP37E855SbQtwHHrTQruX3ffpekRrZvuXobIzfHfkSKx3xqiMmbATPn8PZZHSbj82zROSagEi2uc+7upzb/tu5BQYeaTAHS7FuvHPRtLPlvJjlxR/n4edFnBkaswQGg2/ubKuE6nKSpx3PeNKySgEe1tiYk8Ni3PXLcGA8H90K91jpe1uo5nbcGWP766nVI9lS/BnafmageREJdGKhgluucWcKqTbNftvpTdwecCshVC59rzF7IVU2h+LKHi2pqTDoLUvtzsi6W1SB0BMZtR5PLr/oLCY3ETDWWQ3KUOypHlpf1F4KdDxEGuBMOVZiX3uY95fI4QGmtKRAtSiEdKpM7oJo26SY4wCv4ew4skZtKN9GUTOMh75SoMDqyhToHRyI4gHEDCkDR18+4CrVktWMf+o1CQeFDSMmtCcjLkDJ1fElR4oids8uK74bvUm9HtYCQtPqloLOlrdAJ/tPlGhF84Wab34zFLGzd4fNTsQtaonOMQ0uc5GsgrG9fFOIvKswCglVRY/ni1Wp7ZpdZk4bDkBipJxE0OUJxnGBBP8n0Knk9UjflsqCpoLc+kl9ZCvcJxgSS6mog1HTwae2PS+eTYa1unW684vnSyzqYmDY8Oq89Z6OK7lPr8v04ZFEDfPOjqObffFx+HfdVhkOsxta7HJ6OM9ZDd93nIjWWwgsRYL0F5rUiszIEnUmutvS+sKXNPe6KTrguLJ2GhXQY9OjKdPNUD8zTGWmZhJXkRmlfZOe+ttJWlMibEVFUlHYDzHQz6wuDcwqJ7pAlzocCDB1WrvuyPj93Wbxb9U3uSw3X1+8/Vf38tlp2mkNdCzFF5HGIIn/lruLjA0aQeXHbSbsQN/xH7yZosJjO31YadSPchwOB9iA9/SxRZ7WH1znwRNWb1B2CTdQ5bL4NnVWTzt3rDII4+wB8YrYoURI8h190kn73Cxdegu/RBRA1n3XTPv14tlocetUzdig0tOfv1qHCcDP0UrjwcDZhc4i1grYtO3yqo1OhAZrd3jTl/eY/1dAoyUBcrxfQ/R25XhBaB69U7xzE1g+cjQYuG0uT3JnczibUjcxOkK6hOwsrXM7u8tI6WXdVNZ7ATRxScGpqIDFc3lvQsvkwwj2vLmhvdeN6JnD7tgA1j2bb3GnCiZKQQqdpWQVxmfxBfCNJuGi55U6E/GS304kSviCjRMX5ps928yNBjvjjkwS6YnTgXGH3MfaZ6z2JczfRpKz4Yw81B5eC59w5YeKQv/nZTSwmvQVP0iuS7qS4KR12tNkDvY8YL/nKJz9/JyXUfVkY/stJNeaERkQPyoOFrDqstMtQ5SIHjBzE3yrZoC23neEkjKtje4hT0+UhpWzodOhupYI79XedTFzmEKmlOUsoPIv8CQCSkQSUipyA+zuYrmVhNQ5r2o13+i8hkOqYqhTakfzCG0uN0I/0zbssSoAl0/kscyeO6Dci8IUoLNhNR9vcCKMWdMW02lCLK+5rYbTGfnL5k2TI+34o8BZlJz7deKYttGwtwFpIgk4NX5eeYtrLtRqZupW3nvEC/bLV396RKsbOpSVgnJaZ2HL58Fo/ESwok6M+f7DKX7TQfIUNvvBGeDshaS2r17x+jz/7+cyUDnSTBOooerM3YkqzfanetRcSuZoteL2Jiw3K6jh81k4AEBmdG42mW1t0elIHMLOJiCIVDb8GsfAzUEquHs+86kS0a1reV6yBSvvmyNHs2603FAbRdhWTgFEgkFZTwCFCDWcA/FOAIAfg5QApuYopllHKzQalbGCuTbbujZxDvRVjqP58WL2F29pJzGicEGIk8IDzHXdNfq/gPWkI+veM83YSYT2XEda5p4BdLRrJFtPodQ6vSzyXMLiDEXqhf27rK/mxITmEgEv7qvT4ZMVEdEr9ZCU1wjk/l5y45avZ3A9aKaWwNuG7zaNsRXk3RXA1+LNa3tNZBtvj8qdOZnHodEPC0NBFoqwWKQNJSlTdzdzIwpQR8QrC7wR2/n6uslDx19XLh2LrypUDNsqbPsXWQZfae4m7sqRilxmeuok+V6sVBiwu0PxtYOjAdZsmTMSH9jaHKQi6y7qEV78heSgNQ8gpOvaQPA8dpX1AmjgCz+3dmjFmHdtf54w6EU6I75ysuaRbpCL1h8MCFsxwas5yvE0K/PsN6wJBcdHPlwnAr+tFs8Qm81RH4BTIsDbjuikrN99VboScFhLnAstW7CjmDti7+dgbdebu6B28ETBWMhSqi52JQINA9leXB5hfJ+ikOcZ5Aa6UFLjJFM/hSk/Ui6e0/CuoyVWG2CXcfnss5IB2K7hV/k4mL94A4eeJdv3i0+Wj4Mmo5dR/o1BQMNeYKTKNFBYlBM5CYHTUH9HpUkMPTiHvLNiyGmxp42ya+J4FbB8QAm6T+g1Qux7z0vw+JCRoYedQxabmtalhI3hfzr9EZBOysL0k3c2qgnFg5zud2sfP/3yWabguE5LwOOXT+U1oOTDNZxHbqpnY6fbu49eLX3oJOLft+W+c+IcjNm02yU4TBfRqzud02Xs7TmMjWzbqqPURxax7w2bUxvD5dqUg9RKMZtWXf6riZUDf069qAFY37HFn/OQw10nGXO8Ndk7VcTI+ch0xfG5N2Rxh75r3kWO0tsN4q+LT/F0d4AQoZhzWQZZ5+0Z1Zk6XNY7f6j9Tttf87vaIUZ9bQxwdRJrM3KFXSq+69IlMbz1WlpAX27zA9EC//+xEEAjfyvcOT3Gdm7cALVnH1GN82lhcAOx+Wu/miqn2JaV9ZMB7L61YyE2SsEYUL9xz6jLHrYvnKEA6EuHzpxwJofBE8i+DBerM7cCjAr7OXj02gVeSAHcgTiCfoP3bgou0jR2o8570PW+iLsAjHuP2+qVXN3fKCZONp4+JkWLM1U36YfLQn53HGrJQObiUyXARAJqMqEpJMdXsSGhq0gZG+dTlpop1mwSw6VBtoHUDoUQvuAzIrg5YQHLB7UnahkB85BPLJGVf7c8PLQ9/P99ocdjrdw23vIMTj27QvziIch8a9GiIRH6ayegXDGhz1vXF51RDqtQQ6+iwDOcMb/TNWLbOApq5aH7H5ZucbF1u5CaTxD3Ke6f6BAhlI0iN4IrUF5aJVMmgWsJkJX2MjoqkpTZJSY6r9HNwUR97u1E0Xkm72+tpRF8yq7Cz3f15X8E0EQErF+c+zgFtPxTKjeqh1k4xyzn85nujVpLTlIS9LYzUlyeCVWFOJI4HwyScbNXiVB3DhSWbc6ywpDK1aQI+FRjAzS329l5uLvU5/Y0zBTpbjCfdSPSm6nkLRL4/TfppGLndW4Xkw7uK+xacO9Wp+qylx7xuFtz/i6qCWp5EJpTTnHUqlX/7HQPIiO4DWR+FhBPdHS3/78aNpGO73d2PjCBfS/SpF7ND89Wffy5PnpyFMNFEmtCrhjNEP1ef1vydXB7rWNRi6eSGMzRkRuWyPToy45j1+7ZcyUnOUh7zHD+MtiMyNru5URG6LcW7qWdF0ssbkCQLTyIuoQz3Fy6s7GGYmDcQ83qz76aqkM1xxafkhjmV0CUwJVEgpLPpXfmKLg7qp+2x64e9KazwGj2/qaLj/Co76FpMk9Ju+ntujT8/t6Idqks3VMu/E1BNrIaOFEs+M1Vx7ykVHh7Ic/n5GNNn1+VI8aHWpSvspTlEHX9Tq4AVKhNzNo1PtxCk9GK7k93Kz7t8ohaguQHRAxwONchbhXwqkULnMaNxuWqS/P77fnaISQuYAd+q2fpot1UFZ8kB00lP4Jt/KmD2VNwR/lYBHDnvVD7J4TU6vfXPD0hfXFyWx0ofPqiy87kG5+JnmsguVZplEAbFZBZ/5CfKsQknOHiCNF7TO64Nf8lkNXFz/+J4NcQXypi6WUKkLH8SsR7ccwkyY0785hw/nDgcViuyhtbWboDojdS9y5aYzvD7SLeNZHANP88V+PdcuvOc576Q2BnCzRgD91y6PMjvf6Y1q3hf3bvvmVi6hMSgyiaRKx5XOZnguR91XY047W98tWKhbEL8/v60z5xMtRTYRQrWk/A11w7J7oOg56N/R+k0eonh7O8562KlHz+AaSiI4uARnai53QzXyftZyYAsdzuv8Hu3JLgawPN6O3br8pOuse3S5eN9xXovtgsYlGYU3tMfZmFTIJJJXpzhe2ugzp7MQXwCZJF11vlC1iYrSSKFa8+ahhvC6SlqdzO3/GY26ohnqu/vpz1JK25rbtclps5KKKkk9dKajDSfdSNVOzl37YtYW959eZtKR3V2v2RbjVvW5Xh5YeVOps7JhEe2DDcRlDE4VGlAfWoP0H582gMHHKW7OGAq7iSdnaSgjslIklFiE6juXqvMPGwqwtAf/EzBnd7J5X+nFaynGedt7di+ZvWyRhqdnJabcOKYtdIqxsAPv5s8f+2cllCreSIq63Gsyyhz6zoRTnqjUG7Kxl3esOX1M27R6g5T2uWpV3Ze1v83y+jrzSd45Qd6ktIak1QnzXWfTWRERL12tzWpWzkgR0pGo7qNILfMH6rmxhDPyXshBA/CeuNcmSvtjImWzJN+Wpkvl7ICsuccecJ+DZdLPww6vv4mnd9Ki8uFw+s3Tjv9mU0wDIx0RmRLLc5gTzsfeymeOqrxRynob4HUYaNKSEoikNpRzebqROKKn5eJWNPj79I+sVi5OlH5pnl4V0bt2Fjq+Jd1RllNXSzgPPh2Nj4FmzP8vcjvTJkyreid/hjWcP6dlJKOa0jGyCQDkHWYGDe9hBzuAmsE5J2sL5FquqGFN7mtOkwDJklFBbK3C8YNXF2U/T3iHd0hT8cGzHeGZe/qcHYXr+Jmt+mhKgBq5/arQrlmHd9b7N+5RtXunkTJ4yWh3Dr32xdheRtPKkA1vDuhHBV/f8WnmrR2kmGUjLYUVuovEy7wSUza/g5M8in7kPSgkhawLUndQt7bn4ORPLTv293yFXxX2idK56AnjJQMCKQA4fVDSI6kPtf5YRZaJ5ff47td8EfTMhkC7G4/x6UXUwnWJP5V5bHJWMMAykrLnAs6Afg8bPZ2MM3GhLZVzdr1A2wKC1saWv9dCxlQXp21O0mxdvKWNaVMJsl5ZRhLt5npc7gZ7wQc6gGWSVlIp24YVkIXye9dJuvaBr7sCS+XgdH6xRQjJgHVVHn800moh7RVUjzbDV49Z765vC219gXBWp9vgxokIlF1PnpoXWdxskK0B4NOcCbl9Tr7DJW62GffmCgsjJFMmNYAfefnrGX1FFhLmtvd8KA3QLgGIExcK31fOvJ2o9oK8JouTN24Y0IzztSW0Ok6scesKA+iahY2F6XiBQXikzNUXRh1214mE1aKG8YbN1184a1ArLIhX1OIGflczYm8ayWsJXlLp+B8HKZ6B+pEX2AFdP/+84fXFESp4OFSv4ukSpkDKe+UkxKbpM3UgWGsvRTwHo1cHxYwUWYXqwXQOe16ghgQxCbppFf/U4FDnqoGumfoKhrq9K0qNBBZkTQSiBL+7KbUnUS77p11fmew603f+rAGlYDCNLpP/oj8jgOfsCohckxOPIa0CjfCCSL2tukyBDWcXc96jSO3khkZro3rpre7e6mpgaia4nQCCOvxfFQbhhShbtcNSL3v5W+IDUvf0wAAGRhJREFUbrMGdoy0JyQHuBbyY4NppA60ljUsW/DtszanpS6QhVVchr1RRvP/1+p2dem+FPzsdwTDTmJMYPlG/JldhHhNc3ox4jqR9lLyWm3DpR2ucoGGbAVe96r11yWRFS6uGy1LXlANULhRlLaLFIyZG9vwyh9EV9G5uuP6JBR0AYSm5FqHl6nYWcg1H9bxsOnjPX7uLXaFQ8Dy9kInN7O7I3/oQBhSzKbFEa3lN7pbRSfGMZ2vm/4kMl7a5euESS3qHNX7DVflQwIo8VOtsF0tgb/4SMvtLDtSafx9QePZbsHpPJ3HZ5YzkAS7TIErucxaVN21fd/w7prKIZrPKJplUtGYTZno5XNE153MmicZ3dNuqbNq9rgcjn4cyBL1ao4yC1T23qDNMeklqc/7BFx6E0mty7voMkQFAbV19iLR+fM1xn0iH1WWICjbq+KgjFNAopntJuSX1IaStj+tpd/ONlwcuqmnoKXP7u/SgREkH0naQRONmTkEaSUE0nqUMjRXIuwru8ZC3uC8WGIfptWeci3hj/DUbjopsbk6r0MKtTMt40bKlL9q59S2KSofLkl73lDTrGZxaX/iflQMrDt+sMxaJ+2HLnmfCuIUOsFJgf5GqGFrwbPtotXdoJvZO9pA+JKc6JgApxGkvf1tzfB/C/Hb3zkgVQb/rNWbdYdZOruf5mCO5en6vWrU9WxoSz1nfDEFpCofHBNmnLS20jTUp/B9dUIqqInvpjp2gqiXV7AwdJR0hYZEqogVOmmBx9vmcD4OXQW9HjqXhkVU6JcqhoJlc0qY4ObPlRIkJyCBSB/PKIrhPtiN0HIGNk1odjQf96T1QQRQsThBY7qdmPwuLzWDlGqemY6Ve/0kOmZ1chJ13oXJXFnPCY3Qwb5k7Zl43tyjPkNlvXTTEyva3em/6oxbRfHtrG2qRinWSH9/o9fYdVRhK3V5275PitbDFcsJ0I2fIWEiwQqebl/TdDNbw6cm9UFwYN7tNb6UhvylNn6Nszd/Pqs2Y5zmq9fO/Dh26gyJ/TMhd8b6G4Jf9PNl2DzSt9HmTsVz5kR8+PlFpKfm8dk/1m3UJSNcZwlG+mQJK3Ou3cEu7Swe3bMkHLtQXepzzU0c+ZU8wyXTzRrWydorHMv8F3wWA6HOf9n3CbHBWiGku4kNCvcdBxvtiUPa/jDmldRR0p+lCokCRpeMnnYOMvWZtNRb7BFjxkgXZAQRjXj5MyR4LmACG+bRpW1Ah/u8YFCds99i3szY2+FKjZHkHF9K/v190K6IWJcGOJX1C4CVOnfTmTu4M88Z/KwscNUJhC1LKeta1otG0JtKRLLP9baOSbzfc/h/euwKnGIf49lUeB3WUkpBHM0TNADjpOaTVg8k1Y760JFna0ErEFz+lV7OpjjMdXfdTpVdMTJxzTUAt23GHzsIfbhwbojcDDkQu95svpRVV+3JsDPGW2Ffurs1/XcA6ivIu3R6MTidvX1w6mlNCrj+AXTKUz6DBVFuZ7tQMJRZNrfuHEeFe5zknq+3WR+2otkO9fhdcia2ilaLhXTnGDsHW+DnkgrZm7K0D19UtwE7IyImMU1idKLgT6Exk4i2Hf0Gg2gCnImSy20eDZTcn6KCWE6jYZ7aXvOkZSDtKwdg+uqgm3WojbBIG0i3DDwI1N0Uhu6hhAxpE2ojBaxdZiVDFGRZjnDzThKV3FaRkn1nHASUJuohT5iyMzyC0KwrH5eVTd5GybpDSysEdkJF0ME7d/sNuH3SN3tNw+xytmo1AYukqzypNLhs9Fk5oDYkKsmzI4ouBcW3E6a239HxrYNJrzidGuYoU3oR8vZzyPjFB7sfwJumhz5lVoh2jNOdKfUkBNXNofndNse564WfhLo0/XfA6NGw3L3DKb/3ow0UU4d+PMsPg8ZbkI6Gc1k3krCFKPcUd1K4KFBcJMR96VNjwZ3RbbVvx9BtSvCuP0wLqXfb/vokq1xwp0Fh0g7YSt5qeKcbIRJ35zPa1KTEcgJjoIJg8BbUirHVycqaicOUMbyX76yvmL73P68TGCJxZDeZ2FlwGgX6tHTltq4yHImiNOgvTo4NZNJyJqcpzpQ5cYOBXNelGqohFWPYplNPv63AY07AP2UFXdlFkrY/d20v368BkuW34ok8WP9OhbIRN5Pd5JTg713baOIWiGqA8K7y75/xTX3o6fuquFoLlrodmcLTfJGja2B/Fku8nTmxebMCFv8NMeHSCEIjrjMQNiZJj2R8uuVxpc+Jm5Z7FvPdNP+wRHjtSfzmKAi/6nI1Yh1O/KuoEQTQ9oZQyVhAPC30x1ucq28UsMK740wvpWrJWzcl+ClopDf1t+KMAZEyklz0fLodCSsvRrJtIhDIXr7ZbA1l34GPnCpb0p617rm/GTxY9PfVg0+UuXSVmQWyn00x8OV52lvlzeHR0mjntNws7WXR5bLJOn7c13bdMJ2Z27mpkxTI7biJG4N1LQUCoWJIKopck0C1VK0PJHQmWbZCx2bpcRs+ec8N3G+ekzJa/Z2xz1jcXdVT35kbnWwjlmsXuBnGpOAQEOfi5iOd49XYD4zIXTD4/L0UQDk6Jplcsx31qQkknbCjoY5Ah9SL1DqwbrtyInUfKYar4XmIK6atdlNI18km8NAmjb7eVig3JScqE0aWB0Z0fCkuaVY2aiAh2pORBrfMCf0s0q8q4F4daHXvS/tPx/cB/YtpycYWqhKBsM8b9M2aSf1FgZXbj3gdNoWWhKxtjBdxhKng8UZhFLDLj2cWW0FXaUvz7BOSYseczdupshbfyb/3gUnAzZRb52tS+aBXIc/11JAukubDlcwmoS9fL8z0E5wS2dwvyrBxhe9Uwu1KrR1bBgJLVYDvYGAph/H+q3+SOThk7jxZy6mVot3E16+72VC6CNuC9zGxRu+fNEO6wuEDvE9Bw98iqYNFJLuthgyZGLdtQO4t65Qqyn9Dwd4MQD6AaZ3fKcltSc7Y5wOKnnBTDcjrLsvls61qBM2BCp7ATaBaX1hhihUSPTKZqgsib1IXtlWL5CHxHNs9w34v4NSalcXOIol9zQ+ZQaFPo6J9pKsci+7EllDRVjAf1+npPGerb8+hATQJbqrrbDoBe3TLYC6g/idLYpbdUhL4exUgnfOVLqyzryRkJpdSyQ26FaPWO9C5TRE2IufbACJw5s7j7Op83x9V57MUn1bDlgCJodn/bL5z8wsT2dLPd+7FRJETHzKlomzOxjQ8a/yXn/uzzmLiw/4g10A4PMDb62xumQETlvEiWlRbKzLBAt8SFcdnVAoyLm031zcyy9vhJESSBvsVfRACKxLwRlTyTrBRtL5xgwBIGgkATiIg4TZyU0MpsA96/BwdxLvlJalsFSVykh70A5m6A+FUAp2Zy9vol60Gg9zAMhAuGxYoRUOHZrjw5zSGKrCG7uZaobdw++p1ywp5LieM7VovHQ+bDn7ZdNIEcJW2M5yKXmlIDJ1hphNxtCz2uqDyyfOHUcmzU6S8toqHCkoq6HyOeFpZwZqB380IK9dPV8AedFh31HDQfnzmCTProoHs8QZVKKQmrQK3bZkUVK9iZMPbb9W/7mxTgsbpUiWppRYQG5ODlQH+pH2XtKS8amGsVdOVES01vN+HH7+dWuEuvZxqShm2ilx6kTFuDUNVBTctAbG163a8xYqbW2Xai3UOunIQyXJIEAt75j965wFLV2exEzfagWAIM+u+Nqbv8UOzkNpsrIVBl8uIvmCX1vS69kiNwOVrwTlNi90zymQlzhjfDbxs2ctz7BzNDMjogz26KJ4XkpbA8xq2iqP0/ua08CqRx6AT4f1pKQyEBem33/hnq+FIboCdtuc2npbmxBWsPSMxPs9GOvZ68hI3VQyO2NDmlbYxUbTwx20S4T1j5eZts4fV3qaM1gl8knzC7ABGGia7ue/bem9lNIKhastLqnxO/GSRlPnpcebk/9/s/cxH1A0pJoywjLvrHEHzbfJ2UjAtuin7Js5tukktA8YmQbCkvSLVEO7OBf69xWYp5kplmDbfR1qeVT69fZKKmUTRfDaT0eDtnjsNxoQZXIxKGxMiwzK5zIVc/qVg/ZjvozfV6WUcZffqs/rLBrhntYDP43tC4CyEAWHsBI07yY2p+hS4xC2beuqr1F0rO/bNUFdaVtGNF9soyedgK5kN3TwRvftMinrTNdig2QFOgOiLfx6gwr0tJNtw7J6bWu3ufXW2Gq+bZgRHWyVu2YNJDRap0cJmbpnD9dtuo9s8h840V+CVtlPxG20OvT1Vmwak7t8pw5+ArNj3K5OvXJOwtKJM4OUSGY329yp7r2dCUSewZGeoXZAWJ0LGBGYBxg62UpV2Ha74XUuuuWq01jvhQUu1VX/moDdvIgNR9ESSidQgGX3zABALoZWWo0/kCen2W8dP1J7XdsSXY41J2KedjSSViAkFmIMfsHfH/Hwibjc6bwH7KE8vnQG/tmm1/NoiOatkig9R3ExadrUcdVLjdznL3JZ6JbWGKbtLMx4qiOCeZ6kWWPHRc+55s+cfS76pBj38LlZLncq56EHHhA33QGzAZz0S6Snqfivfu2UeT/pBwDMkLNxEwbpBvaSoNZ0tlGbBCqK1M9Dbf+iViQAIJ9COwDmttn5z9NJ4fhFGPmi2910tFFYqWEnyuzrs8oZktgVWYqta6L+3Rirthpxg66VxoOHtJQsZOunwGGsWqd7FkIsI69L03YI7sOlCHBGOOMcMgT+7WJTtC24suM4nPnSh0/HAFYSxrXogyalpuIjaGMuTAI3gws+4eXXOqoxQzyxSwWrNq0BufBPGFrF98jY/9RLTm/0nQbS1U8ikQsn4kdS+puoQgrsIa59okT0tiQaFNS0qWNUkxgKjM1x3yYV1zkkAMkxPdRGwmp8h4sXEgak/e+5nPxZSZoPOuZ9JSMu3SYC76U+vy2dpDsYqMrcoH1WytgkDaG4Q0Ai20dsTpqYacLMxQVrAspPHfP9OvSy8WiNPFTuqj+4IotEskZbAVPC87u1IZkW1r1MHQKSrNhvbOmcVrJmTnf0EvGlOmoBbusrJLSuR+bghDiYL1iJ053bEEekFw2FC30wn7xuigq1ZN3Sy7EUIyfFS8fI6u8r+ajdUaRoD6NoJ62vGSx7A3uQhCoy0jHvbEsFUKG085PLvTm/2NqMifb8CTJ+rOKRq042T+WFHmzRR1MWTdJydn/J0HkJUtO97DF5UkI1WfciPc3OtwK5M34liIFVO9Tuc+LAbMelE0uebkdEaCM/1Mx8ifVIW5Lr+p7e91o5b2s+m476mcb2GRB0dtJuLk8x+1GkrE/7GuloMPGE4g6Y3dY6ciqI8bcUB8vSgDwahze0qzBAFM0fqwrdq4g2fNE6q1v2rJVLeFvNSuJYAph7g1svflQX2CRi8UVRJ0vobmHUGMK4HOTI/qyJQThvCknoztq/3w4l1cmG/T6eM4wmkXTr3VxCQJ6XVeqOsfO7hiAMy5/xplQqsJ28R0BgSzqXFOOB72pDE2koTzOW4aJdTztWqsqr6OFdMCnrbjRaPjW5BN0aoK3dzi5uIS00DOjCbJiaclQDaDfyvuZ8TxDMg0InjnQZIJrfyhB0DtvTDLCrVQXc7odChPuyo15f7cBrUTumak8uwpx6Fy9uTabvuJlnLv7/tzuMP8KgT7UrtWyCbRFGeSu+J4idJGevMQpB0EsPE4JIWiyrGcmsjKbcxyQmQahYepeDbBeUFA12klnAiJfQA111GCPP3mjLQ0NDKlZyQTAVmYGsVw3SBTPsz6pOgmghI5OoTVcyzgPg1eUgBEv27Z2VXAcDsPFi9/NTNMEvnrW/IiaRpKRl/0Btc2XcudGyg+siZ+5NTRSPdHdgRehCxPJ19rMRMN7sLAlIFt7hfsNJ76Hr/94p2hZajb2170+C/lLRjp7HiHJ7irVnmRc3PVUuYUbpzC8sU//IKykLeEXk0vSSYVgm8e9F6T1JvDsLkRqhuTgHGqov/VEQCGeBSpj3NiKYbHwtZdL3q6vOIFqSX74MtzU4ThQdxNnHo4f7JkgN3tUQaMz+tgZZCp7O8XQ7p7PdmRNmenjDsQOdSEltpb7hrsBP1IiCTLkU6Ri1Vek+rRAgukAsy5QF0WklAS+y7/VgPxs1MzHQ8wXYwhu/TMd/ljBaMf6vbbGfLlJjAdLunONCkpeuHAtXw3U0vWzmyqKvIdtXV3fptN+pj6eB0imeWQNYbu/6CnYGQhRGvT6GgCnICXi7CpUzRAWwOjXxOMnMDnAn43Vip/vlq+XxaJaGrfvFX6OGc+AaZ9n2kWvdJbFWzQp85lvCuVvC8RHWgDF5Rs+61uEBSKFbORQFqjdy203qXRPLw1avUIRSgIkt3z6vIs252arvPX4j8Yi5li5WT2vCN/oyr1nPu4Kb342ps02FCDnqtMqieV6Rj6sg6tACjZmfnxJY/DWbeb4F9fU32nczLRCqctx50CgMnzW86R3WCkCC8KhdSqwWgOQzy5LBJmHSVDbeqqImecF06PJWxtzNXDIwyBsvzT4GY/kM1PAp8R1KxYLHUUlJP8WBNxswi6sex1ka3qwHY+FAOf6Qd88hNaSKHZpvrfWU4HJ/UBvZf1laOfaRZzW/MH38cAiWkwsbBsllI/yPyngTLJHKxKGEqKkWol3Q1HTZ1lghP4hZRyaiz3RvVKARG5qZ37+cg0wZhjiEEZrnMvqBdF47GESc6t1CB3dnJ3FVvReFb5KPRSSvoSuQt3Jjl52T653+9/6+gKoDGN3aTkdKLihOAVlpF4MIEUy6QlYzcLlYpNtPFOeuoLjL0zzfpKMpjmUJ9WaBfJNE/x2tgljnKtBdDAOTRnCUtWUiEWJU+T/nWut+4zXcbTnKYyQ3HOZYgcWAAyhI+f7wSqetyJp0ndFbsSiYcFQfJNQDrUja59ablJBFHuajMXT+fpCcanJernE4KSJN2HxoUyezQD/BhGFu6R46x725U1/HR2u+71P1Fejv79CFbiUa9P1sUPEjfdyc4lzYY0pEb55M0F/1MihM2cboK/Ed9+feR6MT779W0d46oeBI5gof3PNprqDrUo/qjsIekDMgmP99Bi41ZeP3WVEGPHrTOWyfZFO0xmAQoppKJMeq+0SSuVnBvASAyXV1ErOPFanV50DabuMkmnCyzWpskFBOhXvrLrUL5lluhjt7YBvsJ/JzLiehJ68u7hSyH4j+9kYa9fbm6GFJM1xETWuxh05mnyhb7tNVqbUWXpyUSHnTDIQjP5mLiTcnDCRJTWvqSaMgIuNib/MO9K21fo6IDSaiHecr6+d3YrhM8o4YJA03Z0Y+3COCK5ILn1EflHSktC6dOUrWTKAK2V5eOpMwqE3tzooftZ05Ez8u85nUillham4u1sABARuo93zNVoXc9bKTqp7PJkbirwPcQcQLqzNN+DR0v7OCYIoGDseWnQ+YnGVckcEbhxokKvaXKo3SmqhObSWV+k3EQw0Evp3e1hYsJW6KJAFOK7LIk2hDWe4ZCwH56pZuNrkGtZQPQCcXbRkgIFh1blkTYdwDHMoTk74hKesEDQNr+9CgiJo6BzIv8vGKh1bW3l3X0ZjlVLCeZYNIbTegoUqL9af31FRXo+OZaJnZvwx4JoeHsQY13mrwdvfnWg9xwosh26hFMGSYvWm3sgIko7S2PB1+I9X6kLW0dzFplUoBKtAygKpinyBAafzaqoGtO+5UnsastT92E6G4JgfCfn/HNFFxv1QGuoaxH3TSoknInF1qTnqJzvJ6DI44Ezz8J/e1n1vycf36p3Tk6KQHcCN7q5TrhcUpiCr7PxySA1+/U3tlaoe2xrsjFz0+MCxFO2KJpqvxJv1+G6aH4AbaldmqttR0WEmxfWwJe7b5xDlpueRHQTcuqSEZKr5bc1CwnXF13z7MRjMiRyKXu5OqBeNxkY896IMumnnslGYcanQL6JCp2gKeb4YAMvbl3h849EGUjwadTmjqjtTpBoqRIDL2HZWUPO3HiPhrSo091NBOJ4APyM5Jrk3iaDPn7DbdJOMuOQksAfA2EFHXVveWxHnaFqMPRUxoozacXuk0LvsJC2zxwkgcVBC4U6D9vxc6l8U2Mx8hUPA9peYbj7TPkXddEtt/OQLYHXf1t1niglxvJj7Si7p2ZC/XwZvlnzKzrG641QQDnrZc+UTmnF0WEzSXM3lPsmE5NqgXrHMiMjqmN5r0vYK9JsCLvShjlCj5/G+2yCdtZUZxq9qeyqcBU4OZWnR8foXQsc8KSYlZ4yArppjc5uwLRttbIaPVv43QKrHNtNX7kyiMxHJQwHN/2vP1/NzZuWusbLbFaeve3/ZhKZdaU8daDfX7mPubrPsUUNoTTQC3WjFStgMWN2v3Wr71pyaRj8Dzcku3LF7AEnb2MY5pZ6ATi9PJUN7POeyeyrW6/J3s1bTjd8cOCutxMy+p1lrJbsuyl2wHkQDf33A0tPNHpKET1bGGVzX7wdUL1RszdDjepaE000EodXfV6W08KzSrI8V/PvBKXTy4fRuX22sdyFTDOj38Pq4NoGQqV5tgOieogl0o45JRxUZDwJOFt40CJTEh30LaitGM+67wTD/8HDPOtst1lGVwAAAAASUVORK5CYII=;imageBorder=default;" vertex="1" parent="1">
          <mxGeometry x="127.57" y="210" width="400" height="60" as="geometry" />
        </mxCell>
        <mxCell id="vNEpbfYkABLHEOKN5NfH-6" value="" style="endArrow=classic;html=1;rounded=0;" edge="1" parent="1">
          <mxGeometry width="50" height="50" relative="1" as="geometry">
            <mxPoint x="45.129999999999995" y="20" as="sourcePoint" />
            <mxPoint x="610" y="20" as="targetPoint" />
          </mxGeometry>
        </mxCell>
      </root>
    </mxGraphModel>
  </diagram>
</mxfile>
